STARTFONT 2.3
FONT -FontForge-Open Sans-Book-I-Normal-Sans--12-120-72-72-P-65-ISO10646-1
SIZE 12 72 72  2
FONTBOUNDINGBOX 21 16 -6 -3
COMMENT "Generated by fontforge, http://fontforge.sourceforge.net"
COMMENT "Digitized data copyright (c) 2010-2011, Google Corporation."
STARTPROPERTIES 42
FOUNDRY "FontForge"
FAMILY_NAME "Open Sans"
WEIGHT_NAME "Book"
SLANT "I"
SETWIDTH_NAME "Normal"
ADD_STYLE_NAME "Sans"
PIXEL_SIZE 12
POINT_SIZE 120
RESOLUTION_X 72
RESOLUTION_Y 72
SPACING "P"
AVERAGE_WIDTH 65
CHARSET_REGISTRY "ISO10646"
CHARSET_ENCODING "1"
FONTNAME_REGISTRY ""
CHARSET_COLLECTIONS "ISO8859-2 ISO8859-5 ISO8859-7 ISO8859-9 ISO8859-4 ISO10646-1"
BITS_PER_PIXEL 2
FONT_NAME "OpenSans-Italic"
FACE_NAME "Open Sans Italic"
COPYRIGHT "Digitized data copyright (c) 2010-2011, Google Corporation."
FONT_VERSION "1.10"
FONT_ASCENT 10
FONT_DESCENT 2
UNDERLINE_POSITION -1
UNDERLINE_THICKNESS 1
X_HEIGHT 5
CAP_HEIGHT 8
RAW_ASCENT 799
RAW_DESCENT 200
ITALIC_ANGLE 4992
NORM_SPACE 3
RELATIVE_WEIGHT 40
RELATIVE_SETWIDTH 50
SUPERSCRIPT_X 0
SUPERSCRIPT_Y 5
SUPERSCRIPT_SIZE 7
SUBSCRIPT_X 0
SUBSCRIPT_Y 1
SUBSCRIPT_SIZE 7
FIGURE_WIDTH 7
AVG_LOWERCASE_WIDTH 64
AVG_UPPERCASE_WIDTH 73
ENDPROPERTIES
CHARS 936
STARTCHAR space
ENCODING 32
SWIDTH 259 0
DWIDTH 3 0
BBX 1 1 0 0
BITMAP
00
ENDCHAR
STARTCHAR exclam
ENCODING 33
SWIDTH 258 0
DWIDTH 3 0
BBX 3 9 0 0
BITMAP
0C
1C
18
24
20
20
00
50
A0
ENDCHAR
STARTCHAR quotedbl
ENCODING 34
SWIDTH 386 0
DWIDTH 5 0
BBX 4 3 1 6
BITMAP
66
55
88
ENDCHAR
STARTCHAR numbersign
ENCODING 35
SWIDTH 645 0
DWIDTH 8 0
BBX 8 9 0 0
BITMAP
0148
0208
0214
2FBA
0520
0860
6EE8
1480
2080
ENDCHAR
STARTCHAR dollar
ENCODING 36
SWIDTH 550 0
DWIDTH 7 0
BBX 6 10 0 -1
BITMAP
0080
0BE0
1940
2600
1F00
03D0
0650
0590
7F40
0800
ENDCHAR
STARTCHAR percent
ENCODING 37
SWIDTH 792 0
DWIDTH 10 0
BBX 8 9 1 0
BITMAP
2909
9618
8620
C5AA
8AA3
AA52
0892
2495
6068
ENDCHAR
STARTCHAR ampersand
ENCODING 38
SWIDTH 669 0
DWIDTH 8 0
BBX 8 9 0 0
BITMAP
06A0
0924
0C30
0A90
1B00
6189
90A8
6074
2E98
ENDCHAR
STARTCHAR quotesingle
ENCODING 39
SWIDTH 216 0
DWIDTH 3 0
BBX 2 3 1 6
BITMAP
60
50
80
ENDCHAR
STARTCHAR parenleft
ENCODING 40
SWIDTH 285 0
DWIDTH 3 0
BBX 4 11 0 -2
BITMAP
02
09
18
24
30
60
60
50
60
60
20
ENDCHAR
STARTCHAR parenright
ENCODING 41
SWIDTH 285 0
DWIDTH 3 0
BBX 4 11 -1 -2
BITMAP
09
06
02
03
03
06
06
09
18
24
90
ENDCHAR
STARTCHAR asterisk
ENCODING 42
SWIDTH 551 0
DWIDTH 7 0
BBX 6 6 1 3
BITMAP
0200
4200
6A50
0A50
2200
1240
ENDCHAR
STARTCHAR plus
ENCODING 43
SWIDTH 550 0
DWIDTH 7 0
BBX 6 6 0 2
BITMAP
0100
0200
0200
6BA0
0200
0200
ENDCHAR
STARTCHAR comma
ENCODING 44
SWIDTH 240 0
DWIDTH 3 0
BBX 3 3 -1 -2
BITMAP
28
30
50
ENDCHAR
STARTCHAR hyphen
ENCODING 45
SWIDTH 312 0
DWIDTH 4 0
BBX 4 1 0 3
BITMAP
BD
ENDCHAR
STARTCHAR period
ENCODING 46
SWIDTH 252 0
DWIDTH 3 0
BBX 2 2 0 0
BITMAP
50
90
ENDCHAR
STARTCHAR slash
ENCODING 47
SWIDTH 350 0
DWIDTH 4 0
BBX 6 9 -1 0
BITMAP
0030
0090
00C0
0240
0600
0900
1800
2400
6000
ENDCHAR
STARTCHAR zero
ENCODING 48
SWIDTH 550 0
DWIDTH 7 0
BBX 7 9 0 0
BITMAP
06E0
0C34
2424
3024
3024
6030
6060
3090
1E40
ENDCHAR
STARTCHAR one
ENCODING 49
SWIDTH 550 0
DWIDTH 7 0
BBX 4 9 2 0
BITMAP
1D
AC
58
18
24
30
30
60
60
ENDCHAR
STARTCHAR two
ENCODING 50
SWIDTH 550 0
DWIDTH 7 0
BBX 7 9 0 0
BITMAP
0AE0
0434
0024
0030
0090
0240
0900
6400
BFD0
ENDCHAR
STARTCHAR three
ENCODING 51
SWIDTH 550 0
DWIDTH 7 0
BBX 7 9 0 0
BITMAP
0AE0
0434
0024
00A0
0B80
0090
0060
4090
7F40
ENDCHAR
STARTCHAR four
ENCODING 52
SWIDTH 550 0
DWIDTH 7 0
BBX 7 9 0 0
BITMAP
0074
00B0
0260
0960
2890
6090
BFF4
0180
0180
ENDCHAR
STARTCHAR five
ENCODING 53
SWIDTH 550 0
DWIDTH 7 0
BBX 7 9 0 0
BITMAP
0BF4
0C00
1800
2A80
00A0
0060
0060
0090
7E40
ENDCHAR
STARTCHAR six
ENCODING 54
SWIDTH 550 0
DWIDTH 7 0
BBX 7 9 0 0
BITMAP
02F4
0A00
1800
2AD0
3470
3030
6060
3090
1F80
ENDCHAR
STARTCHAR seven
ENCODING 55
SWIDTH 550 0
DWIDTH 7 0
BBX 6 9 1 0
BITMAP
BFE0
0090
0180
0300
0600
0C00
2400
7000
9000
ENDCHAR
STARTCHAR eight
ENCODING 56
SWIDTH 550 0
DWIDTH 7 0
BBX 7 9 0 0
BITMAP
06E0
0C24
0C24
0960
0B80
34A0
6060
60A0
2F80
ENDCHAR
STARTCHAR nine
ENCODING 57
SWIDTH 550 0
DWIDTH 7 0
BBX 7 9 0 0
BITMAP
07D0
1830
2424
3034
2470
0A60
0090
0180
7E00
ENDCHAR
STARTCHAR colon
ENCODING 58
SWIDTH 252 0
DWIDTH 3 0
BBX 3 6 0 0
BITMAP
28
14
00
00
50
90
ENDCHAR
STARTCHAR semicolon
ENCODING 59
SWIDTH 252 0
DWIDTH 3 0
BBX 4 8 -1 -2
BITMAP
0A
05
00
00
00
28
30
50
ENDCHAR
STARTCHAR less
ENCODING 60
SWIDTH 550 0
DWIDTH 7 0
BBX 5 6 1 1
BITMAP
0080
0A40
A400
A000
1A00
0180
ENDCHAR
STARTCHAR equal
ENCODING 61
SWIDTH 550 0
DWIDTH 7 0
BBX 6 3 0 3
BITMAP
6AA0
0000
6AA0
ENDCHAR
STARTCHAR greater
ENCODING 62
SWIDTH 550 0
DWIDTH 7 0
BBX 6 6 0 1
BITMAP
6000
1A00
0190
00A0
1A40
6000
ENDCHAR
STARTCHAR question
ENCODING 63
SWIDTH 426 0
DWIDTH 5 0
BBX 5 9 1 0
BITMAP
7E00
0240
0240
0A00
2400
6000
0000
4000
D000
ENDCHAR
STARTCHAR at
ENCODING 64
SWIDTH 847 0
DWIDTH 10 0
BBX 10 10 0 -1
BITMAP
01AA40
0A0090
18A960
214920
630820
620C60
621890
329A40
280000
06A800
ENDCHAR
STARTCHAR A
ENCODING 65
SWIDTH 555 0
DWIDTH 7 0
BBX 7 9 -1 0
BITMAP
0070
00A4
01A4
0224
0618
0FF8
1818
300C
600C
ENDCHAR
STARTCHAR B
ENCODING 66
SWIDTH 598 0
DWIDTH 7 0
BBX 7 9 0 0
BITMAP
0BF4
0C1C
180C
1828
2FE0
2424
3024
6034
7F90
ENDCHAR
STARTCHAR C
ENCODING 67
SWIDTH 584 0
DWIDTH 7 0
BBX 7 9 1 0
BITMAP
07F4
2800
6000
9000
C000
C000
C000
A000
2F80
ENDCHAR
STARTCHAR D
ENCODING 68
SWIDTH 666 0
DWIDTH 8 0
BBX 8 9 0 0
BITMAP
0BE4
0C1C
1809
1806
240A
2409
301C
6074
7F90
ENDCHAR
STARTCHAR E
ENCODING 69
SWIDTH 511 0
DWIDTH 6 0
BBX 7 9 0 0
BITMAP
0BF4
0C00
1800
1800
2FD0
2400
3000
6000
7F80
ENDCHAR
STARTCHAR F
ENCODING 70
SWIDTH 472 0
DWIDTH 6 0
BBX 7 9 0 0
BITMAP
0BF4
0C00
1800
1800
2FD0
2000
3000
6000
6000
ENDCHAR
STARTCHAR G
ENCODING 71
SWIDTH 676 0
DWIDTH 8 0
BBX 7 9 1 0
BITMAP
07F8
2804
6000
9000
C1F4
C024
C030
A060
2F90
ENDCHAR
STARTCHAR H
ENCODING 72
SWIDTH 678 0
DWIDTH 8 0
BBX 8 9 0 0
BITMAP
0903
0C03
1C06
1805
2FFD
240C
300C
6018
6024
ENDCHAR
STARTCHAR I
ENCODING 73
SWIDTH 272 0
DWIDTH 3 0
BBX 4 9 0 0
BITMAP
09
0C
18
18
24
24
30
60
60
ENDCHAR
STARTCHAR J
ENCODING 74
SWIDTH 267 0
DWIDTH 3 0
BBX 6 11 -2 -2
BITMAP
0090
00C0
0180
0180
0240
0340
0300
0600
0600
0D00
B400
ENDCHAR
STARTCHAR K
ENCODING 75
SWIDTH 557 0
DWIDTH 7 0
BBX 8 9 0 0
BITMAP
0909
0C24
1890
1A40
2F40
2580
30C0
6090
6070
ENDCHAR
STARTCHAR L
ENCODING 76
SWIDTH 474 0
DWIDTH 6 0
BBX 5 9 0 0
BITMAP
0900
0C00
1800
1800
2400
2400
3000
6000
7F80
ENDCHAR
STARTCHAR M
ENCODING 77
SWIDTH 836 0
DWIDTH 10 0
BBX 10 9 0 0
BITMAP
0A00B0
0F01E0
1A02A0
1A0690
264890
2158C0
31A180
61E180
60C240
ENDCHAR
STARTCHAR N
ENCODING 78
SWIDTH 702 0
DWIDTH 8 0
BBX 9 9 0 0
BITMAP
0A0240
0F0240
1A4300
198600
24C600
209900
306900
603C00
602800
ENDCHAR
STARTCHAR O
ENCODING 79
SWIDTH 720 0
DWIDTH 9 0
BBX 8 9 1 0
BITMAP
0BE0
2828
600C
9009
C00D
C00C
C028
A070
2F80
ENDCHAR
STARTCHAR P
ENCODING 80
SWIDTH 565 0
DWIDTH 7 0
BBX 7 9 0 0
BITMAP
0BE0
0C28
1C18
1818
2474
2E90
3000
7000
6000
ENDCHAR
STARTCHAR Q
ENCODING 81
SWIDTH 720 0
DWIDTH 9 0
BBX 8 11 1 -2
BITMAP
0BE0
2828
600C
9009
C00C
C00C
C028
A070
2F80
0180
0090
ENDCHAR
STARTCHAR R
ENCODING 82
SWIDTH 568 0
DWIDTH 7 0
BBX 7 9 0 0
BITMAP
0BE0
0C18
1818
1864
2FD0
20C0
3090
6060
6070
ENDCHAR
STARTCHAR S
ENCODING 83
SWIDTH 501 0
DWIDTH 6 0
BBX 6 9 0 0
BITMAP
0BE0
1810
2400
1800
0B40
01C0
0090
41C0
BE40
ENDCHAR
STARTCHAR T
ENCODING 84
SWIDTH 498 0
DWIDTH 6 0
BBX 6 9 1 0
BITMAP
BFF0
0900
0C00
0C00
1800
1800
2400
3000
3000
ENDCHAR
STARTCHAR U
ENCODING 85
SWIDTH 675 0
DWIDTH 8 0
BBX 7 9 1 0
BITMAP
300C
300C
6018
9018
9024
C030
C070
D090
6F40
ENDCHAR
STARTCHAR V
ENCODING 86
SWIDTH 547 0
DWIDTH 7 0
BBX 7 9 1 0
BITMAP
C024
9070
9090
90C0
6240
6300
6900
3800
3400
ENDCHAR
STARTCHAR W
ENCODING 87
SWIDTH 852 0
DWIDTH 10 0
BBX 10 9 1 0
BITMAP
906030
90B060
91B0D0
923180
963240
592300
682900
742C00
702800
ENDCHAR
STARTCHAR X
ENCODING 88
SWIDTH 519 0
DWIDTH 6 0
BBX 8 9 -1 0
BITMAP
0606
030C
0264
01E0
01C0
0290
0960
2830
6024
ENDCHAR
STARTCHAR Y
ENCODING 89
SWIDTH 502 0
DWIDTH 6 0
BBX 6 9 1 0
BITMAP
9060
90D0
6280
3600
2D00
2800
2400
3000
3000
ENDCHAR
STARTCHAR Z
ENCODING 90
SWIDTH 530 0
DWIDTH 6 0
BBX 7 9 0 0
BITMAP
1FF8
0034
0090
0180
0700
0D00
2400
6000
FFD0
ENDCHAR
STARTCHAR bracketleft
ENCODING 91
SWIDTH 286 0
DWIDTH 3 0
BBX 5 11 0 -2
BITMAP
0E40
0800
1800
2400
2000
3000
6000
6000
9000
8000
F400
ENDCHAR
STARTCHAR backslash
ENCODING 92
SWIDTH 350 0
DWIDTH 4 0
BBX 3 9 1 0
BITMAP
90
50
60
60
30
30
20
24
24
ENDCHAR
STARTCHAR bracketright
ENCODING 93
SWIDTH 286 0
DWIDTH 3 0
BBX 5 11 -1 -2
BITMAP
0B80
0240
0300
0300
0600
0600
0900
0C00
0C00
1800
B400
ENDCHAR
STARTCHAR asciicircum
ENCODING 94
SWIDTH 517 0
DWIDTH 6 0
BBX 6 6 0 3
BITMAP
0180
0280
0980
1850
2060
6030
ENDCHAR
STARTCHAR underscore
ENCODING 95
SWIDTH 394 0
DWIDTH 5 0
BBX 5 1 -1 -2
BITMAP
AA80
ENDCHAR
STARTCHAR grave
ENCODING 96
SWIDTH 554 0
DWIDTH 7 0
BBX 2 2 3 7
BITMAP
60
20
ENDCHAR
STARTCHAR a
ENCODING 97
SWIDTH 564 0
DWIDTH 7 0
BBX 7 6 0 0
BITMAP
0B94
2834
3030
6060
60E0
2A90
ENDCHAR
STARTCHAR b
ENCODING 98
SWIDTH 577 0
DWIDTH 7 0
BBX 7 9 0 0
BITMAP
0800
0C00
1800
1AE0
2C24
3424
3030
70A0
9B80
ENDCHAR
STARTCHAR c
ENCODING 99
SWIDTH 450 0
DWIDTH 5 0
BBX 6 6 0 0
BITMAP
0BD0
2400
7000
6000
6000
2E40
ENDCHAR
STARTCHAR d
ENCODING 100
SWIDTH 577 0
DWIDTH 7 0
BBX 7 9 0 0
BITMAP
000C
0008
0018
0AA4
2434
7030
6060
60E0
2A90
ENDCHAR
STARTCHAR e
ENCODING 101
SWIDTH 493 0
DWIDTH 6 0
BBX 6 6 0 0
BITMAP
0BD0
28A0
7190
7A40
6000
2E80
ENDCHAR
STARTCHAR f
ENCODING 102
SWIDTH 312 0
DWIDTH 4 0
BBX 7 12 -2 -3
BITMAP
0068
0090
00C0
02E0
0180
0240
0300
0300
0600
0900
0C00
7800
ENDCHAR
STARTCHAR g
ENCODING 103
SWIDTH 500 0
DWIDTH 6 0
BBX 8 9 -1 -3
BITMAP
06B9
0C24
0C30
0A90
1800
1E90
6070
9060
6A80
ENDCHAR
STARTCHAR h
ENCODING 104
SWIDTH 577 0
DWIDTH 7 0
BBX 7 9 0 0
BITMAP
0800
0C00
1800
1AE0
2824
3430
3030
6060
9090
ENDCHAR
STARTCHAR i
ENCODING 105
SWIDTH 253 0
DWIDTH 3 0
BBX 3 8 0 0
BITMAP
08
04
18
24
30
30
60
90
ENDCHAR
STARTCHAR j
ENCODING 106
SWIDTH 253 0
DWIDTH 3 0
BBX 5 11 -2 -3
BITMAP
0080
0040
0180
0240
0300
0300
0600
0500
0900
0C00
7400
ENDCHAR
STARTCHAR k
ENCODING 107
SWIDTH 487 0
DWIDTH 6 0
BBX 6 9 0 0
BITMAP
0C00
0C00
1800
18A0
2680
3A00
3700
6240
91C0
ENDCHAR
STARTCHAR l
ENCODING 108
SWIDTH 253 0
DWIDTH 3 0
BBX 3 9 0 0
BITMAP
08
0C
18
18
24
30
30
60
90
ENDCHAR
STARTCHAR m
ENCODING 109
SWIDTH 872 0
DWIDTH 10 0
BBX 10 6 0 0
BITMAP
1AE6D0
283860
343060
306090
609080
9090C0
ENDCHAR
STARTCHAR n
ENCODING 110
SWIDTH 577 0
DWIDTH 7 0
BBX 7 6 0 0
BITMAP
1AE0
2C24
3430
3030
6060
9090
ENDCHAR
STARTCHAR o
ENCODING 111
SWIDTH 561 0
DWIDTH 7 0
BBX 6 6 0 0
BITMAP
0B90
2430
6030
6030
60A0
2E80
ENDCHAR
STARTCHAR p
ENCODING 112
SWIDTH 577 0
DWIDTH 7 0
BBX 7 9 0 -3
BITMAP
1AE0
2C24
2424
3030
70A0
6B80
9000
C000
8000
ENDCHAR
STARTCHAR q
ENCODING 113
SWIDTH 577 0
DWIDTH 7 0
BBX 7 9 0 -3
BITMAP
0B94
2834
3030
6060
61E0
2A90
00C0
00C0
0180
ENDCHAR
STARTCHAR r
ENCODING 114
SWIDTH 395 0
DWIDTH 5 0
BBX 5 6 0 0
BITMAP
1AC0
2C00
3400
3000
6000
9000
ENDCHAR
STARTCHAR s
ENCODING 115
SWIDTH 428 0
DWIDTH 5 0
BBX 5 6 0 0
BITMAP
2F80
3000
2800
0700
0240
AE00
ENDCHAR
STARTCHAR t
ENCODING 116
SWIDTH 324 0
DWIDTH 4 0
BBX 4 7 0 0
BITMAP
08
7E
24
30
30
60
38
ENDCHAR
STARTCHAR u
ENCODING 117
SWIDTH 577 0
DWIDTH 7 0
BBX 7 6 0 0
BITMAP
1824
2424
3030
2060
60E0
2A90
ENDCHAR
STARTCHAR v
ENCODING 118
SWIDTH 461 0
DWIDTH 6 0
BBX 6 6 0 0
BITMAP
6060
6090
3180
3300
3A00
2C00
ENDCHAR
STARTCHAR w
ENCODING 119
SWIDTH 716 0
DWIDTH 9 0
BBX 9 6 0 0
BITMAP
60D180
619240
626600
656900
286800
343400
ENDCHAR
STARTCHAR x
ENCODING 120
SWIDTH 478 0
DWIDTH 6 0
BBX 6 6 0 0
BITMAP
24A0
1980
0A00
1E00
2200
9180
ENDCHAR
STARTCHAR y
ENCODING 121
SWIDTH 461 0
DWIDTH 6 0
BBX 7 9 -1 -3
BITMAP
1818
1824
0C60
0CC0
0980
0B00
0900
1800
A000
ENDCHAR
STARTCHAR z
ENCODING 122
SWIDTH 443 0
DWIDTH 5 0
BBX 5 6 0 0
BITMAP
2AC0
0240
0A00
1800
6000
EA00
ENDCHAR
STARTCHAR braceleft
ENCODING 123
SWIDTH 349 0
DWIDTH 4 0
BBX 5 11 0 -2
BITMAP
0280
0500
0900
0C00
1800
A000
2400
2400
3000
3000
2800
ENDCHAR
STARTCHAR bar
ENCODING 124
SWIDTH 550 0
DWIDTH 7 0
BBX 1 12 3 -3
BITMAP
80
80
80
80
80
80
80
80
80
80
80
80
ENDCHAR
STARTCHAR braceright
ENCODING 125
SWIDTH 349 0
DWIDTH 4 0
BBX 5 11 -1 -2
BITMAP
0700
0240
0240
0300
0300
02C0
0600
0900
0C00
1800
7400
ENDCHAR
STARTCHAR asciitilde
ENCODING 126
SWIDTH 550 0
DWIDTH 7 0
BBX 7 2 0 3
BITMAP
2D04
42E0
ENDCHAR
STARTCHAR nonbreakingspace
ENCODING 160
SWIDTH 259 0
DWIDTH 3 0
BBX 1 1 0 0
BITMAP
00
ENDCHAR
STARTCHAR exclamdown
ENCODING 161
SWIDTH 258 0
DWIDTH 3 0
BBX 3 8 0 -2
BITMAP
18
14
20
20
20
60
90
D0
ENDCHAR
STARTCHAR cent
ENCODING 162
SWIDTH 550 0
DWIDTH 7 0
BBX 5 9 1 0
BITMAP
0200
0B80
2400
6000
9000
9000
6000
2E40
1800
ENDCHAR
STARTCHAR sterling
ENCODING 163
SWIDTH 550 0
DWIDTH 7 0
BBX 7 9 0 0
BITMAP
02F8
0600
0900
0C00
6E80
1800
2400
2000
FFD0
ENDCHAR
STARTCHAR currency
ENCODING 164
SWIDTH 550 0
DWIDTH 7 0
BBX 5 6 1 1
BITMAP
8080
AA80
9180
9180
AA80
8080
ENDCHAR
STARTCHAR yen
ENCODING 165
SWIDTH 550 0
DWIDTH 7 0
BBX 6 9 1 0
BITMAP
5030
6090
3180
2240
2A00
AE40
1800
BE00
2000
ENDCHAR
STARTCHAR brokenbar
ENCODING 166
SWIDTH 550 0
DWIDTH 7 0
BBX 1 12 3 -3
BITMAP
80
80
80
80
80
00
00
80
80
80
80
80
ENDCHAR
STARTCHAR section
ENCODING 167
SWIDTH 485 0
DWIDTH 6 0
BBX 6 9 0 0
BITMAP
0AA0
1800
0E00
29C0
3090
2980
0640
0180
6A00
ENDCHAR
STARTCHAR dieresis
ENCODING 168
SWIDTH 554 0
DWIDTH 7 0
BBX 4 1 2 8
BITMAP
62
ENDCHAR
STARTCHAR copyright
ENCODING 169
SWIDTH 832 0
DWIDTH 10 0
BBX 9 9 1 0
BITMAP
0AA400
200500
82A200
890040
4C0080
880040
869200
200500
0AA400
ENDCHAR
STARTCHAR ordfeminine
ENCODING 170
SWIDTH 334 0
DWIDTH 4 0
BBX 4 4 1 5
BITMAP
69
85
88
A8
ENDCHAR
STARTCHAR guillemotleft
ENCODING 171
SWIDTH 467 0
DWIDTH 6 0
BBX 6 5 0 1
BITMAP
0850
2580
6300
2240
1580
ENDCHAR
STARTCHAR logicalnot
ENCODING 172
SWIDTH 550 0
DWIDTH 7 0
BBX 6 3 0 2
BITMAP
6AB0
0020
0020
ENDCHAR
STARTCHAR uni00AD
ENCODING 173
SWIDTH 312 0
DWIDTH 4 0
BBX 4 1 0 3
BITMAP
BD
ENDCHAR
STARTCHAR registered
ENCODING 174
SWIDTH 832 0
DWIDTH 10 0
BBX 9 9 1 0
BITMAP
0AA400
200500
87A200
862040
47D080
865040
862200
200500
0AA400
ENDCHAR
STARTCHAR overscore
ENCODING 175
SWIDTH 381 0
DWIDTH 5 0
BBX 5 1 1 9
BITMAP
6A80
ENDCHAR
STARTCHAR degree
ENCODING 176
SWIDTH 428 0
DWIDTH 5 0
BBX 4 4 1 5
BITMAP
29
82
82
29
ENDCHAR
STARTCHAR plusminus
ENCODING 177
SWIDTH 550 0
DWIDTH 7 0
BBX 6 7 0 0
BITMAP
0200
0200
6BA0
0200
0200
0000
6AA0
ENDCHAR
STARTCHAR twosuperior
ENCODING 178
SWIDTH 350 0
DWIDTH 4 0
BBX 5 5 0 4
BITMAP
1A40
0140
0200
1800
7A00
ENDCHAR
STARTCHAR threesuperior
ENCODING 179
SWIDTH 350 0
DWIDTH 4 0
BBX 5 5 0 4
BITMAP
1A40
0240
0A00
0200
6A00
ENDCHAR
STARTCHAR acute
ENCODING 180
SWIDTH 554 0
DWIDTH 7 0
BBX 3 2 3 7
BITMAP
24
90
ENDCHAR
STARTCHAR mu
ENCODING 181
SWIDTH 583 0
DWIDTH 7 0
BBX 7 9 0 -3
BITMAP
1818
2424
2030
3060
60E0
6E90
9000
C000
8000
ENDCHAR
STARTCHAR paragraph
ENCODING 182
SWIDTH 654 0
DWIDTH 8 0
BBX 6 11 1 -2
BITMAP
2FF0
BF20
BF20
BF20
BF20
2F20
0220
0220
0220
0220
0220
ENDCHAR
STARTCHAR periodcentered
ENCODING 183
SWIDTH 252 0
DWIDTH 3 0
BBX 2 2 1 4
BITMAP
50
D0
ENDCHAR
STARTCHAR cedilla
ENCODING 184
SWIDTH 205 0
DWIDTH 2 0
BBX 2 3 -1 -3
BITMAP
20
20
A0
ENDCHAR
STARTCHAR onesuperior
ENCODING 185
SWIDTH 350 0
DWIDTH 4 0
BBX 3 5 1 4
BITMAP
28
58
24
20
20
ENDCHAR
STARTCHAR ordmasculine
ENCODING 186
SWIDTH 335 0
DWIDTH 4 0
BBX 4 4 1 5
BITMAP
68
85
85
A8
ENDCHAR
STARTCHAR guillemotright
ENCODING 187
SWIDTH 467 0
DWIDTH 6 0
BBX 5 5 0 1
BITMAP
2200
2580
18C0
2240
8500
ENDCHAR
STARTCHAR onequarter
ENCODING 188
SWIDTH 741 0
DWIDTH 9 0
BBX 7 9 1 0
BITMAP
6418
6420
2090
2180
6218
0868
2594
62B8
8020
ENDCHAR
STARTCHAR onehalf
ENCODING 189
SWIDTH 741 0
DWIDTH 9 0
BBX 9 9 0 0
BITMAP
1C0900
181800
082000
149000
255A40
060140
080200
241800
607A00
ENDCHAR
STARTCHAR threequarters
ENCODING 190
SWIDTH 764 0
DWIDTH 9 0
BBX 9 9 0 0
BITMAP
1A0180
020200
190800
022400
696180
008640
025600
062B40
080200
ENDCHAR
STARTCHAR questiondown
ENCODING 191
SWIDTH 426 0
DWIDTH 5 0
BBX 5 8 0 -2
BITMAP
0240
0100
0200
1900
6000
D000
C100
7E00
ENDCHAR
STARTCHAR Agrave
ENCODING 192
SWIDTH 555 0
DWIDTH 7 0
BBX 7 12 -1 0
BITMAP
0090
0020
0000
0070
00A4
01A4
0224
0618
0FF8
1818
300C
600C
ENDCHAR
STARTCHAR Aacute
ENCODING 193
SWIDTH 555 0
DWIDTH 7 0
BBX 8 12 -1 0
BITMAP
000D
0024
0000
0070
00A4
01A4
0224
0618
0FF8
1818
300C
600C
ENDCHAR
STARTCHAR Acircumflex
ENCODING 194
SWIDTH 555 0
DWIDTH 7 0
BBX 7 12 -1 0
BITMAP
0038
0088
0000
0070
00A4
01A4
0224
0618
0FF8
1818
300C
600C
ENDCHAR
STARTCHAR Atilde
ENCODING 195
SWIDTH 555 0
DWIDTH 7 0
BBX 8 12 -1 0
BITMAP
00A2
015D
0000
0070
00A4
01A4
0224
0618
0FF8
1818
300C
600C
ENDCHAR
STARTCHAR Adieresis
ENCODING 196
SWIDTH 555 0
DWIDTH 7 0
BBX 7 11 -1 0
BITMAP
0088
0000
0070
00A4
01A4
0224
0618
0FF8
1818
300C
600C
ENDCHAR
STARTCHAR Aring
ENCODING 197
SWIDTH 555 0
DWIDTH 7 0
BBX 7 11 -1 0
BITMAP
0064
0088
00B8
00A4
01A4
0224
0618
0FF8
1818
300C
600C
ENDCHAR
STARTCHAR AE
ENCODING 198
SWIDTH 816 0
DWIDTH 10 0
BBX 12 9 -1 0
BITMAP
002FFD
003600
009900
018900
030FF4
0BFC00
181800
242400
602FE0
ENDCHAR
STARTCHAR Ccedilla
ENCODING 199
SWIDTH 584 0
DWIDTH 7 0
BBX 7 12 1 -3
BITMAP
07F4
2800
6000
9000
C000
C000
C000
A000
2F80
0800
0900
1800
ENDCHAR
STARTCHAR Egrave
ENCODING 200
SWIDTH 511 0
DWIDTH 6 0
BBX 7 12 0 0
BITMAP
0180
0080
0000
0BF4
0C00
1800
1800
2FD0
2400
3000
6000
7F80
ENDCHAR
STARTCHAR Eacute
ENCODING 201
SWIDTH 511 0
DWIDTH 6 0
BBX 7 12 0 0
BITMAP
0030
0080
0000
0BF4
0C00
1800
1800
2FD0
2400
3000
6000
7F80
ENDCHAR
STARTCHAR Ecircumflex
ENCODING 202
SWIDTH 511 0
DWIDTH 6 0
BBX 7 12 0 0
BITMAP
00E0
0220
0000
0BF4
0C00
1800
1800
2FD0
2400
3000
6000
7F80
ENDCHAR
STARTCHAR Edieresis
ENCODING 203
SWIDTH 511 0
DWIDTH 6 0
BBX 7 11 0 0
BITMAP
0220
0000
0BF4
0C00
1800
1800
2FD0
2400
3000
6000
7F80
ENDCHAR
STARTCHAR Igrave
ENCODING 204
SWIDTH 272 0
DWIDTH 3 0
BBX 4 12 0 0
BITMAP
18
09
00
09
0C
18
18
24
24
30
60
60
ENDCHAR
STARTCHAR Iacute
ENCODING 205
SWIDTH 272 0
DWIDTH 3 0
BBX 5 12 0 0
BITMAP
0280
0600
0000
0900
0C00
1800
1800
2400
2400
3000
6000
6000
ENDCHAR
STARTCHAR Icircumflex
ENCODING 206
SWIDTH 272 0
DWIDTH 3 0
BBX 5 12 0 0
BITMAP
0B00
1580
0000
0900
0C00
1800
1800
2400
2400
3000
6000
6000
ENDCHAR
STARTCHAR Idieresis
ENCODING 207
SWIDTH 272 0
DWIDTH 3 0
BBX 5 11 0 0
BITMAP
1580
0000
0900
0C00
1800
1800
2400
2400
3000
6000
6000
ENDCHAR
STARTCHAR Eth
ENCODING 208
SWIDTH 666 0
DWIDTH 8 0
BBX 8 9 0 0
BITMAP
0BE4
0C1C
1809
1806
7F4A
2409
301C
6074
7F90
ENDCHAR
STARTCHAR Ntilde
ENCODING 209
SWIDTH 702 0
DWIDTH 8 0
BBX 9 12 0 0
BITMAP
00A200
015D00
000000
0A0240
0F0240
1A4300
198600
24C600
209900
306900
603C00
602800
ENDCHAR
STARTCHAR Ograve
ENCODING 210
SWIDTH 720 0
DWIDTH 9 0
BBX 8 12 1 0
BITMAP
0240
0080
0000
0BE0
2828
600C
9009
C00D
C00C
C028
A070
2F80
ENDCHAR
STARTCHAR Oacute
ENCODING 211
SWIDTH 720 0
DWIDTH 9 0
BBX 8 12 1 0
BITMAP
0070
0080
0000
0BE0
2828
600C
9009
C00D
C00C
C028
A070
2F80
ENDCHAR
STARTCHAR Ocircumflex
ENCODING 212
SWIDTH 720 0
DWIDTH 9 0
BBX 8 12 1 0
BITMAP
01D0
0220
0000
0BE0
2828
600C
9009
C00D
C00C
C028
A070
2F80
ENDCHAR
STARTCHAR Otilde
ENCODING 213
SWIDTH 720 0
DWIDTH 9 0
BBX 8 12 1 0
BITMAP
0344
08A0
0000
0BE0
2828
600C
9009
C00D
C00C
C028
A070
2F80
ENDCHAR
STARTCHAR Odieresis
ENCODING 214
SWIDTH 720 0
DWIDTH 9 0
BBX 8 11 1 0
BITMAP
0220
0000
0BE0
2828
600C
9009
C00D
C00C
C028
A070
2F80
ENDCHAR
STARTCHAR multiply
ENCODING 215
SWIDTH 550 0
DWIDTH 7 0
BBX 5 5 1 2
BITMAP
8180
6600
1D00
6600
8180
ENDCHAR
STARTCHAR Oslash
ENCODING 216
SWIDTH 720 0
DWIDTH 9 0
BBX 8 9 1 0
BITMAP
0BE9
282C
606C
91C9
C24D
C90C
E828
B070
EF80
ENDCHAR
STARTCHAR Ugrave
ENCODING 217
SWIDTH 675 0
DWIDTH 8 0
BBX 7 12 1 0
BITMAP
0300
0180
0000
300C
300C
6018
9018
9024
C030
C070
D090
6F40
ENDCHAR
STARTCHAR Uacute
ENCODING 218
SWIDTH 675 0
DWIDTH 8 0
BBX 7 12 1 0
BITMAP
0070
0080
0000
300C
300C
6018
9018
9024
C030
C070
D090
6F40
ENDCHAR
STARTCHAR Ucircumflex
ENCODING 219
SWIDTH 675 0
DWIDTH 8 0
BBX 7 12 1 0
BITMAP
01D0
0620
0000
300C
300C
6018
9018
9024
C030
C070
D090
6F40
ENDCHAR
STARTCHAR Udieresis
ENCODING 220
SWIDTH 675 0
DWIDTH 8 0
BBX 7 11 1 0
BITMAP
0220
0000
300C
300C
6018
9018
9024
C030
C070
D090
6F40
ENDCHAR
STARTCHAR Yacute
ENCODING 221
SWIDTH 502 0
DWIDTH 6 0
BBX 6 12 1 0
BITMAP
0180
0200
0000
9060
90D0
6280
3600
2D00
2800
2400
3000
3000
ENDCHAR
STARTCHAR Thorn
ENCODING 222
SWIDTH 565 0
DWIDTH 7 0
BBX 7 9 0 0
BITMAP
0900
0C00
1FE0
1824
2424
2470
3E80
6000
6000
ENDCHAR
STARTCHAR germandbls
ENCODING 223
SWIDTH 577 0
DWIDTH 7 0
BBX 9 12 -2 -3
BITMAP
006E00
00D240
018200
019800
026400
030D00
030300
060300
09AD00
090000
0C0000
740000
ENDCHAR
STARTCHAR agrave
ENCODING 224
SWIDTH 564 0
DWIDTH 7 0
BBX 7 9 0 0
BITMAP
0300
0180
0000
0B94
2834
3030
6060
60E0
2A90
ENDCHAR
STARTCHAR aacute
ENCODING 225
SWIDTH 564 0
DWIDTH 7 0
BBX 7 9 0 0
BITMAP
0060
0180
0000
0B94
2834
3030
6060
60E0
2A90
ENDCHAR
STARTCHAR acircumflex
ENCODING 226
SWIDTH 564 0
DWIDTH 7 0
BBX 7 9 0 0
BITMAP
01C0
0660
0000
0B94
2834
3030
6060
60E0
2A90
ENDCHAR
STARTCHAR atilde
ENCODING 227
SWIDTH 564 0
DWIDTH 7 0
BBX 7 9 0 0
BITMAP
0754
08A0
0000
0B94
2834
3030
6060
60E0
2A90
ENDCHAR
STARTCHAR adieresis
ENCODING 228
SWIDTH 564 0
DWIDTH 7 0
BBX 7 8 0 0
BITMAP
0620
0000
0B94
2834
3030
6060
60E0
2A90
ENDCHAR
STARTCHAR aring
ENCODING 229
SWIDTH 564 0
DWIDTH 7 0
BBX 7 10 0 0
BITMAP
0290
0220
0290
0000
0B94
2834
3030
6060
60E0
2A90
ENDCHAR
STARTCHAR ae
ENCODING 230
SWIDTH 814 0
DWIDTH 10 0
BBX 10 6 0 0
BITMAP
0BAAC0
287890
307190
60BA40
61E000
29AA80
ENDCHAR
STARTCHAR ccedilla
ENCODING 231
SWIDTH 450 0
DWIDTH 5 0
BBX 6 9 0 -3
BITMAP
0BD0
2400
7000
6000
6000
2E40
0800
0900
1800
ENDCHAR
STARTCHAR egrave
ENCODING 232
SWIDTH 493 0
DWIDTH 6 0
BBX 6 9 0 0
BITMAP
0300
0140
0000
0BD0
28A0
7190
7A40
6000
2E80
ENDCHAR
STARTCHAR eacute
ENCODING 233
SWIDTH 493 0
DWIDTH 6 0
BBX 6 9 0 0
BITMAP
00A0
0180
0000
0BD0
28A0
7190
7A40
6000
2E80
ENDCHAR
STARTCHAR ecircumflex
ENCODING 234
SWIDTH 493 0
DWIDTH 6 0
BBX 6 9 0 0
BITMAP
02C0
0950
0000
0BD0
28A0
7190
7A40
6000
2E80
ENDCHAR
STARTCHAR edieresis
ENCODING 235
SWIDTH 493 0
DWIDTH 6 0
BBX 6 8 0 0
BITMAP
0550
0000
0BD0
28A0
7190
7A40
6000
2E80
ENDCHAR
STARTCHAR igrave
ENCODING 236
SWIDTH 253 0
DWIDTH 3 0
BBX 3 9 0 0
BITMAP
24
18
00
18
24
30
30
60
90
ENDCHAR
STARTCHAR iacute
ENCODING 237
SWIDTH 253 0
DWIDTH 3 0
BBX 4 9 0 0
BITMAP
03
09
00
18
24
30
30
60
90
ENDCHAR
STARTCHAR icircumflex
ENCODING 238
SWIDTH 253 0
DWIDTH 3 0
BBX 4 9 0 0
BITMAP
1D
62
00
18
24
30
30
60
90
ENDCHAR
STARTCHAR idieresis
ENCODING 239
SWIDTH 253 0
DWIDTH 3 0
BBX 4 8 0 0
BITMAP
22
00
18
24
30
30
60
90
ENDCHAR
STARTCHAR eth
ENCODING 240
SWIDTH 568 0
DWIDTH 7 0
BBX 7 9 0 0
BITMAP
0254
01E0
0660
0030
1AA4
3430
6030
6090
2E40
ENDCHAR
STARTCHAR ntilde
ENCODING 241
SWIDTH 577 0
DWIDTH 7 0
BBX 7 9 0 0
BITMAP
0754
08A0
0000
1AE0
2C24
3430
3030
6060
9090
ENDCHAR
STARTCHAR ograve
ENCODING 242
SWIDTH 561 0
DWIDTH 7 0
BBX 6 9 0 0
BITMAP
0300
0140
0000
0B90
2430
6030
6030
60A0
2E80
ENDCHAR
STARTCHAR oacute
ENCODING 243
SWIDTH 561 0
DWIDTH 7 0
BBX 6 9 0 0
BITMAP
00A0
0180
0000
0B90
2430
6030
6030
60A0
2E80
ENDCHAR
STARTCHAR ocircumflex
ENCODING 244
SWIDTH 561 0
DWIDTH 7 0
BBX 6 9 0 0
BITMAP
01C0
0660
0000
0B90
2430
6030
6030
60A0
2E80
ENDCHAR
STARTCHAR otilde
ENCODING 245
SWIDTH 561 0
DWIDTH 7 0
BBX 7 9 0 0
BITMAP
0754
08A0
0000
0B90
2430
6030
6030
60A0
2E80
ENDCHAR
STARTCHAR odieresis
ENCODING 246
SWIDTH 561 0
DWIDTH 7 0
BBX 6 8 0 0
BITMAP
0560
0000
0B90
2430
6030
6030
60A0
2E80
ENDCHAR
STARTCHAR divide
ENCODING 247
SWIDTH 550 0
DWIDTH 7 0
BBX 6 6 0 1
BITMAP
0300
0100
0000
6AA0
0100
0300
ENDCHAR
STARTCHAR oslash
ENCODING 248
SWIDTH 561 0
DWIDTH 7 0
BBX 6 6 0 0
BITMAP
0AE0
24B0
6270
6930
7890
6E80
ENDCHAR
STARTCHAR ugrave
ENCODING 249
SWIDTH 577 0
DWIDTH 7 0
BBX 7 9 0 0
BITMAP
0300
0140
0000
1824
2424
3030
2060
60E0
2A90
ENDCHAR
STARTCHAR uacute
ENCODING 250
SWIDTH 577 0
DWIDTH 7 0
BBX 7 9 0 0
BITMAP
0060
0080
0000
1824
2424
3030
2060
60E0
2A90
ENDCHAR
STARTCHAR ucircumflex
ENCODING 251
SWIDTH 577 0
DWIDTH 7 0
BBX 7 9 0 0
BITMAP
01D0
0620
0000
1824
2424
3030
2060
60E0
2A90
ENDCHAR
STARTCHAR udieresis
ENCODING 252
SWIDTH 577 0
DWIDTH 7 0
BBX 7 8 0 0
BITMAP
0620
0000
1824
2424
3030
2060
60E0
2A90
ENDCHAR
STARTCHAR yacute
ENCODING 253
SWIDTH 461 0
DWIDTH 6 0
BBX 7 12 -1 -3
BITMAP
0030
0090
0000
1818
1824
0C60
0CC0
0980
0B00
0900
1800
A000
ENDCHAR
STARTCHAR thorn
ENCODING 254
SWIDTH 577 0
DWIDTH 7 0
BBX 7 12 0 -3
BITMAP
0800
0C00
1800
1AE0
2C24
3424
3030
70A0
AB80
9000
C000
8000
ENDCHAR
STARTCHAR ydieresis
ENCODING 255
SWIDTH 461 0
DWIDTH 6 0
BBX 7 11 -1 -3
BITMAP
0220
0000
1818
1824
0C60
0CC0
0980
0B00
0900
1800
A000
ENDCHAR
STARTCHAR Amacron
ENCODING 256
SWIDTH 555 0
DWIDTH 7 0
BBX 8 11 -1 0
BITMAP
00A9
0000
0070
00A4
01A4
0224
0618
0FF8
1818
300C
600C
ENDCHAR
STARTCHAR amacron
ENCODING 257
SWIDTH 564 0
DWIDTH 7 0
BBX 7 8 0 0
BITMAP
06A0
0000
0B94
2834
3030
6060
60E0
2A90
ENDCHAR
STARTCHAR Abreve
ENCODING 258
SWIDTH 555 0
DWIDTH 7 0
BBX 8 12 -1 0
BITMAP
0085
0078
0000
0070
00A4
01A4
0224
0618
0FF8
1818
300C
600C
ENDCHAR
STARTCHAR abreve
ENCODING 259
SWIDTH 564 0
DWIDTH 7 0
BBX 7 9 0 0
BITMAP
0620
02D0
0000
0B94
2834
3030
6060
60E0
2A90
ENDCHAR
STARTCHAR Aogonek
ENCODING 260
SWIDTH 555 0
DWIDTH 7 0
BBX 7 12 -1 -3
BITMAP
0070
00A4
01A4
0224
0618
0FF8
1818
300C
600C
0014
0020
0024
ENDCHAR
STARTCHAR aogonek
ENCODING 261
SWIDTH 564 0
DWIDTH 7 0
BBX 7 9 0 -3
BITMAP
0B94
2834
3030
6060
60E0
2A90
0180
0200
0280
ENDCHAR
STARTCHAR Cacute
ENCODING 262
SWIDTH 584 0
DWIDTH 7 0
BBX 7 12 1 0
BITMAP
0030
0090
0000
07F4
2800
6000
9000
C000
C000
C000
A000
2F80
ENDCHAR
STARTCHAR cacute
ENCODING 263
SWIDTH 450 0
DWIDTH 5 0
BBX 6 9 0 0
BITMAP
0060
0180
0000
0BD0
2400
7000
6000
6000
2E40
ENDCHAR
STARTCHAR Ccircumflex
ENCODING 264
SWIDTH 584 0
DWIDTH 7 0
BBX 7 12 1 0
BITMAP
01D0
0220
0000
07F4
2800
6000
9000
C000
C000
C000
A000
2F80
ENDCHAR
STARTCHAR ccircumflex
ENCODING 265
SWIDTH 450 0
DWIDTH 5 0
BBX 6 9 0 0
BITMAP
02C0
0950
0000
0BD0
2400
7000
6000
6000
2E40
ENDCHAR
STARTCHAR Cdot
ENCODING 266
SWIDTH 584 0
DWIDTH 7 0
BBX 7 11 1 0
BITMAP
0080
0000
07F4
2800
6000
9000
C000
C000
C000
A000
2F80
ENDCHAR
STARTCHAR cdot
ENCODING 267
SWIDTH 450 0
DWIDTH 5 0
BBX 6 8 0 0
BITMAP
0180
0000
0BD0
2400
7000
6000
6000
2E40
ENDCHAR
STARTCHAR Ccaron
ENCODING 268
SWIDTH 584 0
DWIDTH 7 0
BBX 7 12 1 0
BITMAP
0220
02C0
0000
07F4
2800
6000
9000
C000
C000
C000
A000
2F80
ENDCHAR
STARTCHAR ccaron
ENCODING 269
SWIDTH 450 0
DWIDTH 5 0
BBX 6 9 0 0
BITMAP
0560
0380
0000
0BD0
2400
7000
6000
6000
2E40
ENDCHAR
STARTCHAR Dcaron
ENCODING 270
SWIDTH 666 0
DWIDTH 8 0
BBX 8 12 0 0
BITMAP
0158
00E0
0000
0BE4
0C1C
1809
1806
240A
2409
301C
6074
7F90
ENDCHAR
STARTCHAR dcaron
ENCODING 271
SWIDTH 577 0
DWIDTH 7 0
BBX 9 9 0 0
BITMAP
000CC0
000A40
001800
0AA400
243400
703000
606000
60E000
2A9000
ENDCHAR
STARTCHAR Dcroat
ENCODING 272
SWIDTH 666 0
DWIDTH 8 0
BBX 8 9 0 0
BITMAP
0BE4
0C1C
1809
1806
7F4A
2409
301C
6074
7F90
ENDCHAR
STARTCHAR dcroat
ENCODING 273
SWIDTH 577 0
DWIDTH 7 0
BBX 8 9 0 0
BITMAP
000C
01AE
0018
0AA4
2430
7030
6060
61E0
2A90
ENDCHAR
STARTCHAR Emacron
ENCODING 274
SWIDTH 511 0
DWIDTH 6 0
BBX 7 11 0 0
BITMAP
02A0
0000
0BF4
0C00
1800
1800
2FD0
2400
3000
6000
7F80
ENDCHAR
STARTCHAR emacron
ENCODING 275
SWIDTH 493 0
DWIDTH 6 0
BBX 6 8 0 0
BITMAP
06A0
0000
0BD0
28A0
7190
7A40
6000
2E80
ENDCHAR
STARTCHAR Ebreve
ENCODING 276
SWIDTH 511 0
DWIDTH 6 0
BBX 7 12 0 0
BITMAP
0214
01E0
0000
0BF4
0C00
1800
1800
2FD0
2400
3000
6000
7F80
ENDCHAR
STARTCHAR ebreve
ENCODING 277
SWIDTH 493 0
DWIDTH 6 0
BBX 6 9 0 0
BITMAP
0520
0290
0000
0BD0
28A0
7190
7A40
6000
2E80
ENDCHAR
STARTCHAR Edotaccent
ENCODING 278
SWIDTH 511 0
DWIDTH 6 0
BBX 7 11 0 0
BITMAP
0080
0000
0BF4
0C00
1800
1800
2FD0
2400
3000
6000
7F80
ENDCHAR
STARTCHAR edotaccent
ENCODING 279
SWIDTH 493 0
DWIDTH 6 0
BBX 6 8 0 0
BITMAP
0140
0000
0BD0
28A0
7190
7A40
6000
2E80
ENDCHAR
STARTCHAR Eogonek
ENCODING 280
SWIDTH 511 0
DWIDTH 6 0
BBX 7 12 0 -3
BITMAP
0BF4
0C00
1800
1800
2FD0
2400
3000
6000
7F80
0200
0600
0640
ENDCHAR
STARTCHAR eogonek
ENCODING 281
SWIDTH 493 0
DWIDTH 6 0
BBX 6 9 0 -3
BITMAP
0BD0
28A0
7190
7A40
6000
2E80
0200
0900
0600
ENDCHAR
STARTCHAR Ecaron
ENCODING 282
SWIDTH 511 0
DWIDTH 6 0
BBX 7 12 0 0
BITMAP
0224
01D0
0000
0BF4
0C00
1800
1800
2FD0
2400
3000
6000
7F80
ENDCHAR
STARTCHAR ecaron
ENCODING 283
SWIDTH 493 0
DWIDTH 6 0
BBX 6 9 0 0
BITMAP
0560
0280
0000
0BD0
28A0
7190
7A40
6000
2E80
ENDCHAR
STARTCHAR Gcircumflex
ENCODING 284
SWIDTH 676 0
DWIDTH 8 0
BBX 7 12 1 0
BITMAP
01D0
0620
0000
07F8
2804
6000
9000
C1F4
C024
C030
A060
2F90
ENDCHAR
STARTCHAR gcircumflex
ENCODING 285
SWIDTH 500 0
DWIDTH 6 0
BBX 8 12 -1 -3
BITMAP
00A0
0254
0000
06B9
0C24
0C30
0A90
1800
1E90
6070
9060
6A80
ENDCHAR
STARTCHAR Gbreve
ENCODING 286
SWIDTH 676 0
DWIDTH 8 0
BBX 7 12 1 0
BITMAP
0220
02D0
0000
07F8
2804
6000
9000
C1F4
C024
C030
A060
2F90
ENDCHAR
STARTCHAR gbreve
ENCODING 287
SWIDTH 500 0
DWIDTH 6 0
BBX 8 12 -1 -3
BITMAP
0208
01E0
0000
06B9
0C24
0C30
0A90
1800
1E90
6070
9060
6A80
ENDCHAR
STARTCHAR Gdot
ENCODING 288
SWIDTH 676 0
DWIDTH 8 0
BBX 7 11 1 0
BITMAP
0080
0000
07F8
2804
6000
9000
C1F4
C024
C030
A060
2F90
ENDCHAR
STARTCHAR gdot
ENCODING 289
SWIDTH 500 0
DWIDTH 6 0
BBX 8 11 -1 -3
BITMAP
0060
0000
06B9
0C24
0C30
0A90
1800
1E90
6070
9060
6A80
ENDCHAR
STARTCHAR Gcommaaccent
ENCODING 290
SWIDTH 676 0
DWIDTH 8 0
BBX 7 12 1 -3
BITMAP
07F8
2804
6000
9000
C1F4
C024
C030
A060
2F90
0000
0900
0800
ENDCHAR
STARTCHAR gcommaaccent
ENCODING 291
SWIDTH 500 0
DWIDTH 6 0
BBX 8 12 -1 -3
BITMAP
0024
0060
0000
06B9
0C24
0C30
0A90
1800
1E90
6070
9060
6A80
ENDCHAR
STARTCHAR Hcircumflex
ENCODING 292
SWIDTH 678 0
DWIDTH 8 0
BBX 8 12 0 0
BITMAP
0074
0188
0000
0903
0C03
1C06
1805
2FFD
240C
300C
6018
6024
ENDCHAR
STARTCHAR hcircumflex
ENCODING 293
SWIDTH 577 0
DWIDTH 7 0
BBX 7 9 0 0
BITMAP
09E0
0E20
1800
1AE0
2824
3430
3030
6060
9090
ENDCHAR
STARTCHAR Hbar
ENCODING 294
SWIDTH 678 0
DWIDTH 8 0
BBX 9 9 0 0
BITMAP
090300
0C0300
3FFF80
180600
2FFD00
240C00
300C00
601800
602400
ENDCHAR
STARTCHAR hbar
ENCODING 295
SWIDTH 577 0
DWIDTH 7 0
BBX 7 9 0 0
BITMAP
0C00
2E80
1800
1AE0
2834
3430
3020
6060
9090
ENDCHAR
STARTCHAR Itilde
ENCODING 296
SWIDTH 272 0
DWIDTH 3 0
BBX 5 12 0 0
BITMAP
2880
2280
0000
0900
0C00
1800
1800
2400
2400
3000
6000
6000
ENDCHAR
STARTCHAR itilde
ENCODING 297
SWIDTH 253 0
DWIDTH 3 0
BBX 5 9 0 0
BITMAP
2880
8700
0000
1800
2400
3000
3000
6000
9000
ENDCHAR
STARTCHAR Imacron
ENCODING 298
SWIDTH 272 0
DWIDTH 3 0
BBX 5 11 0 0
BITMAP
2A40
0000
0900
0C00
1800
1800
2400
2400
3000
6000
6000
ENDCHAR
STARTCHAR imacron
ENCODING 299
SWIDTH 253 0
DWIDTH 3 0
BBX 4 8 0 0
BITMAP
2A
00
18
24
30
30
60
90
ENDCHAR
STARTCHAR Ibreve
ENCODING 300
SWIDTH 272 0
DWIDTH 3 0
BBX 5 12 0 0
BITMAP
1480
0E40
0000
0900
0C00
1800
1800
2400
2400
3000
6000
6000
ENDCHAR
STARTCHAR ibreve
ENCODING 301
SWIDTH 253 0
DWIDTH 3 0
BBX 4 9 0 0
BITMAP
22
2E
00
18
24
30
30
60
90
ENDCHAR
STARTCHAR Iogonek
ENCODING 302
SWIDTH 272 0
DWIDTH 3 0
BBX 5 12 -1 -3
BITMAP
0240
0300
0600
0600
0900
0900
0C00
1800
1800
2000
5000
6000
ENDCHAR
STARTCHAR iogonek
ENCODING 303
SWIDTH 253 0
DWIDTH 3 0
BBX 4 11 -1 -3
BITMAP
02
01
06
09
0C
0C
18
24
20
90
60
ENDCHAR
STARTCHAR Idotaccent
ENCODING 304
SWIDTH 272 0
DWIDTH 3 0
BBX 4 11 0 0
BITMAP
05
00
09
0C
18
18
24
24
30
60
60
ENDCHAR
STARTCHAR dotlessi
ENCODING 305
SWIDTH 253 0
DWIDTH 3 0
BBX 3 6 0 0
BITMAP
18
24
30
30
60
90
ENDCHAR
STARTCHAR IJ
ENCODING 306
SWIDTH 540 0
DWIDTH 6 0
BBX 7 11 0 -2
BITMAP
0924
0C24
1830
1830
2460
2490
3090
60C0
6180
0280
2E00
ENDCHAR
STARTCHAR ij
ENCODING 307
SWIDTH 507 0
DWIDTH 6 0
BBX 6 11 0 -3
BITMAP
0820
0410
1860
2490
3090
30C0
6180
9180
0240
0300
1D00
ENDCHAR
STARTCHAR Jcircumflex
ENCODING 308
SWIDTH 267 0
DWIDTH 3 0
BBX 7 14 -2 -2
BITMAP
00B0
0254
0000
0090
00C0
0180
0180
0240
0340
0300
0600
0600
0D00
B400
ENDCHAR
STARTCHAR jcircumflex
ENCODING 309
SWIDTH 253 0
DWIDTH 3 0
BBX 6 12 -2 -3
BITMAP
01D0
0620
0000
0180
0240
0300
0300
0600
0500
0900
0C00
7400
ENDCHAR
STARTCHAR Kcommaaccent
ENCODING 310
SWIDTH 557 0
DWIDTH 7 0
BBX 8 12 0 -3
BITMAP
0909
0C24
1890
1A40
2F40
2580
30C0
6090
6070
0000
0900
0800
ENDCHAR
STARTCHAR kcommaaccent
ENCODING 311
SWIDTH 487 0
DWIDTH 6 0
BBX 6 12 0 -3
BITMAP
0C00
0C00
1800
18A0
2680
3A00
3700
6240
91C0
0000
0C00
1400
ENDCHAR
STARTCHAR kgreenlandic
ENCODING 312
SWIDTH 487 0
DWIDTH 6 0
BBX 6 6 0 0
BITMAP
18A0
2680
3A00
3700
6240
91C0
ENDCHAR
STARTCHAR Lacute
ENCODING 313
SWIDTH 474 0
DWIDTH 6 0
BBX 5 12 0 0
BITMAP
0180
0600
0000
0900
0C00
1800
1800
2400
2400
3000
6000
7F80
ENDCHAR
STARTCHAR lacute
ENCODING 314
SWIDTH 253 0
DWIDTH 3 0
BBX 5 9 0 0
BITMAP
0A80
0E00
1800
1800
2400
3000
3000
6000
9000
ENDCHAR
STARTCHAR Lcommaaccent
ENCODING 315
SWIDTH 474 0
DWIDTH 6 0
BBX 5 12 0 -3
BITMAP
0900
0C00
1800
1800
2400
2400
3000
6000
7F80
0000
0900
0800
ENDCHAR
STARTCHAR lcommaaccent
ENCODING 316
SWIDTH 253 0
DWIDTH 3 0
BBX 4 12 -1 -3
BITMAP
02
03
06
06
09
0C
0C
18
24
00
30
50
ENDCHAR
STARTCHAR Lcaron
ENCODING 317
SWIDTH 474 0
DWIDTH 6 0
BBX 6 9 0 0
BITMAP
0900
0C30
1850
1800
2400
2400
3000
6000
7F80
ENDCHAR
STARTCHAR lcaron
ENCODING 318
SWIDTH 253 0
DWIDTH 3 0
BBX 5 9 0 0
BITMAP
09C0
0D40
1800
1800
2400
3000
3000
6000
9000
ENDCHAR
STARTCHAR Ldot
ENCODING 319
SWIDTH 474 0
DWIDTH 6 0
BBX 5 9 0 0
BITMAP
0900
0C00
1800
1800
2480
2400
3000
6000
7F80
ENDCHAR
STARTCHAR ldot
ENCODING 320
SWIDTH 283 0
DWIDTH 3 0
BBX 4 9 0 0
BITMAP
08
0C
18
18
26
30
30
60
90
ENDCHAR
STARTCHAR Lslash
ENCODING 321
SWIDTH 474 0
DWIDTH 6 0
BBX 5 9 0 0
BITMAP
0900
0C00
1800
1A00
2800
B000
3000
6000
7F80
ENDCHAR
STARTCHAR lslash
ENCODING 322
SWIDTH 250 0
DWIDTH 3 0
BBX 4 9 0 0
BITMAP
0C
0C
18
18
29
B0
30
60
90
ENDCHAR
STARTCHAR Nacute
ENCODING 323
SWIDTH 702 0
DWIDTH 8 0
BBX 9 12 0 0
BITMAP
000C00
002000
000000
0A0240
0F0240
1A4300
198600
24C600
209900
306900
603C00
602800
ENDCHAR
STARTCHAR nacute
ENCODING 324
SWIDTH 577 0
DWIDTH 7 0
BBX 7 9 0 0
BITMAP
0070
0080
0000
1AE0
2C24
3430
3030
6060
9090
ENDCHAR
STARTCHAR Ncommaaccent
ENCODING 325
SWIDTH 702 0
DWIDTH 8 0
BBX 9 12 0 -3
BITMAP
0A0240
0F0240
1A4300
198600
24C600
209900
306900
603C00
602800
000000
020000
090000
ENDCHAR
STARTCHAR ncommaaccent
ENCODING 326
SWIDTH 577 0
DWIDTH 7 0
BBX 7 9 0 -3
BITMAP
1AE0
2C24
3430
3030
6060
9090
0000
0C00
1400
ENDCHAR
STARTCHAR Ncaron
ENCODING 327
SWIDTH 702 0
DWIDTH 8 0
BBX 9 12 0 0
BITMAP
008800
007400
000000
0A0240
0F0240
1A4300
198600
24C600
209900
306900
603C00
602800
ENDCHAR
STARTCHAR ncaron
ENCODING 328
SWIDTH 577 0
DWIDTH 7 0
BBX 7 9 0 0
BITMAP
0220
02C0
0000
1AE0
2C24
3430
3030
6060
9090
ENDCHAR
STARTCHAR napostrophe
ENCODING 329
SWIDTH 645 0
DWIDTH 8 0
BBX 7 9 0 0
BITMAP
1800
2400
6000
09B8
0A0C
0C0C
1818
2424
2424
ENDCHAR
STARTCHAR Eng
ENCODING 330
SWIDTH 702 0
DWIDTH 8 0
BBX 9 11 0 -2
BITMAP
0A0240
0F0240
1A4300
198600
24C600
209900
306800
602C00
601800
002400
02E000
ENDCHAR
STARTCHAR eng
ENCODING 331
SWIDTH 577 0
DWIDTH 7 0
BBX 7 9 0 -3
BITMAP
1AE0
2C24
3430
3030
6060
9090
0090
00C0
0740
ENDCHAR
STARTCHAR Omacron
ENCODING 332
SWIDTH 720 0
DWIDTH 9 0
BBX 8 11 1 0
BITMAP
02A0
0000
0BE0
2828
600C
9009
C00D
C00C
C028
A070
2F80
ENDCHAR
STARTCHAR omacron
ENCODING 333
SWIDTH 561 0
DWIDTH 7 0
BBX 6 8 0 0
BITMAP
06A0
0000
0B90
2430
6030
6030
60A0
2E80
ENDCHAR
STARTCHAR Obreve
ENCODING 334
SWIDTH 720 0
DWIDTH 9 0
BBX 8 12 1 0
BITMAP
0520
02D0
0000
0BE0
2828
600C
9009
C00D
C00C
C028
A070
2F80
ENDCHAR
STARTCHAR obreve
ENCODING 335
SWIDTH 561 0
DWIDTH 7 0
BBX 6 9 0 0
BITMAP
0520
0290
0000
0B90
2430
6030
6030
60A0
2E80
ENDCHAR
STARTCHAR Ohungarumlaut
ENCODING 336
SWIDTH 720 0
DWIDTH 9 0
BBX 8 12 1 0
BITMAP
0098
0264
0000
0BE0
2828
600C
9009
C00D
C00C
C028
A070
2F80
ENDCHAR
STARTCHAR ohungarumlaut
ENCODING 337
SWIDTH 561 0
DWIDTH 7 0
BBX 7 9 0 0
BITMAP
02A8
0660
0000
0B90
2430
6030
6030
60A0
2E80
ENDCHAR
STARTCHAR OE
ENCODING 338
SWIDTH 854 0
DWIDTH 10 0
BBX 10 9 1 0
BITMAP
0BFFE0
283000
603000
906000
C07F80
C09000
C0C000
A0C000
2FFF00
ENDCHAR
STARTCHAR oe
ENCODING 339
SWIDTH 863 0
DWIDTH 10 0
BBX 10 6 0 0
BITMAP
0BD7E0
243C30
6034A0
603A40
60B000
2F5E80
ENDCHAR
STARTCHAR Racute
ENCODING 340
SWIDTH 568 0
DWIDTH 7 0
BBX 7 12 0 0
BITMAP
0034
0090
0000
0BE0
0C18
1818
1864
2FD0
20C0
3090
6060
6070
ENDCHAR
STARTCHAR racute
ENCODING 341
SWIDTH 395 0
DWIDTH 5 0
BBX 5 9 0 0
BITMAP
00C0
0240
0000
1AC0
2C00
3400
3000
6000
9000
ENDCHAR
STARTCHAR Rcommaaccent
ENCODING 342
SWIDTH 568 0
DWIDTH 7 0
BBX 7 12 0 -3
BITMAP
0BE0
0C18
1818
1864
2FD0
20C0
3090
6060
6070
0000
0900
0800
ENDCHAR
STARTCHAR rcommaaccent
ENCODING 343
SWIDTH 395 0
DWIDTH 5 0
BBX 6 9 -1 -3
BITMAP
06B0
0B00
0D00
0C00
1800
2400
0000
3000
5000
ENDCHAR
STARTCHAR Rcaron
ENCODING 344
SWIDTH 568 0
DWIDTH 7 0
BBX 7 12 0 0
BITMAP
0224
01D0
0000
0BE0
0C18
1818
1864
2FD0
20C0
3090
6060
6070
ENDCHAR
STARTCHAR rcaron
ENCODING 345
SWIDTH 395 0
DWIDTH 5 0
BBX 6 9 0 0
BITMAP
0890
0740
0000
1AC0
2C00
3400
3000
6000
9000
ENDCHAR
STARTCHAR Sacute
ENCODING 346
SWIDTH 501 0
DWIDTH 6 0
BBX 6 12 0 0
BITMAP
0060
0080
0000
0BE0
1810
2400
1800
0B40
01C0
0090
41C0
BE40
ENDCHAR
STARTCHAR sacute
ENCODING 347
SWIDTH 428 0
DWIDTH 5 0
BBX 5 9 0 0
BITMAP
00C0
0200
0000
2F80
3000
2800
0700
0240
AE00
ENDCHAR
STARTCHAR Scircumflex
ENCODING 348
SWIDTH 501 0
DWIDTH 6 0
BBX 6 12 0 0
BITMAP
01D0
0620
0000
0BE0
1810
2400
1800
0B40
01C0
0090
41C0
BE40
ENDCHAR
STARTCHAR scircumflex
ENCODING 349
SWIDTH 428 0
DWIDTH 5 0
BBX 5 9 0 0
BITMAP
0740
1880
0000
2F80
3000
2800
0700
0240
AE00
ENDCHAR
STARTCHAR Scedilla
ENCODING 350
SWIDTH 501 0
DWIDTH 6 0
BBX 6 12 0 -3
BITMAP
0BE0
1810
2400
1800
0B40
01C0
0090
41C0
BE40
0800
0800
2800
ENDCHAR
STARTCHAR scedilla
ENCODING 351
SWIDTH 428 0
DWIDTH 5 0
BBX 5 9 0 -3
BITMAP
2F80
3000
2800
0700
0240
AE00
2000
1800
6400
ENDCHAR
STARTCHAR Scaron
ENCODING 352
SWIDTH 501 0
DWIDTH 6 0
BBX 6 12 0 0
BITMAP
0560
0280
0000
0BE0
1810
2400
1800
0B40
01C0
0090
41C0
BE40
ENDCHAR
STARTCHAR scaron
ENCODING 353
SWIDTH 428 0
DWIDTH 5 0
BBX 5 9 0 0
BITMAP
0880
0B00
0000
2F80
3000
2800
0700
0240
AE00
ENDCHAR
STARTCHAR Tcedilla
ENCODING 354
SWIDTH 498 0
DWIDTH 6 0
BBX 6 12 1 -3
BITMAP
BFF0
0900
0C00
0C00
1800
1800
2400
3000
3000
6000
3000
A000
ENDCHAR
STARTCHAR tcedilla
ENCODING 355
SWIDTH 324 0
DWIDTH 4 0
BBX 4 10 0 -3
BITMAP
08
7E
24
30
30
60
38
20
24
64
ENDCHAR
STARTCHAR Tcaron
ENCODING 356
SWIDTH 498 0
DWIDTH 6 0
BBX 6 12 1 0
BITMAP
0880
0700
0000
BFF0
0900
0C00
0C00
1800
1800
2400
3000
3000
ENDCHAR
STARTCHAR tcaron
ENCODING 357
SWIDTH 324 0
DWIDTH 4 0
BBX 6 9 0 0
BITMAP
0090
0080
0800
7E00
2400
3000
3000
6000
3800
ENDCHAR
STARTCHAR Tbar
ENCODING 358
SWIDTH 498 0
DWIDTH 6 0
BBX 6 9 1 0
BITMAP
BFF0
0900
0C00
0C00
BE40
1800
2400
3000
3000
ENDCHAR
STARTCHAR tbar
ENCODING 359
SWIDTH 324 0
DWIDTH 4 0
BBX 4 7 0 0
BITMAP
08
7E
24
B9
30
60
38
ENDCHAR
STARTCHAR Utilde
ENCODING 360
SWIDTH 675 0
DWIDTH 8 0
BBX 7 12 1 0
BITMAP
0754
08A0
0000
300C
300C
6018
9018
9024
C030
C070
D090
6F40
ENDCHAR
STARTCHAR utilde
ENCODING 361
SWIDTH 577 0
DWIDTH 7 0
BBX 7 9 0 0
BITMAP
0754
08A0
0000
1824
2424
3030
2060
60E0
2A90
ENDCHAR
STARTCHAR Umacron
ENCODING 362
SWIDTH 675 0
DWIDTH 8 0
BBX 7 11 1 0
BITMAP
06A0
0000
300C
300C
6018
9018
9024
C030
C070
D090
6F40
ENDCHAR
STARTCHAR umacron
ENCODING 363
SWIDTH 577 0
DWIDTH 7 0
BBX 7 8 0 0
BITMAP
06A0
0000
1824
2424
3030
2060
60E0
2A90
ENDCHAR
STARTCHAR Ubreve
ENCODING 364
SWIDTH 675 0
DWIDTH 8 0
BBX 7 12 1 0
BITMAP
0620
02D0
0000
300C
300C
6018
9018
9024
C030
C070
D090
6F40
ENDCHAR
STARTCHAR ubreve
ENCODING 365
SWIDTH 577 0
DWIDTH 7 0
BBX 7 9 0 0
BITMAP
0520
02D0
0000
1824
2424
3030
2060
60E0
2A90
ENDCHAR
STARTCHAR Uring
ENCODING 366
SWIDTH 675 0
DWIDTH 8 0
BBX 7 13 1 0
BITMAP
0290
0220
0290
0000
300C
300C
6018
9018
9024
C030
C070
D090
6F40
ENDCHAR
STARTCHAR uring
ENCODING 367
SWIDTH 577 0
DWIDTH 7 0
BBX 7 10 0 0
BITMAP
0290
0220
0290
0000
1824
2424
3030
2060
60E0
2A90
ENDCHAR
STARTCHAR Uhungarumlaut
ENCODING 368
SWIDTH 675 0
DWIDTH 8 0
BBX 7 12 1 0
BITMAP
0098
0220
0000
300C
300C
6018
9018
9024
C030
C070
D090
6F40
ENDCHAR
STARTCHAR uhungarumlaut
ENCODING 369
SWIDTH 577 0
DWIDTH 7 0
BBX 7 9 0 0
BITMAP
0198
0220
0000
1824
2424
3030
2060
60E0
2A90
ENDCHAR
STARTCHAR Uogonek
ENCODING 370
SWIDTH 675 0
DWIDTH 8 0
BBX 7 12 1 -3
BITMAP
300C
300C
6018
9018
9024
C030
C070
D090
6F40
0500
0800
0900
ENDCHAR
STARTCHAR uogonek
ENCODING 371
SWIDTH 577 0
DWIDTH 7 0
BBX 7 9 0 -3
BITMAP
1824
2424
3030
2060
60E0
2A90
0180
0200
0280
ENDCHAR
STARTCHAR Wcircumflex
ENCODING 372
SWIDTH 852 0
DWIDTH 10 0
BBX 10 12 1 0
BITMAP
007400
018800
000000
906030
90B060
91B0D0
923180
963240
592300
682900
742C00
702800
ENDCHAR
STARTCHAR wcircumflex
ENCODING 373
SWIDTH 716 0
DWIDTH 9 0
BBX 9 9 0 0
BITMAP
00B000
025400
000000
60D180
619240
626600
656900
286800
343400
ENDCHAR
STARTCHAR Ycircumflex
ENCODING 374
SWIDTH 502 0
DWIDTH 6 0
BBX 6 12 1 0
BITMAP
0B00
1580
0000
9060
90D0
6280
3600
2D00
2800
2400
3000
3000
ENDCHAR
STARTCHAR ycircumflex
ENCODING 375
SWIDTH 461 0
DWIDTH 6 0
BBX 7 12 -1 -3
BITMAP
01D0
0620
0000
1818
1824
0C60
0CC0
0980
0B00
0900
1800
A000
ENDCHAR
STARTCHAR Ydieresis
ENCODING 376
SWIDTH 502 0
DWIDTH 6 0
BBX 6 11 1 0
BITMAP
1880
0000
9060
90D0
6280
3600
2D00
2800
2400
3000
3000
ENDCHAR
STARTCHAR Zacute
ENCODING 377
SWIDTH 530 0
DWIDTH 6 0
BBX 7 12 0 0
BITMAP
0034
0090
0000
1FF8
0034
0090
0180
0700
0D00
2400
6000
FFD0
ENDCHAR
STARTCHAR zacute
ENCODING 378
SWIDTH 443 0
DWIDTH 5 0
BBX 6 9 0 0
BITMAP
0090
0240
0000
2AC0
0240
0A00
1800
6000
EA00
ENDCHAR
STARTCHAR Zdotaccent
ENCODING 379
SWIDTH 530 0
DWIDTH 6 0
BBX 7 11 0 0
BITMAP
0080
0000
1FF8
0034
0090
0180
0700
0D00
2400
6000
FFD0
ENDCHAR
STARTCHAR zdotaccent
ENCODING 380
SWIDTH 443 0
DWIDTH 5 0
BBX 5 8 0 0
BITMAP
0200
0000
2AC0
0240
0A00
1800
6000
EA00
ENDCHAR
STARTCHAR Zcaron
ENCODING 381
SWIDTH 530 0
DWIDTH 6 0
BBX 7 12 0 0
BITMAP
0224
01D0
0000
1FF8
0034
0090
0180
0700
0D00
2400
6000
FFD0
ENDCHAR
STARTCHAR zcaron
ENCODING 382
SWIDTH 443 0
DWIDTH 5 0
BBX 6 9 0 0
BITMAP
0890
0740
0000
2AC0
0240
0A00
1800
6000
EA00
ENDCHAR
STARTCHAR longs
ENCODING 383
SWIDTH 274 0
DWIDTH 3 0
BBX 7 12 -2 -3
BITMAP
0078
00C0
0180
0180
0240
0300
0300
0600
0900
0900
0C00
7400
ENDCHAR
STARTCHAR florin
ENCODING 402
SWIDTH 550 0
DWIDTH 7 0
BBX 7 12 0 -3
BITMAP
00A4
0240
0300
0B90
0600
0600
0900
0800
0C00
1800
2400
A000
ENDCHAR
STARTCHAR Ohorn
ENCODING 416
SWIDTH 713 0
DWIDTH 9 0
BBX 9 9 1 0
BITMAP
0BE180
282E00
600C00
900900
C00D00
C00C00
C02800
A07000
2F8000
ENDCHAR
STARTCHAR ohorn
ENCODING 417
SWIDTH 561 0
DWIDTH 7 0
BBX 8 7 0 0
BITMAP
0006
0B99
2430
6030
6030
60A0
2E80
ENDCHAR
STARTCHAR Uhorn
ENCODING 431
SWIDTH 722 0
DWIDTH 9 0
BBX 10 10 1 0
BITMAP
0000D0
300D80
300E00
601800
901800
902400
C03000
C07000
D09000
6F4000
ENDCHAR
STARTCHAR uhorn
ENCODING 432
SWIDTH 617 0
DWIDTH 7 0
BBX 9 7 0 0
BITMAP
000180
182A00
242400
303000
606000
60E000
2A9000
ENDCHAR
STARTCHAR uni01F0
ENCODING 496
SWIDTH 253 0
DWIDTH 3 0
BBX 7 12 -2 -3
BITMAP
0224
01D0
0000
0180
0240
0300
0300
0600
0500
0900
0C00
7400
ENDCHAR
STARTCHAR Aringacute
ENCODING 506
SWIDTH 555 0
DWIDTH 7 0
BBX 8 12 -1 0
BITMAP
000D
0024
0064
0088
00B4
01A4
0264
0618
0BF8
1808
300C
600C
ENDCHAR
STARTCHAR aringacute
ENCODING 507
SWIDTH 564 0
DWIDTH 7 0
BBX 7 11 0 0
BITMAP
0074
0090
0290
0250
0140
0B94
2834
3030
6060
60E0
2A90
ENDCHAR
STARTCHAR AEacute
ENCODING 508
SWIDTH 816 0
DWIDTH 10 0
BBX 12 12 -1 0
BITMAP
000060
000080
000000
002FFD
003600
009900
018900
030FF4
0BFC00
181800
242400
602FE0
ENDCHAR
STARTCHAR aeacute
ENCODING 509
SWIDTH 814 0
DWIDTH 10 0
BBX 10 9 0 0
BITMAP
000A00
001800
000000
0BAAC0
287890
307190
60BA40
61E000
29AA80
ENDCHAR
STARTCHAR Oslashacute
ENCODING 510
SWIDTH 720 0
DWIDTH 9 0
BBX 8 12 1 0
BITMAP
0060
0080
0000
0BE9
282C
606C
91C9
C24D
C90C
E828
B070
EF80
ENDCHAR
STARTCHAR oslashacute
ENCODING 511
SWIDTH 561 0
DWIDTH 7 0
BBX 6 9 0 0
BITMAP
00A0
0180
0000
0AE0
24B0
6270
6930
7890
6E80
ENDCHAR
STARTCHAR Scommaaccent
ENCODING 536
SWIDTH 501 0
DWIDTH 6 0
BBX 6 12 0 -3
BITMAP
0BE0
1810
2400
1800
0B40
01C0
0090
41C0
BE40
0000
1800
2000
ENDCHAR
STARTCHAR scommaaccent
ENCODING 537
SWIDTH 428 0
DWIDTH 5 0
BBX 5 9 0 -3
BITMAP
2F80
3000
2800
0700
0240
AE00
0000
2400
5000
ENDCHAR
STARTCHAR Tcommaaccent
ENCODING 538
SWIDTH 498 0
DWIDTH 6 0
BBX 6 12 1 -3
BITMAP
BFF0
0900
0C00
0C00
1800
1800
2400
3000
3000
0000
5000
8000
ENDCHAR
STARTCHAR tcommaaccent
ENCODING 539
SWIDTH 324 0
DWIDTH 4 0
BBX 4 10 0 -3
BITMAP
08
7E
24
30
30
60
38
00
30
50
ENDCHAR
STARTCHAR dotlessj
ENCODING 567
SWIDTH 253 0
DWIDTH 3 0
BBX 5 9 -2 -3
BITMAP
0180
0240
0300
0300
0600
0500
0900
0C00
7400
ENDCHAR
STARTCHAR uni02BC
ENCODING 700
SWIDTH 169 0
DWIDTH 2 0
BBX 2 3 1 6
BITMAP
70
90
80
ENDCHAR
STARTCHAR circumflex
ENCODING 710
SWIDTH 554 0
DWIDTH 7 0
BBX 4 2 2 7
BITMAP
1D
62
ENDCHAR
STARTCHAR caron
ENCODING 711
SWIDTH 554 0
DWIDTH 7 0
BBX 3 2 3 7
BITMAP
88
B0
ENDCHAR
STARTCHAR macron
ENCODING 713
SWIDTH 535 0
DWIDTH 6 0
BBX 4 1 2 7
BITMAP
6A
ENDCHAR
STARTCHAR breve
ENCODING 728
SWIDTH 554 0
DWIDTH 7 0
BBX 4 2 2 7
BITMAP
62
2D
ENDCHAR
STARTCHAR dotaccent
ENCODING 729
SWIDTH 243 0
DWIDTH 3 0
BBX 1 1 2 8
BITMAP
80
ENDCHAR
STARTCHAR ring
ENCODING 730
SWIDTH 577 0
DWIDTH 7 0
BBX 3 3 3 7
BITMAP
64
88
64
ENDCHAR
STARTCHAR ogonek
ENCODING 731
SWIDTH 182 0
DWIDTH 2 0
BBX 2 3 -1 -3
BITMAP
60
80
A0
ENDCHAR
STARTCHAR tilde
ENCODING 732
SWIDTH 554 0
DWIDTH 7 0
BBX 4 2 2 7
BITMAP
65
8A
ENDCHAR
STARTCHAR hungarumlaut
ENCODING 733
SWIDTH 554 0
DWIDTH 7 0
BBX 5 2 2 7
BITMAP
2640
5500
ENDCHAR
STARTCHAR uni02F3
ENCODING 755
SWIDTH 333 0
DWIDTH 4 0
BBX 3 2 -1 -3
BITMAP
68
68
ENDCHAR
STARTCHAR uni0300
ENCODING 768
SWIDTH 0 0
DWIDTH 0 0
BBX 2 2 -4 7
BITMAP
C0
60
ENDCHAR
STARTCHAR uni0301
ENCODING 769
SWIDTH 0 0
DWIDTH 0 0
BBX 2 2 -3 7
BITMAP
30
80
ENDCHAR
STARTCHAR uni0303
ENCODING 771
SWIDTH 0 0
DWIDTH 0 0
BBX 5 2 -5 7
BITMAP
7540
8A00
ENDCHAR
STARTCHAR hook
ENCODING 777
SWIDTH 0 0
DWIDTH 0 0
BBX 3 3 -4 7
BITMAP
64
24
50
ENDCHAR
STARTCHAR uni030F
ENCODING 783
SWIDTH 0 0
DWIDTH 0 0
BBX 4 2 -6 7
BITMAP
99
22
ENDCHAR
STARTCHAR dotbelow
ENCODING 803
SWIDTH 0 0
DWIDTH 0 0
BBX 1 1 -5 -2
BITMAP
80
ENDCHAR
STARTCHAR tonos
ENCODING 900
SWIDTH 562 0
DWIDTH 7 0
BBX 2 2 4 7
BITMAP
A0
80
ENDCHAR
STARTCHAR dieresistonos
ENCODING 901
SWIDTH 562 0
DWIDTH 7 0
BBX 4 2 2 8
BITMAP
06
6A
ENDCHAR
STARTCHAR Alphatonos
ENCODING 902
SWIDTH 555 0
DWIDTH 7 0
BBX 7 9 -1 0
BITMAP
0070
06A4
09A4
0224
0618
0FF8
1818
300C
600C
ENDCHAR
STARTCHAR anoteleia
ENCODING 903
SWIDTH 252 0
DWIDTH 3 0
BBX 2 2 1 4
BITMAP
50
D0
ENDCHAR
STARTCHAR Epsilontonos
ENCODING 904
SWIDTH 567 0
DWIDTH 7 0
BBX 8 9 0 0
BITMAP
03FD
2A00
5600
0900
0FF4
0C00
1800
1800
2FE0
ENDCHAR
STARTCHAR Etatonos
ENCODING 905
SWIDTH 753 0
DWIDTH 9 0
BBX 9 9 0 0
BITMAP
0300C0
270180
560180
060240
0BFF40
0C0300
0C0600
180600
180900
ENDCHAR
STARTCHAR Iotatonos
ENCODING 906
SWIDTH 363 0
DWIDTH 4 0
BBX 5 9 0 0
BITMAP
0240
2700
6300
0600
0900
0900
0C00
0C00
1800
ENDCHAR
STARTCHAR Omicrontonos
ENCODING 908
SWIDTH 756 0
DWIDTH 9 0
BBX 9 9 0 0
BITMAP
01BD00
2B4340
6C0180
180180
240180
240240
280300
1D0900
06F400
ENDCHAR
STARTCHAR Upsilontonos
ENCODING 910
SWIDTH 640 0
DWIDTH 8 0
BBX 9 9 0 0
BITMAP
030240
270600
524D00
01A800
00E000
00D000
00C000
018000
018000
ENDCHAR
STARTCHAR Omegatonos
ENCODING 911
SWIDTH 782 0
DWIDTH 9 0
BBX 9 9 0 0
BITMAP
01BE00
2F4240
2D0180
1801C0
180180
180240
1C0700
091900
7E3F40
ENDCHAR
STARTCHAR iotadieresistonos
ENCODING 912
SWIDTH 305 0
DWIDTH 4 0
BBX 4 9 0 0
BITMAP
06
2A
00
14
24
30
60
60
38
ENDCHAR
STARTCHAR Alpha
ENCODING 913
SWIDTH 555 0
DWIDTH 7 0
BBX 7 9 -1 0
BITMAP
0070
00A4
01A4
0224
0618
0FF8
1818
300C
600C
ENDCHAR
STARTCHAR Beta
ENCODING 914
SWIDTH 598 0
DWIDTH 7 0
BBX 7 9 0 0
BITMAP
0BF4
0C1C
180C
1828
2FE0
2424
3024
6034
7F90
ENDCHAR
STARTCHAR Gamma
ENCODING 915
SWIDTH 476 0
DWIDTH 6 0
BBX 7 9 0 0
BITMAP
0BF4
0C00
1800
1800
2400
2400
3000
6000
6000
ENDCHAR
STARTCHAR uni0394
ENCODING 916
SWIDTH 558 0
DWIDTH 7 0
BBX 7 9 -1 0
BITMAP
0070
00A4
01A4
0264
0614
0918
1818
2408
7FFC
ENDCHAR
STARTCHAR Epsilon
ENCODING 917
SWIDTH 511 0
DWIDTH 6 0
BBX 7 9 0 0
BITMAP
0BF4
0C00
1800
1800
2FD0
2400
3000
6000
7F80
ENDCHAR
STARTCHAR Zeta
ENCODING 918
SWIDTH 530 0
DWIDTH 6 0
BBX 7 9 0 0
BITMAP
1FF8
0034
0090
0180
0700
0D00
2400
6000
FFD0
ENDCHAR
STARTCHAR Eta
ENCODING 919
SWIDTH 678 0
DWIDTH 8 0
BBX 8 9 0 0
BITMAP
0903
0C03
1C06
1805
2FFD
240C
300C
6018
6024
ENDCHAR
STARTCHAR Theta
ENCODING 920
SWIDTH 720 0
DWIDTH 9 0
BBX 8 9 1 0
BITMAP
0BE0
2828
600C
9009
CFCD
C00C
C028
A070
2F80
ENDCHAR
STARTCHAR Iota
ENCODING 921
SWIDTH 272 0
DWIDTH 3 0
BBX 4 9 0 0
BITMAP
09
0C
18
18
24
24
30
60
60
ENDCHAR
STARTCHAR Kappa
ENCODING 922
SWIDTH 557 0
DWIDTH 7 0
BBX 8 9 0 0
BITMAP
0909
0C24
1890
1A40
2F40
2580
30C0
6090
6070
ENDCHAR
STARTCHAR Lambda
ENCODING 923
SWIDTH 558 0
DWIDTH 7 0
BBX 7 9 -1 0
BITMAP
0070
00A4
01A4
0254
0618
0D18
180C
340C
600C
ENDCHAR
STARTCHAR Mu
ENCODING 924
SWIDTH 836 0
DWIDTH 10 0
BBX 10 9 0 0
BITMAP
0A00B0
0F01E0
1A02A0
1A0690
264890
2158C0
31A180
61E180
60C240
ENDCHAR
STARTCHAR Nu
ENCODING 925
SWIDTH 702 0
DWIDTH 8 0
BBX 9 9 0 0
BITMAP
0A0240
0F0240
1A4300
198600
24C600
209900
306900
603C00
602800
ENDCHAR
STARTCHAR Xi
ENCODING 926
SWIDTH 517 0
DWIDTH 6 0
BBX 7 9 0 0
BITMAP
1FF4
0000
0000
0000
1FD0
0000
0000
0000
FFC0
ENDCHAR
STARTCHAR Omicron
ENCODING 927
SWIDTH 720 0
DWIDTH 9 0
BBX 8 9 1 0
BITMAP
0BE0
2828
600C
9009
C00D
C00C
C028
A070
2F80
ENDCHAR
STARTCHAR Pi
ENCODING 928
SWIDTH 679 0
DWIDTH 8 0
BBX 8 9 0 0
BITMAP
0BFF
0C03
1806
180A
2409
240C
300C
6018
6028
ENDCHAR
STARTCHAR Rho
ENCODING 929
SWIDTH 565 0
DWIDTH 7 0
BBX 7 9 0 0
BITMAP
0BE0
0C28
1C18
1818
2474
2E90
3000
7000
6000
ENDCHAR
STARTCHAR Sigma
ENCODING 931
SWIDTH 520 0
DWIDTH 6 0
BBX 7 9 0 0
BITMAP
1FF8
0C00
0900
0600
0300
0900
2400
6000
FFD0
ENDCHAR
STARTCHAR Tau
ENCODING 932
SWIDTH 498 0
DWIDTH 6 0
BBX 6 9 1 0
BITMAP
BFF0
0900
0C00
0C00
1800
1800
2400
3000
3000
ENDCHAR
STARTCHAR Upsilon
ENCODING 933
SWIDTH 502 0
DWIDTH 6 0
BBX 6 9 1 0
BITMAP
9060
90D0
6280
3600
2D00
2800
2400
3000
3000
ENDCHAR
STARTCHAR Phi
ENCODING 934
SWIDTH 744 0
DWIDTH 9 0
BBX 8 9 1 0
BITMAP
00C0
1BF4
618D
D24A
C249
C30D
A768
2F90
0900
ENDCHAR
STARTCHAR Chi
ENCODING 935
SWIDTH 519 0
DWIDTH 6 0
BBX 8 9 -1 0
BITMAP
0606
030C
0264
01E0
01C0
0290
0960
2830
6024
ENDCHAR
STARTCHAR Psi
ENCODING 936
SWIDTH 734 0
DWIDTH 9 0
BBX 9 9 1 0
BITMAP
60C240
A18300
918700
924A00
A35C00
2FA000
060000
060000
090000
ENDCHAR
STARTCHAR uni03A9
ENCODING 937
SWIDTH 732 0
DWIDTH 9 0
BBX 9 9 0 0
BITMAP
02F800
0D0700
280340
340240
300340
300700
240900
182400
FDBE00
ENDCHAR
STARTCHAR Iotadieresis
ENCODING 938
SWIDTH 272 0
DWIDTH 3 0
BBX 5 11 0 0
BITMAP
1580
0000
0900
0C00
1800
1800
2400
2400
3000
6000
6000
ENDCHAR
STARTCHAR Upsilondieresis
ENCODING 939
SWIDTH 502 0
DWIDTH 6 0
BBX 6 11 1 0
BITMAP
1880
0000
9060
90D0
6280
3600
2D00
2800
2400
3000
3000
ENDCHAR
STARTCHAR alphatonos
ENCODING 940
SWIDTH 568 0
DWIDTH 7 0
BBX 7 9 0 0
BITMAP
0060
0080
0000
0B98
2474
7030
6060
61D0
2A70
ENDCHAR
STARTCHAR epsilontonos
ENCODING 941
SWIDTH 444 0
DWIDTH 5 0
BBX 6 9 0 0
BITMAP
00C0
0240
0000
1AD0
2400
1E00
6000
9000
2A40
ENDCHAR
STARTCHAR etatonos
ENCODING 942
SWIDTH 577 0
DWIDTH 7 0
BBX 7 12 0 -3
BITMAP
0060
0080
0000
1AE0
2C24
3430
3030
6060
9090
0090
00C0
0180
ENDCHAR
STARTCHAR iotatonos
ENCODING 943
SWIDTH 305 0
DWIDTH 4 0
BBX 4 9 0 0
BITMAP
06
08
00
14
24
30
60
60
38
ENDCHAR
STARTCHAR upsilondieresistonos
ENCODING 944
SWIDTH 576 0
DWIDTH 7 0
BBX 6 9 1 0
BITMAP
0280
1680
0000
5090
9090
C090
80C0
C280
BE00
ENDCHAR
STARTCHAR alpha
ENCODING 945
SWIDTH 568 0
DWIDTH 7 0
BBX 7 6 0 0
BITMAP
0B98
2474
7030
6060
61D0
2A70
ENDCHAR
STARTCHAR beta
ENCODING 946
SWIDTH 577 0
DWIDTH 7 0
BBX 7 12 0 -3
BITMAP
02E0
0918
1818
1824
26D0
3030
3020
6070
AA90
9000
C000
8000
ENDCHAR
STARTCHAR gamma
ENCODING 947
SWIDTH 458 0
DWIDTH 6 0
BBX 6 9 0 -3
BITMAP
6060
6090
3180
3300
2A00
2C00
2400
3000
6000
ENDCHAR
STARTCHAR delta
ENCODING 948
SWIDTH 553 0
DWIDTH 7 0
BBX 7 9 0 0
BITMAP
02A4
0500
0600
0380
19A0
6030
9060
6090
2F80
ENDCHAR
STARTCHAR epsilon
ENCODING 949
SWIDTH 444 0
DWIDTH 5 0
BBX 6 6 0 0
BITMAP
1AD0
2400
1E00
6000
9000
2A40
ENDCHAR
STARTCHAR zeta
ENCODING 950
SWIDTH 453 0
DWIDTH 5 0
BBX 7 11 0 -2
BITMAP
0BF4
0090
0240
0800
2400
6000
6000
7400
1A00
0240
0600
ENDCHAR
STARTCHAR eta
ENCODING 951
SWIDTH 577 0
DWIDTH 7 0
BBX 7 9 0 -3
BITMAP
1AE0
2C24
3430
3030
6060
9090
0090
00C0
0180
ENDCHAR
STARTCHAR theta
ENCODING 952
SWIDTH 542 0
DWIDTH 7 0
BBX 7 9 0 0
BITMAP
06E0
0C30
2424
3024
3FF0
6060
6090
6180
2E00
ENDCHAR
STARTCHAR iota
ENCODING 953
SWIDTH 305 0
DWIDTH 4 0
BBX 3 6 0 0
BITMAP
14
24
30
60
60
38
ENDCHAR
STARTCHAR kappa
ENCODING 954
SWIDTH 487 0
DWIDTH 6 0
BBX 6 6 0 0
BITMAP
18A0
2680
3A00
3700
6240
91C0
ENDCHAR
STARTCHAR lambda
ENCODING 955
SWIDTH 482 0
DWIDTH 6 0
BBX 7 9 -1 0
BITMAP
0B40
0180
00C0
01C0
0280
0990
1890
2490
6074
ENDCHAR
STARTCHAR uni03BC
ENCODING 956
SWIDTH 583 0
DWIDTH 7 0
BBX 7 9 0 -3
BITMAP
1818
2424
2030
3060
60E0
6E90
9000
C000
8000
ENDCHAR
STARTCHAR nu
ENCODING 957
SWIDTH 488 0
DWIDTH 6 0
BBX 6 6 0 0
BITMAP
6030
6060
30C0
3180
3600
2800
ENDCHAR
STARTCHAR xi
ENCODING 958
SWIDTH 444 0
DWIDTH 5 0
BBX 6 11 0 -2
BITMAP
0BE0
0900
1800
0D00
0B80
3400
6000
6000
1A00
0300
0600
ENDCHAR
STARTCHAR omicron
ENCODING 959
SWIDTH 561 0
DWIDTH 7 0
BBX 6 6 0 0
BITMAP
0B90
2430
6030
6030
60A0
2E80
ENDCHAR
STARTCHAR pi
ENCODING 960
SWIDTH 600 0
DWIDTH 7 0
BBX 8 6 0 0
BITMAP
6FFD
1830
2460
3090
3090
60A0
ENDCHAR
STARTCHAR rho
ENCODING 961
SWIDTH 570 0
DWIDTH 7 0
BBX 7 9 0 -3
BITMAP
0AD0
1830
2024
3030
60A0
6B80
9000
C000
8000
ENDCHAR
STARTCHAR sigma1
ENCODING 962
SWIDTH 453 0
DWIDTH 5 0
BBX 6 8 0 -2
BITMAP
0BD0
2400
6000
6000
7000
1A00
0240
0600
ENDCHAR
STARTCHAR sigma
ENCODING 963
SWIDTH 581 0
DWIDTH 7 0
BBX 7 6 0 0
BITMAP
0BFC
2460
6030
6030
6090
2F80
ENDCHAR
STARTCHAR tau
ENCODING 964
SWIDTH 417 0
DWIDTH 5 0
BBX 6 6 0 0
BITMAP
6FD0
0C00
0C00
1800
2400
1E00
ENDCHAR
STARTCHAR upsilon
ENCODING 965
SWIDTH 576 0
DWIDTH 7 0
BBX 6 6 1 0
BITMAP
5090
9090
C090
80C0
C280
BE00
ENDCHAR
STARTCHAR phi
ENCODING 966
SWIDTH 669 0
DWIDTH 8 0
BBX 8 9 0 -3
BITMAP
08B8
24C9
6189
6249
6328
2FA0
0600
0900
0900
ENDCHAR
STARTCHAR chi
ENCODING 967
SWIDTH 502 0
DWIDTH 6 0
BBX 7 9 -1 -3
BITMAP
1D08
0224
0360
0380
0340
0A40
1980
6180
C0A0
ENDCHAR
STARTCHAR psi
ENCODING 968
SWIDTH 713 0
DWIDTH 9 0
BBX 7 12 1 -3
BITMAP
00C0
0180
0140
524C
930C
C20C
C618
C970
6F90
0C00
1800
1800
ENDCHAR
STARTCHAR omega
ENCODING 969
SWIDTH 729 0
DWIDTH 9 0
BBX 9 6 0 0
BITMAP
180300
240340
30C300
618300
628A00
29B800
ENDCHAR
STARTCHAR iotadieresis
ENCODING 970
SWIDTH 305 0
DWIDTH 4 0
BBX 4 8 0 0
BITMAP
22
00
14
24
30
60
60
38
ENDCHAR
STARTCHAR upsilondieresis
ENCODING 971
SWIDTH 576 0
DWIDTH 7 0
BBX 6 8 1 0
BITMAP
1880
0000
5090
9090
C090
80C0
C280
BE00
ENDCHAR
STARTCHAR omicrontonos
ENCODING 972
SWIDTH 561 0
DWIDTH 7 0
BBX 6 9 0 0
BITMAP
00A0
0080
0000
0B90
2430
6030
6030
60A0
2E80
ENDCHAR
STARTCHAR upsilontonos
ENCODING 973
SWIDTH 576 0
DWIDTH 7 0
BBX 6 9 1 0
BITMAP
0240
0600
0000
5090
9090
C090
80C0
C280
BE00
ENDCHAR
STARTCHAR omegatonos
ENCODING 974
SWIDTH 729 0
DWIDTH 9 0
BBX 9 9 0 0
BITMAP
002800
002000
000000
180300
240340
30C300
618300
628A00
29B800
ENDCHAR
STARTCHAR uni03D1
ENCODING 977
SWIDTH 569 0
DWIDTH 7 0
BBX 7 9 0 0
BITMAP
0690
0930
0924
01B8
B030
3060
6090
6180
2A00
ENDCHAR
STARTCHAR uni03D2
ENCODING 978
SWIDTH 509 0
DWIDTH 6 0
BBX 7 9 1 0
BITMAP
9074
90C0
6240
3600
2C00
2800
2400
3000
3000
ENDCHAR
STARTCHAR uni03D6
ENCODING 982
SWIDTH 791 0
DWIDTH 10 0
BBX 9 6 1 0
BITMAP
BFFF80
600900
900900
C30900
C71C00
B9E400
ENDCHAR
STARTCHAR uni0400
ENCODING 1024
SWIDTH 511 0
DWIDTH 6 0
BBX 7 12 0 0
BITMAP
0180
0080
0000
0BF4
0C00
1800
1800
2FD0
2400
3000
6000
7F80
ENDCHAR
STARTCHAR afii10023
ENCODING 1025
SWIDTH 511 0
DWIDTH 6 0
BBX 7 11 0 0
BITMAP
0220
0000
0BF4
0C00
1800
1800
2FD0
2400
3000
6000
7F80
ENDCHAR
STARTCHAR afii10051
ENCODING 1026
SWIDTH 666 0
DWIDTH 8 0
BBX 6 9 1 0
BITMAP
BFD0
0800
1800
2FD0
2030
3030
2030
6060
9380
ENDCHAR
STARTCHAR afii10052
ENCODING 1027
SWIDTH 476 0
DWIDTH 6 0
BBX 7 12 0 0
BITMAP
0030
0080
0000
0BF4
0C00
1800
1800
2400
2400
3000
6000
6000
ENDCHAR
STARTCHAR afii10053
ENCODING 1028
SWIDTH 584 0
DWIDTH 7 0
BBX 7 9 1 0
BITMAP
07F4
2800
7000
9000
FF80
C000
C000
A000
2F80
ENDCHAR
STARTCHAR afii10054
ENCODING 1029
SWIDTH 501 0
DWIDTH 6 0
BBX 6 9 0 0
BITMAP
0BE0
1810
2400
1800
0B40
01C0
0090
41C0
BE40
ENDCHAR
STARTCHAR afii10055
ENCODING 1030
SWIDTH 272 0
DWIDTH 3 0
BBX 4 9 0 0
BITMAP
09
0C
18
18
24
24
30
60
60
ENDCHAR
STARTCHAR afii10056
ENCODING 1031
SWIDTH 272 0
DWIDTH 3 0
BBX 5 11 0 0
BITMAP
1580
0000
0900
0C00
1800
1800
2400
2400
3000
6000
6000
ENDCHAR
STARTCHAR afii10057
ENCODING 1032
SWIDTH 267 0
DWIDTH 3 0
BBX 6 11 -2 -2
BITMAP
0090
00C0
0180
0180
0240
0340
0300
0600
0600
0D00
B400
ENDCHAR
STARTCHAR afii10058
ENCODING 1033
SWIDTH 889 0
DWIDTH 11 0
BBX 11 9 -1 0
BITMAP
00BF40
009240
00C300
018700
0247E4
03091C
06090C
090C28
781FA0
ENDCHAR
STARTCHAR afii10059
ENCODING 1034
SWIDTH 901 0
DWIDTH 11 0
BBX 10 9 0 0
BITMAP
090600
0C0900
1C0900
180C00
2FFFD0
241870
302430
603460
603E80
ENDCHAR
STARTCHAR afii10060
ENCODING 1035
SWIDTH 666 0
DWIDTH 8 0
BBX 6 9 1 0
BITMAP
BFD0
0800
1800
2FD0
2030
3030
2030
6060
9060
ENDCHAR
STARTCHAR afii10061
ENCODING 1036
SWIDTH 559 0
DWIDTH 7 0
BBX 8 12 0 0
BITMAP
0024
0050
0000
0909
0C24
1890
1A40
2E00
2700
3180
6090
6070
ENDCHAR
STARTCHAR uni040D
ENCODING 1037
SWIDTH 696 0
DWIDTH 8 0
BBX 9 12 0 0
BITMAP
009000
006000
000000
090340
0C0B00
182700
186600
248600
264900
390800
780C00
701800
ENDCHAR
STARTCHAR afii10062
ENCODING 1038
SWIDTH 571 0
DWIDTH 7 0
BBX 8 12 0 0
BITMAP
0608
02A4
0000
2406
180C
0C24
0970
0590
0780
0300
0900
F400
ENDCHAR
STARTCHAR afii10145
ENCODING 1039
SWIDTH 679 0
DWIDTH 8 0
BBX 8 11 0 -2
BITMAP
0903
0C03
1806
180A
2409
240C
300C
6018
7FF8
0200
0600
ENDCHAR
STARTCHAR afii10017
ENCODING 1040
SWIDTH 555 0
DWIDTH 7 0
BBX 7 9 -1 0
BITMAP
0070
00A4
01A4
0224
0618
0FF8
1818
300C
600C
ENDCHAR
STARTCHAR afii10018
ENCODING 1041
SWIDTH 563 0
DWIDTH 7 0
BBX 7 9 0 0
BITMAP
0BF4
0C00
0C00
1800
2FD0
2470
3030
7060
7E80
ENDCHAR
STARTCHAR afii10019
ENCODING 1042
SWIDTH 598 0
DWIDTH 7 0
BBX 7 9 0 0
BITMAP
0BF4
0C1C
180C
1828
2FE0
2424
3024
6034
7F90
ENDCHAR
STARTCHAR afii10020
ENCODING 1043
SWIDTH 476 0
DWIDTH 6 0
BBX 7 9 0 0
BITMAP
0BF4
0C00
1800
1800
2400
2400
3000
6000
6000
ENDCHAR
STARTCHAR afii10021
ENCODING 1044
SWIDTH 621 0
DWIDTH 7 0
BBX 9 11 -1 -2
BITMAP
003F40
006300
009300
018600
024900
060900
090C00
180C00
7FFE00
900600
C00900
ENDCHAR
STARTCHAR afii10022
ENCODING 1045
SWIDTH 511 0
DWIDTH 6 0
BBX 7 9 0 0
BITMAP
0BF4
0C00
1800
1800
2FD0
2400
3000
6000
7F80
ENDCHAR
STARTCHAR afii10024
ENCODING 1046
SWIDTH 775 0
DWIDTH 9 0
BBX 11 9 -1 0
BITMAP
06091C
030C70
0188D0
00DA40
00BE00
02A700
063240
1C21C0
706090
ENDCHAR
STARTCHAR afii10025
ENCODING 1047
SWIDTH 532 0
DWIDTH 6 0
BBX 6 9 0 0
BITMAP
1AD0
1430
0030
00A0
1F80
0090
0060
4090
BE40
ENDCHAR
STARTCHAR afii10026
ENCODING 1048
SWIDTH 696 0
DWIDTH 8 0
BBX 9 9 0 0
BITMAP
090340
0C0B00
182700
186600
248600
264900
390800
780C00
701800
ENDCHAR
STARTCHAR afii10027
ENCODING 1049
SWIDTH 696 0
DWIDTH 8 0
BBX 9 12 0 0
BITMAP
014600
01A800
000000
090340
0C0B00
182700
186600
248600
264900
390800
780C00
701800
ENDCHAR
STARTCHAR afii10028
ENCODING 1050
SWIDTH 559 0
DWIDTH 7 0
BBX 8 9 0 0
BITMAP
0909
0C24
1890
1A40
2E00
2700
3180
6090
6070
ENDCHAR
STARTCHAR afii10029
ENCODING 1051
SWIDTH 644 0
DWIDTH 8 0
BBX 9 9 -1 0
BITMAP
00BF80
009240
00C240
018300
024300
030600
060900
090900
780C00
ENDCHAR
STARTCHAR afii10030
ENCODING 1052
SWIDTH 836 0
DWIDTH 10 0
BBX 10 9 0 0
BITMAP
0A00B0
0F01E0
1A02A0
1A0690
264890
2158C0
31A180
61E180
60C240
ENDCHAR
STARTCHAR afii10031
ENCODING 1053
SWIDTH 678 0
DWIDTH 8 0
BBX 8 9 0 0
BITMAP
0903
0C03
1C06
1805
2FFD
240C
300C
6018
6024
ENDCHAR
STARTCHAR afii10032
ENCODING 1054
SWIDTH 720 0
DWIDTH 9 0
BBX 8 9 1 0
BITMAP
0BE0
2828
600C
9009
C00D
C00C
C028
A070
2F80
ENDCHAR
STARTCHAR afii10033
ENCODING 1055
SWIDTH 679 0
DWIDTH 8 0
BBX 8 9 0 0
BITMAP
0BFF
0C03
1806
180A
2409
240C
300C
6018
6028
ENDCHAR
STARTCHAR afii10034
ENCODING 1056
SWIDTH 565 0
DWIDTH 7 0
BBX 7 9 0 0
BITMAP
0BE0
0C28
1C18
1818
2474
2E90
3000
7000
6000
ENDCHAR
STARTCHAR afii10035
ENCODING 1057
SWIDTH 584 0
DWIDTH 7 0
BBX 7 9 1 0
BITMAP
07F4
2800
6000
9000
C000
C000
C000
A000
2F80
ENDCHAR
STARTCHAR afii10036
ENCODING 1058
SWIDTH 498 0
DWIDTH 6 0
BBX 6 9 1 0
BITMAP
BFF0
0900
0C00
0C00
1800
1800
2400
3000
3000
ENDCHAR
STARTCHAR afii10037
ENCODING 1059
SWIDTH 571 0
DWIDTH 7 0
BBX 8 9 0 0
BITMAP
2406
180C
0C24
0970
0590
0780
0300
0900
F400
ENDCHAR
STARTCHAR afii10038
ENCODING 1060
SWIDTH 744 0
DWIDTH 9 0
BBX 8 9 1 0
BITMAP
00C0
1BF4
618D
D24A
C249
C30D
A768
2F90
0900
ENDCHAR
STARTCHAR afii10039
ENCODING 1061
SWIDTH 519 0
DWIDTH 6 0
BBX 8 9 -1 0
BITMAP
0606
030C
0264
01E0
01C0
0290
0960
2830
6024
ENDCHAR
STARTCHAR afii10040
ENCODING 1062
SWIDTH 665 0
DWIDTH 8 0
BBX 8 11 0 -2
BITMAP
0903
0C06
1806
1809
240C
240C
3018
6018
7FFD
000C
0008
ENDCHAR
STARTCHAR afii10041
ENCODING 1063
SWIDTH 639 0
DWIDTH 8 0
BBX 7 9 1 0
BITMAP
3018
3024
6024
6030
6060
2EA0
0090
0090
00C0
ENDCHAR
STARTCHAR afii10042
ENCODING 1064
SWIDTH 955 0
DWIDTH 11 0
BBX 12 9 0 0
BITMAP
090909
0C0C09
180C0C
181818
241818
242424
303024
603030
7FFFE0
ENDCHAR
STARTCHAR afii10043
ENCODING 1065
SWIDTH 957 0
DWIDTH 11 0
BBX 12 11 0 -2
BITMAP
090909
0C0C09
180C0C
181818
241818
242424
303024
603030
7FFFF8
000018
000024
ENDCHAR
STARTCHAR afii10044
ENCODING 1066
SWIDTH 625 0
DWIDTH 8 0
BBX 6 9 1 0
BITMAP
BC00
0C00
1800
2800
2F80
3060
3060
6090
BE40
ENDCHAR
STARTCHAR afii10045
ENCODING 1067
SWIDTH 786 0
DWIDTH 9 0
BBX 10 9 0 0
BITMAP
090090
0C0090
1C00C0
180180
2F9180
246240
303240
60A300
7E8600
ENDCHAR
STARTCHAR afii10046
ENCODING 1068
SWIDTH 554 0
DWIDTH 7 0
BBX 6 9 0 0
BITMAP
0900
0C00
1C00
1800
2F90
2460
3030
60A0
7E80
ENDCHAR
STARTCHAR afii10047
ENCODING 1069
SWIDTH 584 0
DWIDTH 7 0
BBX 7 9 0 0
BITMAP
1FD0
0074
0028
0018
0FF8
0024
0030
4190
BE40
ENDCHAR
STARTCHAR afii10048
ENCODING 1070
SWIDTH 979 0
DWIDTH 12 0
BBX 12 9 0 0
BITMAP
0907E4
0C181C
1C3009
186009
2FD009
24900C
309018
607074
601F90
ENDCHAR
STARTCHAR afii10049
ENCODING 1071
SWIDTH 568 0
DWIDTH 7 0
BBX 7 9 0 0
BITMAP
06F8
1818
2824
1834
0BF0
0C60
2460
6090
C0D0
ENDCHAR
STARTCHAR afii10065
ENCODING 1072
SWIDTH 564 0
DWIDTH 7 0
BBX 7 6 0 0
BITMAP
0B94
2834
3030
6060
60E0
2A90
ENDCHAR
STARTCHAR afii10066
ENCODING 1073
SWIDTH 541 0
DWIDTH 7 0
BBX 7 9 0 0
BITMAP
01A8
0A40
1800
36D0
3460
6030
6060
6090
2E40
ENDCHAR
STARTCHAR afii10067
ENCODING 1074
SWIDTH 538 0
DWIDTH 6 0
BBX 6 6 0 0
BITMAP
0BE0
2430
7060
7BD0
6060
2E80
ENDCHAR
STARTCHAR afii10068
ENCODING 1075
SWIDTH 457 0
DWIDTH 5 0
BBX 5 6 0 0
BITMAP
1B80
00C0
0640
6400
9000
7A40
ENDCHAR
STARTCHAR afii10069
ENCODING 1076
SWIDTH 562 0
DWIDTH 7 0
BBX 7 9 0 0
BITMAP
0AD0
0070
0024
0AA4
2474
6030
6060
60D0
2E40
ENDCHAR
STARTCHAR afii10070
ENCODING 1077
SWIDTH 493 0
DWIDTH 6 0
BBX 6 6 0 0
BITMAP
0BD0
28A0
7190
7A40
6000
2E80
ENDCHAR
STARTCHAR afii10072
ENCODING 1078
SWIDTH 833 0
DWIDTH 10 0
BBX 11 6 0 0
BITMAP
2D31B4
062340
07BE00
099900
1C8600
A4C290
ENDCHAR
STARTCHAR afii10073
ENCODING 1079
SWIDTH 436 0
DWIDTH 5 0
BBX 5 6 0 0
BITMAP
2F40
01C0
0180
1F00
0240
AA00
ENDCHAR
STARTCHAR afii10074
ENCODING 1080
SWIDTH 577 0
DWIDTH 7 0
BBX 7 6 0 0
BITMAP
1824
2424
3030
2060
60E0
2A90
ENDCHAR
STARTCHAR afii10075
ENCODING 1081
SWIDTH 577 0
DWIDTH 7 0
BBX 7 9 0 0
BITMAP
0914
06A0
0000
1824
2424
3030
2060
60E0
2A90
ENDCHAR
STARTCHAR afii10076
ENCODING 1082
SWIDTH 477 0
DWIDTH 6 0
BBX 6 6 0 0
BITMAP
1860
2680
3A00
3900
6340
91C0
ENDCHAR
STARTCHAR afii10077
ENCODING 1083
SWIDTH 537 0
DWIDTH 6 0
BBX 7 6 -1 0
BITMAP
00BC
0258
0618
0924
1C30
7460
ENDCHAR
STARTCHAR afii10078
ENCODING 1084
SWIDTH 689 0
DWIDTH 8 0
BBX 8 6 0 0
BITMAP
1C0A
2C1E
2929
2558
668C
9318
ENDCHAR
STARTCHAR afii10079
ENCODING 1085
SWIDTH 599 0
DWIDTH 7 0
BBX 7 6 0 0
BITMAP
1818
2414
3424
3FF0
6020
9060
ENDCHAR
STARTCHAR afii10080
ENCODING 1086
SWIDTH 561 0
DWIDTH 7 0
BBX 6 6 0 0
BITMAP
0B90
2430
6030
6030
60A0
2E80
ENDCHAR
STARTCHAR afii10081
ENCODING 1087
SWIDTH 577 0
DWIDTH 7 0
BBX 7 6 0 0
BITMAP
1AE0
2C24
3430
3030
6060
9090
ENDCHAR
STARTCHAR afii10082
ENCODING 1088
SWIDTH 577 0
DWIDTH 7 0
BBX 7 9 0 -3
BITMAP
1AE0
2C24
2424
3030
70A0
6B80
9000
C000
8000
ENDCHAR
STARTCHAR afii10083
ENCODING 1089
SWIDTH 450 0
DWIDTH 5 0
BBX 6 6 0 0
BITMAP
0BD0
2400
7000
6000
6000
2E40
ENDCHAR
STARTCHAR afii10084
ENCODING 1090
SWIDTH 872 0
DWIDTH 10 0
BBX 10 6 0 0
BITMAP
1AE6D0
283860
343060
306090
609080
9090C0
ENDCHAR
STARTCHAR afii10085
ENCODING 1091
SWIDTH 461 0
DWIDTH 6 0
BBX 7 9 -1 -3
BITMAP
1818
1824
0C60
0CC0
0980
0B00
0900
1800
A000
ENDCHAR
STARTCHAR afii10086
ENCODING 1092
SWIDTH 663 0
DWIDTH 8 0
BBX 8 12 0 -3
BITMAP
0060
0090
0090
0AF4
248D
6189
6249
7318
1FA0
0600
0500
0900
ENDCHAR
STARTCHAR afii10087
ENCODING 1093
SWIDTH 478 0
DWIDTH 6 0
BBX 6 6 0 0
BITMAP
24A0
1980
0A00
1E00
2200
9180
ENDCHAR
STARTCHAR afii10088
ENCODING 1094
SWIDTH 595 0
DWIDTH 7 0
BBX 7 8 0 -2
BITMAP
1824
2424
3030
2060
60E0
2A74
0030
0030
ENDCHAR
STARTCHAR afii10089
ENCODING 1095
SWIDTH 555 0
DWIDTH 7 0
BBX 6 6 1 0
BITMAP
9090
C1C0
C680
6A80
0240
0300
ENDCHAR
STARTCHAR afii10090
ENCODING 1096
SWIDTH 872 0
DWIDTH 10 0
BBX 10 6 0 0
BITMAP
182430
243060
306060
60A0D0
61D2C0
3E79C0
ENDCHAR
STARTCHAR afii10091
ENCODING 1097
SWIDTH 890 0
DWIDTH 11 0
BBX 10 8 0 -2
BITMAP
182430
243060
306060
60A0D0
61D2C0
3E79A0
000060
000090
ENDCHAR
STARTCHAR afii10092
ENCODING 1098
SWIDTH 591 0
DWIDTH 7 0
BBX 7 6 0 0
BITMAP
7E00
0900
0EE0
0C24
0C24
0BD0
ENDCHAR
STARTCHAR afii10093
ENCODING 1099
SWIDTH 721 0
DWIDTH 9 0
BBX 9 6 0 0
BITMAP
180240
240300
3B8600
209500
70C900
2E4C00
ENDCHAR
STARTCHAR afii10094
ENCODING 1100
SWIDTH 519 0
DWIDTH 6 0
BBX 6 6 0 0
BITMAP
1800
2400
3A80
2090
7090
2F80
ENDCHAR
STARTCHAR afii10095
ENCODING 1101
SWIDTH 456 0
DWIDTH 5 0
BBX 5 6 0 0
BITMAP
2A40
0180
00C0
2F80
0240
B900
ENDCHAR
STARTCHAR afii10096
ENCODING 1102
SWIDTH 780 0
DWIDTH 9 0
BBX 9 6 0 0
BITMAP
182A00
249180
358180
3F4180
618340
90B900
ENDCHAR
STARTCHAR afii10097
ENCODING 1103
SWIDTH 526 0
DWIDTH 6 0
BBX 7 6 -1 0
BITMAP
06F8
0C18
0D24
07F0
0D30
7460
ENDCHAR
STARTCHAR uni0450
ENCODING 1104
SWIDTH 493 0
DWIDTH 6 0
BBX 6 9 0 0
BITMAP
0600
0200
0000
0BD0
28A0
7190
7A40
6000
2E80
ENDCHAR
STARTCHAR afii10071
ENCODING 1105
SWIDTH 493 0
DWIDTH 6 0
BBX 6 8 0 0
BITMAP
0550
0000
0BD0
28A0
7190
7A40
6000
2E80
ENDCHAR
STARTCHAR afii10099
ENCODING 1106
SWIDTH 577 0
DWIDTH 7 0
BBX 6 12 0 -3
BITMAP
0C00
2E80
1800
1AE0
2830
3430
3030
6060
9090
0090
00C0
0740
ENDCHAR
STARTCHAR afii10100
ENCODING 1107
SWIDTH 457 0
DWIDTH 5 0
BBX 6 9 0 0
BITMAP
0090
0240
0000
1B80
00C0
0640
6400
9000
7A40
ENDCHAR
STARTCHAR afii10101
ENCODING 1108
SWIDTH 450 0
DWIDTH 5 0
BBX 6 6 0 0
BITMAP
0BD0
2800
7000
7F40
6000
2A40
ENDCHAR
STARTCHAR afii10102
ENCODING 1109
SWIDTH 428 0
DWIDTH 5 0
BBX 5 6 0 0
BITMAP
2F80
3000
2800
0700
0240
AE00
ENDCHAR
STARTCHAR afii10103
ENCODING 1110
SWIDTH 253 0
DWIDTH 3 0
BBX 3 8 0 0
BITMAP
08
04
18
24
30
30
60
90
ENDCHAR
STARTCHAR afii10104
ENCODING 1111
SWIDTH 253 0
DWIDTH 3 0
BBX 4 8 0 0
BITMAP
22
00
18
24
30
30
60
90
ENDCHAR
STARTCHAR afii10105
ENCODING 1112
SWIDTH 253 0
DWIDTH 3 0
BBX 5 11 -2 -3
BITMAP
0080
0040
0180
0240
0300
0300
0600
0500
0900
0C00
7400
ENDCHAR
STARTCHAR afii10106
ENCODING 1113
SWIDTH 762 0
DWIDTH 9 0
BBX 10 6 -1 0
BITMAP
01B800
026400
062B80
093090
1C3090
742F80
ENDCHAR
STARTCHAR afii10107
ENCODING 1114
SWIDTH 812 0
DWIDTH 10 0
BBX 9 6 0 0
BITMAP
182400
243000
3FFB40
2050C0
606180
902A40
ENDCHAR
STARTCHAR afii10108
ENCODING 1115
SWIDTH 577 0
DWIDTH 7 0
BBX 7 9 0 0
BITMAP
0C00
2E80
1800
1AE0
2834
3430
3020
6060
9090
ENDCHAR
STARTCHAR afii10109
ENCODING 1116
SWIDTH 477 0
DWIDTH 6 0
BBX 6 9 0 0
BITMAP
00A0
0180
0000
1860
2680
3A00
3900
6340
91C0
ENDCHAR
STARTCHAR uni045D
ENCODING 1117
SWIDTH 577 0
DWIDTH 7 0
BBX 7 9 0 0
BITMAP
0300
0140
0000
1824
2424
3030
2060
60E0
2A90
ENDCHAR
STARTCHAR afii10110
ENCODING 1118
SWIDTH 461 0
DWIDTH 6 0
BBX 7 12 -1 -3
BITMAP
0618
02A4
0000
1818
1824
0C60
0CC0
0980
0B00
0900
1800
A000
ENDCHAR
STARTCHAR afii10193
ENCODING 1119
SWIDTH 577 0
DWIDTH 7 0
BBX 7 9 0 -3
BITMAP
1824
2424
3030
2060
60E0
2A90
0900
0C00
0C00
ENDCHAR
STARTCHAR uni0460
ENCODING 1120
SWIDTH 953 0
DWIDTH 11 0
BBX 10 9 1 0
BITMAP
0B87D0
240070
600030
900030
C00070
C09060
C0C0D0
D1C280
7E7E00
ENDCHAR
STARTCHAR uni0461
ENCODING 1121
SWIDTH 717 0
DWIDTH 9 0
BBX 9 6 0 0
BITMAP
618180
60C240
30C300
32C600
269800
2CB000
ENDCHAR
STARTCHAR uni0462
ENCODING 1122
SWIDTH 619 0
DWIDTH 7 0
BBX 6 9 1 0
BITMAP
0C00
0C00
FFC0
1800
2F80
30A0
2060
6090
BE40
ENDCHAR
STARTCHAR uni0463
ENCODING 1123
SWIDTH 551 0
DWIDTH 7 0
BBX 6 7 0 0
BITMAP
0800
7F80
1800
2ED0
2460
2460
1E80
ENDCHAR
STARTCHAR uni0464
ENCODING 1124
SWIDTH 860 0
DWIDTH 10 0
BBX 11 9 0 0
BITMAP
0906F8
0C1D00
1C3400
186000
2FFFC0
249000
309000
606000
601FD0
ENDCHAR
STARTCHAR uni0465
ENCODING 1125
SWIDTH 687 0
DWIDTH 8 0
BBX 8 6 0 0
BITMAP
182F
2490
3580
3FFD
6280
90A9
ENDCHAR
STARTCHAR uni0466
ENCODING 1126
SWIDTH 601 0
DWIDTH 7 0
BBX 8 9 -1 0
BITMAP
0034
0074
00D8
0258
07FC
099C
18C9
2489
6186
ENDCHAR
STARTCHAR uni0467
ENCODING 1127
SWIDTH 528 0
DWIDTH 6 0
BBX 7 6 -1 0
BITMAP
00E0
02A0
0730
0FF0
2A64
6224
ENDCHAR
STARTCHAR uni0468
ENCODING 1128
SWIDTH 840 0
DWIDTH 10 0
BBX 10 9 0 0
BITMAP
090300
0C0A40
1C0940
182580
2FFF80
2498C0
318CC0
631890
6A1490
ENDCHAR
STARTCHAR uni0469
ENCODING 1129
SWIDTH 721 0
DWIDTH 9 0
BBX 8 6 0 0
BITMAP
1828
246C
3499
3FFD
6266
A956
ENDCHAR
STARTCHAR uni046A
ENCODING 1130
SWIDTH 660 0
DWIDTH 8 0
BBX 9 9 -1 0
BITMAP
03FFC0
024240
018A00
00A800
02FD00
096300
189300
24C300
60C300
ENDCHAR
STARTCHAR uni046B
ENCODING 1131
SWIDTH 603 0
DWIDTH 7 0
BBX 8 6 -1 0
BITMAP
07FE
0254
0AE8
188C
3189
6149
ENDCHAR
STARTCHAR uni046C
ENCODING 1132
SWIDTH 915 0
DWIDTH 11 0
BBX 11 9 0 0
BITMAP
093FFC
0C2424
1C18A0
180E80
2FFF90
249630
318930
624C30
660C30
ENDCHAR
STARTCHAR uni046D
ENCODING 1133
SWIDTH 800 0
DWIDTH 10 0
BBX 10 6 0 0
BITMAP
18FFD0
249240
342A00
3FFB40
622580
A93180
ENDCHAR
STARTCHAR uni046E
ENCODING 1134
SWIDTH 532 0
DWIDTH 6 0
BBX 7 13 -1 -2
BITMAP
0188
00A0
06F8
040C
000C
0028
07E0
0024
0018
0074
1B90
6000
3FD0
ENDCHAR
STARTCHAR uni046F
ENCODING 1135
SWIDTH 446 0
DWIDTH 5 0
BBX 7 10 -1 -2
BITMAP
0224
0290
0BE0
0070
07C0
0060
0090
1A40
6000
6AC0
ENDCHAR
STARTCHAR uni0470
ENCODING 1136
SWIDTH 734 0
DWIDTH 9 0
BBX 9 9 1 0
BITMAP
60C240
A18300
918700
924A00
A35C00
2FA000
060000
060000
090000
ENDCHAR
STARTCHAR uni0471
ENCODING 1137
SWIDTH 713 0
DWIDTH 9 0
BBX 7 12 1 -3
BITMAP
00C0
0180
0140
524C
930C
C20C
C618
C970
6F90
0C00
1800
1800
ENDCHAR
STARTCHAR uni0472
ENCODING 1138
SWIDTH 720 0
DWIDTH 9 0
BBX 8 9 1 0
BITMAP
0BE0
2828
600C
9009
FFFD
C00C
C028
A070
2F80
ENDCHAR
STARTCHAR uni0473
ENCODING 1139
SWIDTH 561 0
DWIDTH 7 0
BBX 6 6 0 0
BITMAP
0BD0
2830
7030
7FF0
6050
2A80
ENDCHAR
STARTCHAR uni0474
ENCODING 1140
SWIDTH 559 0
DWIDTH 7 0
BBX 7 9 1 0
BITMAP
C028
9060
90C0
9180
6240
6600
6900
3800
3400
ENDCHAR
STARTCHAR uni0475
ENCODING 1141
SWIDTH 439 0
DWIDTH 5 0
BBX 6 6 0 0
BITMAP
6060
60C0
3240
3300
3900
2C00
ENDCHAR
STARTCHAR uni0476
ENCODING 1142
SWIDTH 559 0
DWIDTH 7 0
BBX 7 12 1 0
BITMAP
3300
1980
0000
C028
9060
90C0
9180
6240
6600
6900
3800
3400
ENDCHAR
STARTCHAR uni0477
ENCODING 1143
SWIDTH 439 0
DWIDTH 5 0
BBX 6 9 0 0
BITMAP
3300
1980
0000
6060
60C0
3240
3300
3900
2C00
ENDCHAR
STARTCHAR uni0478
ENCODING 1144
SWIDTH 1184 0
DWIDTH 14 0
BBX 14 12 1 -3
BITMAP
0BE00000
28280000
600C0000
900990A0
C00D90C0
C00C6240
C0286600
A0702900
2F803800
00003000
0000A000
00078000
ENDCHAR
STARTCHAR uni0479
ENCODING 1145
SWIDTH 1003 0
DWIDTH 12 0
BBX 13 9 0 -3
BITMAP
0B930240
24324600
60324900
60319800
60A1A000
2E80E000
0000C000
00024000
002E0000
ENDCHAR
STARTCHAR uni047A
ENCODING 1146
SWIDTH 738 0
DWIDTH 9 0
BBX 8 11 1 -1
BITMAP
00C0
0BF4
241C
6009
D009
C009
C00D
C01C
A034
2FD0
0900
ENDCHAR
STARTCHAR uni047B
ENCODING 1147
SWIDTH 578 0
DWIDTH 7 0
BBX 7 8 0 -1
BITMAP
0280
0BE0
2434
6024
6030
6060
2F80
0A00
ENDCHAR
STARTCHAR uni047C
ENCODING 1148
SWIDTH 953 0
DWIDTH 11 0
BBX 10 13 1 0
BITMAP
002800
008640
005840
001400
0B87D0
240070
600030
900030
C00070
C000A0
C000D0
D14280
7EBE00
ENDCHAR
STARTCHAR uni047D
ENCODING 1149
SWIDTH 758 0
DWIDTH 9 0
BBX 9 10 0 0
BITMAP
00AA00
002000
002000
000000
0B5F00
340240
600240
600240
600700
2FB900
ENDCHAR
STARTCHAR uni047E
ENCODING 1150
SWIDTH 953 0
DWIDTH 11 0
BBX 10 11 1 0
BITMAP
01AA00
000000
0B87D0
240070
600030
900030
C00070
C09060
C0C0D0
D1C280
7E7E00
ENDCHAR
STARTCHAR uni047F
ENCODING 1151
SWIDTH 717 0
DWIDTH 9 0
BBX 9 8 0 0
BITMAP
06A800
000000
618180
60C240
30C300
32C600
269800
2CB000
ENDCHAR
STARTCHAR uni0480
ENCODING 1152
SWIDTH 584 0
DWIDTH 7 0
BBX 7 12 1 -3
BITMAP
07F4
2800
6000
9000
C000
C000
C000
A000
2E00
0600
0900
0900
ENDCHAR
STARTCHAR uni0481
ENCODING 1153
SWIDTH 450 0
DWIDTH 5 0
BBX 6 9 0 -3
BITMAP
0BD0
2400
7000
6000
6000
2F00
0300
0600
0900
ENDCHAR
STARTCHAR uni0482
ENCODING 1154
SWIDTH 608 0
DWIDTH 7 0
BBX 6 8 1 0
BITMAP
0080
2980
0740
0AA0
DC00
3800
2600
5000
ENDCHAR
STARTCHAR uni0483
ENCODING 1155
SWIDTH 560 0
DWIDTH 7 0
BBX 5 2 2 7
BITMAP
0140
AA00
ENDCHAR
STARTCHAR uni0484
ENCODING 1156
SWIDTH 580 0
DWIDTH 7 0
BBX 5 1 2 7
BITMAP
AA40
ENDCHAR
STARTCHAR uni0485
ENCODING 1157
SWIDTH 580 0
DWIDTH 7 0
BBX 1 2 4 7
BITMAP
80
80
ENDCHAR
STARTCHAR uni0486
ENCODING 1158
SWIDTH 580 0
DWIDTH 7 0
BBX 1 2 4 7
BITMAP
80
80
ENDCHAR
STARTCHAR uni0488
ENCODING 1160
SWIDTH 988 0
DWIDTH 12 0
BBX 12 10 0 -2
BITMAP
002800
004400
190064
110044
640019
440011
000000
190064
112444
005800
ENDCHAR
STARTCHAR uni0489
ENCODING 1161
SWIDTH 956 0
DWIDTH 11 0
BBX 11 11 0 -2
BITMAP
001400
042000
080090
050000
000000
640028
000000
000000
190080
002450
002000
ENDCHAR
STARTCHAR uni048A
ENCODING 1162
SWIDTH 703 0
DWIDTH 8 0
BBX 9 14 0 -2
BITMAP
024600
01A800
000000
090340
0C0B00
182700
186600
248600
264900
390800
780C00
701E00
000800
001800
ENDCHAR
STARTCHAR uni048B
ENCODING 1163
SWIDTH 579 0
DWIDTH 7 0
BBX 7 11 0 -2
BITMAP
0914
06A0
0000
1824
2424
3030
2060
60E0
2AB0
0020
0090
ENDCHAR
STARTCHAR uni048C
ENCODING 1164
SWIDTH 553 0
DWIDTH 7 0
BBX 6 9 0 0
BITMAP
0900
2F80
1800
1800
2F90
2460
3030
60A0
7E40
ENDCHAR
STARTCHAR uni048D
ENCODING 1165
SWIDTH 519 0
DWIDTH 6 0
BBX 6 9 0 0
BITMAP
0C00
2E40
1800
2400
2000
3B80
6090
7090
2E80
ENDCHAR
STARTCHAR uni048E
ENCODING 1166
SWIDTH 565 0
DWIDTH 7 0
BBX 7 9 0 0
BITMAP
0BE0
0C18
1C18
18A8
25E0
2E50
3000
7000
6000
ENDCHAR
STARTCHAR uni048F
ENCODING 1167
SWIDTH 577 0
DWIDTH 7 0
BBX 7 9 0 -3
BITMAP
1AE0
2C24
2424
3030
72A0
6BC0
9080
C000
8000
ENDCHAR
STARTCHAR afii10050
ENCODING 1168
SWIDTH 476 0
DWIDTH 6 0
BBX 7 11 0 0
BITMAP
000C
0018
0BF4
0C00
1800
1800
2400
2400
3000
6000
6000
ENDCHAR
STARTCHAR afii10098
ENCODING 1169
SWIDTH 382 0
DWIDTH 5 0
BBX 6 8 0 0
BITMAP
0090
00C0
1E80
2400
3000
3000
6000
9000
ENDCHAR
STARTCHAR uni0492
ENCODING 1170
SWIDTH 471 0
DWIDTH 6 0
BBX 7 9 0 0
BITMAP
0BF4
0C00
1800
1800
7F40
2400
3000
6000
6000
ENDCHAR
STARTCHAR uni0493
ENCODING 1171
SWIDTH 382 0
DWIDTH 5 0
BBX 5 6 0 0
BITMAP
1F80
2400
2400
B900
6000
9000
ENDCHAR
STARTCHAR uni0494
ENCODING 1172
SWIDTH 603 0
DWIDTH 7 0
BBX 7 12 0 -3
BITMAP
0BF4
0C00
1800
1800
2F80
2460
3030
6034
6030
0060
01D0
3E40
ENDCHAR
STARTCHAR uni0495
ENCODING 1173
SWIDTH 491 0
DWIDTH 6 0
BBX 5 9 0 -3
BITMAP
1FC0
2400
3400
3F40
61C0
90C0
00C0
0280
7E00
ENDCHAR
STARTCHAR uni0496
ENCODING 1174
SWIDTH 821 0
DWIDTH 10 0
BBX 11 11 -1 -2
BITMAP
06091C
030C70
0188D0
00DA40
00BE00
02A700
063240
1C21C0
7060B0
000030
000060
ENDCHAR
STARTCHAR uni0497
ENCODING 1175
SWIDTH 837 0
DWIDTH 10 0
BBX 11 8 0 -2
BITMAP
2820B4
063340
066600
0BFD00
1D9A00
A4C2D0
0000C0
0000C0
ENDCHAR
STARTCHAR uni0498
ENCODING 1176
SWIDTH 532 0
DWIDTH 6 0
BBX 6 12 0 -3
BITMAP
1AD0
1430
0030
00A0
1F80
0090
0060
4090
BE40
0800
0800
2800
ENDCHAR
STARTCHAR uni0499
ENCODING 1177
SWIDTH 436 0
DWIDTH 5 0
BBX 5 9 0 -3
BITMAP
2F40
01C0
0180
1F00
0240
AA00
1800
0800
6400
ENDCHAR
STARTCHAR uni049A
ENCODING 1178
SWIDTH 600 0
DWIDTH 7 0
BBX 8 11 0 -2
BITMAP
0909
0C24
1890
1A40
2E00
2700
3180
6090
6074
0024
0030
ENDCHAR
STARTCHAR uni049B
ENCODING 1179
SWIDTH 520 0
DWIDTH 6 0
BBX 6 8 0 -2
BITMAP
1860
2680
3900
3900
6340
91D0
0090
0080
ENDCHAR
STARTCHAR uni049C
ENCODING 1180
SWIDTH 559 0
DWIDTH 7 0
BBX 8 9 0 0
BITMAP
0909
0C24
19A0
1A80
2F00
2740
36C0
6090
6070
ENDCHAR
STARTCHAR uni049D
ENCODING 1181
SWIDTH 475 0
DWIDTH 6 0
BBX 6 6 0 0
BITMAP
1AA0
2B40
3D00
3A00
6A40
91C0
ENDCHAR
STARTCHAR uni049E
ENCODING 1182
SWIDTH 557 0
DWIDTH 7 0
BBX 8 9 0 0
BITMAP
0909
2F24
1890
1A40
2F40
2580
30C0
6090
6070
ENDCHAR
STARTCHAR uni049F
ENCODING 1183
SWIDTH 478 0
DWIDTH 6 0
BBX 6 9 0 0
BITMAP
0C00
2E40
1800
18A0
2680
3A00
3700
6240
91C0
ENDCHAR
STARTCHAR uni04A0
ENCODING 1184
SWIDTH 631 0
DWIDTH 8 0
BBX 8 9 1 0
BITMAP
BC0D
0C34
1890
2A40
2E00
3700
3280
60D0
9060
ENDCHAR
STARTCHAR uni04A1
ENCODING 1185
SWIDTH 560 0
DWIDTH 7 0
BBX 7 6 0 0
BITMAP
7E18
09A0
0E40
0E40
18C0
2460
ENDCHAR
STARTCHAR uni04A2
ENCODING 1186
SWIDTH 676 0
DWIDTH 8 0
BBX 8 11 0 -2
BITMAP
0903
0C03
1C06
1805
2FFD
240C
300C
6018
602D
0008
000C
ENDCHAR
STARTCHAR uni04A3
ENCODING 1187
SWIDTH 599 0
DWIDTH 7 0
BBX 7 8 0 -2
BITMAP
1818
2414
3424
3FF0
6020
9074
0030
0030
ENDCHAR
STARTCHAR uni04A4
ENCODING 1188
SWIDTH 754 0
DWIDTH 9 0
BBX 10 9 0 0
BITMAP
0903F0
0C0300
1C0600
180500
2FFD00
240C00
300C00
601800
602400
ENDCHAR
STARTCHAR uni04A5
ENCODING 1189
SWIDTH 687 0
DWIDTH 8 0
BBX 9 6 0 0
BITMAP
181F80
241400
342400
3FF000
602000
906000
ENDCHAR
STARTCHAR uni04A6
ENCODING 1190
SWIDTH 996 0
DWIDTH 12 0
BBX 11 12 0 -3
BITMAP
0BFF00
0C0600
180600
180900
240FE0
240C28
30181C
60180C
602418
000028
000070
001F80
ENDCHAR
STARTCHAR uni04A7
ENCODING 1191
SWIDTH 817 0
DWIDTH 10 0
BBX 9 9 0 -3
BITMAP
1FF400
242400
303000
307F40
6061C0
9090C0
0001C0
000240
007E00
ENDCHAR
STARTCHAR uni04A8
ENCODING 1192
SWIDTH 720 0
DWIDTH 9 0
BBX 7 9 1 0
BITMAP
0BD0
2800
60B8
918C
C34C
C30C
C318
A2B0
2FF8
ENDCHAR
STARTCHAR uni04A9
ENCODING 1193
SWIDTH 599 0
DWIDTH 7 0
BBX 7 6 0 0
BITMAP
0B80
25B4
6258
6324
62B0
2EF0
ENDCHAR
STARTCHAR uni04AA
ENCODING 1194
SWIDTH 584 0
DWIDTH 7 0
BBX 7 12 1 -3
BITMAP
07F4
2800
6000
9000
C000
C000
C000
A000
2F80
0900
0500
1800
ENDCHAR
STARTCHAR uni04AB
ENCODING 1195
SWIDTH 450 0
DWIDTH 5 0
BBX 6 9 0 -3
BITMAP
0BD0
2400
7000
6000
6000
2E40
0800
0900
1800
ENDCHAR
STARTCHAR uni04AC
ENCODING 1196
SWIDTH 498 0
DWIDTH 6 0
BBX 6 11 1 -2
BITMAP
BFF0
0900
0C00
0C00
1800
1800
2400
3000
3800
1800
2400
ENDCHAR
STARTCHAR uni04AD
ENCODING 1197
SWIDTH 884 0
DWIDTH 11 0
BBX 10 8 0 -2
BITMAP
1AE6D0
283860
343060
306090
609080
9090A0
000060
0000A0
ENDCHAR
STARTCHAR uni04AE
ENCODING 1198
SWIDTH 502 0
DWIDTH 6 0
BBX 6 9 1 0
BITMAP
9060
90D0
6280
3600
2D00
2800
2400
3000
3000
ENDCHAR
STARTCHAR uni04AF
ENCODING 1199
SWIDTH 461 0
DWIDTH 6 0
BBX 6 9 0 -3
BITMAP
6060
6090
3180
3300
2900
2800
2400
3000
3000
ENDCHAR
STARTCHAR uni04B0
ENCODING 1200
SWIDTH 502 0
DWIDTH 6 0
BBX 7 9 0 0
BITMAP
2418
2434
18A0
0DC0
0B40
0A00
7FC0
0C00
0C00
ENDCHAR
STARTCHAR uni04B1
ENCODING 1201
SWIDTH 461 0
DWIDTH 6 0
BBX 6 9 0 -3
BITMAP
6060
6090
3180
3200
2900
2800
BA00
3000
3000
ENDCHAR
STARTCHAR uni04B2
ENCODING 1202
SWIDTH 568 0
DWIDTH 7 0
BBX 8 11 -1 -2
BITMAP
0606
030C
0264
01E0
01C0
0390
0960
2830
602C
000C
0018
ENDCHAR
STARTCHAR uni04B3
ENCODING 1203
SWIDTH 520 0
DWIDTH 6 0
BBX 6 8 0 -2
BITMAP
1860
0D80
0B00
0B00
2640
90D0
0090
0080
ENDCHAR
STARTCHAR uni04B4
ENCODING 1204
SWIDTH 776 0
DWIDTH 9 0
BBX 9 11 1 -2
BITMAP
BFF240
090300
0C0300
0C0600
180900
180900
240C00
300C00
3FFE00
000900
000800
ENDCHAR
STARTCHAR uni04B5
ENCODING 1205
SWIDTH 657 0
DWIDTH 8 0
BBX 8 8 0 -2
BITMAP
7FD9
090C
0C0C
1828
1874
0E9C
000C
0018
ENDCHAR
STARTCHAR uni04B6
ENCODING 1206
SWIDTH 636 0
DWIDTH 8 0
BBX 7 11 1 -2
BITMAP
3018
3024
6024
6030
6060
2EA0
0090
0090
00F0
0060
0050
ENDCHAR
STARTCHAR uni04B7
ENCODING 1207
SWIDTH 543 0
DWIDTH 7 0
BBX 6 8 1 -2
BITMAP
9090
C1C0
C680
6A40
0240
0380
0180
0240
ENDCHAR
STARTCHAR uni04B8
ENCODING 1208
SWIDTH 639 0
DWIDTH 8 0
BBX 7 9 1 0
BITMAP
3018
3024
6024
6230
6660
2EA0
0890
0890
00C0
ENDCHAR
STARTCHAR uni04B9
ENCODING 1209
SWIDTH 554 0
DWIDTH 7 0
BBX 6 6 1 0
BITMAP
9090
C1C0
DA80
7A40
2240
0300
ENDCHAR
STARTCHAR uni04BA
ENCODING 1210
SWIDTH 639 0
DWIDTH 8 0
BBX 7 9 0 0
BITMAP
0900
0C00
1800
1AF4
2818
2418
3024
6024
6030
ENDCHAR
STARTCHAR uni04BB
ENCODING 1211
SWIDTH 576 0
DWIDTH 7 0
BBX 6 6 0 0
BITMAP
1800
2400
36D0
3460
6060
9090
ENDCHAR
STARTCHAR uni04BC
ENCODING 1212
SWIDTH 765 0
DWIDTH 9 0
BBX 8 9 1 0
BITMAP
01BD
0647
0C03
A81A
BFA4
3000
2400
1804
0BF4
ENDCHAR
STARTCHAR uni04BD
ENCODING 1213
SWIDTH 592 0
DWIDTH 7 0
BBX 7 6 0 0
BITMAP
01F4
0618
5D24
6E90
0C00
0BA0
ENDCHAR
STARTCHAR uni04BE
ENCODING 1214
SWIDTH 765 0
DWIDTH 9 0
BBX 8 11 1 -2
BITMAP
01BD
0647
0C03
A81A
BFA4
3000
2400
2804
0BF4
0240
0200
ENDCHAR
STARTCHAR uni04BF
ENCODING 1215
SWIDTH 592 0
DWIDTH 7 0
BBX 7 8 0 -2
BITMAP
01F4
0618
5D24
6E90
0C00
0BA0
0240
0300
ENDCHAR
STARTCHAR uni04C0
ENCODING 1216
SWIDTH 272 0
DWIDTH 3 0
BBX 4 9 0 0
BITMAP
09
0C
18
18
24
24
30
60
60
ENDCHAR
STARTCHAR uni04C1
ENCODING 1217
SWIDTH 775 0
DWIDTH 9 0
BBX 11 12 -1 0
BITMAP
002090
001A80
000000
06091C
030C70
0188D0
00DA40
00BE00
02A700
063240
1C21C0
706090
ENDCHAR
STARTCHAR uni04C2
ENCODING 1218
SWIDTH 833 0
DWIDTH 10 0
BBX 11 9 0 0
BITMAP
00C300
00A900
000000
2D31B4
062340
07BE00
099900
1C8600
A4C290
ENDCHAR
STARTCHAR uni04C3
ENCODING 1219
SWIDTH 628 0
DWIDTH 8 0
BBX 8 12 0 -3
BITMAP
0909
0C24
1890
1A40
2F90
2470
3024
6028
6024
0030
00A0
2F80
ENDCHAR
STARTCHAR uni04C4
ENCODING 1220
SWIDTH 514 0
DWIDTH 6 0
BBX 6 9 0 -3
BITMAP
1860
2580
3600
3A40
60D0
9090
00D0
0180
3E00
ENDCHAR
STARTCHAR uni04C5
ENCODING 1221
SWIDTH 649 0
DWIDTH 8 0
BBX 9 11 -1 -2
BITMAP
00BF80
009240
00C240
018300
024300
030600
060900
090900
780E00
000500
000C00
ENDCHAR
STARTCHAR uni04C6
ENCODING 1222
SWIDTH 536 0
DWIDTH 6 0
BBX 7 8 -1 -2
BITMAP
00BC
0258
0618
0924
1C30
7478
0024
0060
ENDCHAR
STARTCHAR uni04C7
ENCODING 1223
SWIDTH 678 0
DWIDTH 8 0
BBX 8 12 0 -3
BITMAP
0903
0C03
1C06
1805
2FFD
240C
300C
6018
6024
0030
00A0
2F80
ENDCHAR
STARTCHAR uni04C8
ENCODING 1224
SWIDTH 599 0
DWIDTH 7 0
BBX 7 9 0 -3
BITMAP
1818
2414
3424
3FF0
6020
9060
0090
01C0
1E40
ENDCHAR
STARTCHAR uni04C9
ENCODING 1225
SWIDTH 684 0
DWIDTH 8 0
BBX 8 11 0 -2
BITMAP
0903
0C03
1C06
1805
2FFD
240C
300C
6018
602D
0008
0024
ENDCHAR
STARTCHAR uni04CA
ENCODING 1226
SWIDTH 599 0
DWIDTH 7 0
BBX 7 8 0 -2
BITMAP
1818
2414
3424
3FF0
6020
9074
0020
0050
ENDCHAR
STARTCHAR uni04CB
ENCODING 1227
SWIDTH 639 0
DWIDTH 8 0
BBX 7 11 1 -2
BITMAP
3018
3024
6024
6030
6060
2EA0
0090
0090
02C0
0300
0600
ENDCHAR
STARTCHAR uni04CC
ENCODING 1228
SWIDTH 578 0
DWIDTH 7 0
BBX 6 8 1 -2
BITMAP
6090
90D0
92C0
6980
0180
0740
0900
0C00
ENDCHAR
STARTCHAR uni04CD
ENCODING 1229
SWIDTH 841 0
DWIDTH 10 0
BBX 10 11 0 -2
BITMAP
0A00B0
0F01E0
1A02A0
1A0690
264890
2158C0
31A180
61E180
60C2D0
000080
000240
ENDCHAR
STARTCHAR uni04CE
ENCODING 1230
SWIDTH 688 0
DWIDTH 8 0
BBX 8 8 0 -2
BITMAP
1C0A
2C1E
2929
2558
668C
931D
0008
0018
ENDCHAR
STARTCHAR uni04CF
ENCODING 1231
SWIDTH 272 0
DWIDTH 3 0
BBX 4 9 0 0
BITMAP
09
0C
18
18
24
24
30
60
60
ENDCHAR
STARTCHAR uni04D0
ENCODING 1232
SWIDTH 555 0
DWIDTH 7 0
BBX 8 12 -1 0
BITMAP
0083
00A9
0000
0070
00A4
01A4
0224
0618
0FF8
1818
300C
600C
ENDCHAR
STARTCHAR uni04D1
ENCODING 1233
SWIDTH 564 0
DWIDTH 7 0
BBX 7 9 0 0
BITMAP
0518
02A0
0000
0B94
2834
3030
6060
60E0
2A90
ENDCHAR
STARTCHAR uni04D2
ENCODING 1234
SWIDTH 555 0
DWIDTH 7 0
BBX 7 11 -1 0
BITMAP
0088
0000
0070
00A4
01A4
0224
0618
0FF8
1818
300C
600C
ENDCHAR
STARTCHAR uni04D3
ENCODING 1235
SWIDTH 564 0
DWIDTH 7 0
BBX 7 8 0 0
BITMAP
0620
0000
0B94
2834
3030
6060
60E0
2A90
ENDCHAR
STARTCHAR uni04D4
ENCODING 1236
SWIDTH 816 0
DWIDTH 10 0
BBX 12 9 -1 0
BITMAP
002FFD
003600
009900
018900
030FF4
0BFC00
181800
242400
602FE0
ENDCHAR
STARTCHAR uni04D5
ENCODING 1237
SWIDTH 814 0
DWIDTH 10 0
BBX 10 6 0 0
BITMAP
0BAAC0
287890
307190
60BA40
61E000
29AA80
ENDCHAR
STARTCHAR uni04D6
ENCODING 1238
SWIDTH 511 0
DWIDTH 6 0
BBX 7 12 0 0
BITMAP
0608
02A4
0000
0BF4
0C00
1800
1800
2FD0
2400
3000
6000
7F80
ENDCHAR
STARTCHAR uni04D7
ENCODING 1239
SWIDTH 493 0
DWIDTH 6 0
BBX 6 9 0 0
BITMAP
0C30
0A90
0000
0BD0
28A0
7190
7A40
6000
2E80
ENDCHAR
STARTCHAR uni04D8
ENCODING 1240
SWIDTH 661 0
DWIDTH 8 0
BBX 8 9 0 0
BITMAP
0BE4
041C
0009
000A
0AFD
340C
6018
6070
2F80
ENDCHAR
STARTCHAR uni04D9
ENCODING 1241
SWIDTH 493 0
DWIDTH 6 0
BBX 6 6 0 0
BITMAP
2B80
00D0
0090
2AC0
A180
7E00
ENDCHAR
STARTCHAR uni04DA
ENCODING 1242
SWIDTH 661 0
DWIDTH 8 0
BBX 8 11 0 0
BITMAP
0154
0000
0BE4
041C
0009
000A
0AFD
340C
6018
6070
2F80
ENDCHAR
STARTCHAR uni04DB
ENCODING 1243
SWIDTH 493 0
DWIDTH 6 0
BBX 6 8 0 0
BITMAP
0880
0000
2B80
00D0
0090
2AC0
A180
7E00
ENDCHAR
STARTCHAR uni04DC
ENCODING 1244
SWIDTH 775 0
DWIDTH 9 0
BBX 11 11 -1 0
BITMAP
001580
000000
06091C
030C70
0188D0
00DA40
00BE00
02A700
063240
1C21C0
706090
ENDCHAR
STARTCHAR uni04DD
ENCODING 1245
SWIDTH 833 0
DWIDTH 10 0
BBX 11 8 0 0
BITMAP
005500
000000
2D31B4
062340
07BE00
099900
1C8600
A4C290
ENDCHAR
STARTCHAR uni04DE
ENCODING 1246
SWIDTH 532 0
DWIDTH 6 0
BBX 6 11 0 0
BITMAP
0220
0000
1AD0
1430
0030
00A0
1F80
0090
0060
4090
BE40
ENDCHAR
STARTCHAR uni04DF
ENCODING 1247
SWIDTH 436 0
DWIDTH 5 0
BBX 5 8 0 0
BITMAP
0880
0000
2F40
01C0
0180
1F00
0240
AA00
ENDCHAR
STARTCHAR uni04E0
ENCODING 1248
SWIDTH 525 0
DWIDTH 6 0
BBX 7 9 0 0
BITMAP
1FF4
00A0
0180
0600
0B80
0090
00A0
40D0
BE40
ENDCHAR
STARTCHAR uni04E1
ENCODING 1249
SWIDTH 456 0
DWIDTH 5 0
BBX 7 9 -1 -3
BITMAP
0FF4
0090
0180
0600
0B80
0090
0090
01C0
BA40
ENDCHAR
STARTCHAR uni04E2
ENCODING 1250
SWIDTH 696 0
DWIDTH 8 0
BBX 9 11 0 0
BITMAP
00A800
000000
090340
0C0B00
182700
186600
248600
264900
390800
780C00
701800
ENDCHAR
STARTCHAR uni04E3
ENCODING 1251
SWIDTH 577 0
DWIDTH 7 0
BBX 7 8 0 0
BITMAP
06A0
0000
1824
2424
3030
2060
60E0
2A90
ENDCHAR
STARTCHAR uni04E4
ENCODING 1252
SWIDTH 696 0
DWIDTH 8 0
BBX 9 11 0 0
BITMAP
008800
000000
090340
0C0B00
182700
186600
248600
264900
390800
780C00
701800
ENDCHAR
STARTCHAR uni04E5
ENCODING 1253
SWIDTH 577 0
DWIDTH 7 0
BBX 7 8 0 0
BITMAP
0620
0000
1824
2424
3030
2060
60E0
2A90
ENDCHAR
STARTCHAR uni04E6
ENCODING 1254
SWIDTH 720 0
DWIDTH 9 0
BBX 8 11 1 0
BITMAP
0220
0000
0BE0
2828
600C
9009
C00D
C00C
C028
A070
2F80
ENDCHAR
STARTCHAR uni04E7
ENCODING 1255
SWIDTH 561 0
DWIDTH 7 0
BBX 6 8 0 0
BITMAP
0560
0000
0B90
2430
6030
6030
60A0
2E80
ENDCHAR
STARTCHAR uni04E8
ENCODING 1256
SWIDTH 720 0
DWIDTH 9 0
BBX 8 9 1 0
BITMAP
0BE0
2828
600C
9009
FFFD
C00C
C028
A070
2F80
ENDCHAR
STARTCHAR uni04E9
ENCODING 1257
SWIDTH 561 0
DWIDTH 7 0
BBX 6 6 0 0
BITMAP
0BD0
2830
7030
7FF0
6050
2A80
ENDCHAR
STARTCHAR uni04EA
ENCODING 1258
SWIDTH 720 0
DWIDTH 9 0
BBX 8 11 1 0
BITMAP
0220
0000
0BE0
2828
600C
9009
FFFD
C00C
C028
A070
2F80
ENDCHAR
STARTCHAR uni04EB
ENCODING 1259
SWIDTH 561 0
DWIDTH 7 0
BBX 6 8 0 0
BITMAP
0560
0000
0BD0
2830
7030
7FF0
6050
2A80
ENDCHAR
STARTCHAR uni04EC
ENCODING 1260
SWIDTH 584 0
DWIDTH 7 0
BBX 7 11 0 0
BITMAP
0620
0000
1FD0
0074
0028
0018
0FF8
0024
0030
4190
BE40
ENDCHAR
STARTCHAR uni04ED
ENCODING 1261
SWIDTH 456 0
DWIDTH 5 0
BBX 5 8 0 0
BITMAP
1880
0000
2A40
0180
00C0
2F80
0240
B900
ENDCHAR
STARTCHAR uni04EE
ENCODING 1262
SWIDTH 571 0
DWIDTH 7 0
BBX 8 11 0 0
BITMAP
02A4
0000
2406
180C
0C24
0970
0590
0780
0300
0900
F400
ENDCHAR
STARTCHAR uni04EF
ENCODING 1263
SWIDTH 461 0
DWIDTH 6 0
BBX 7 11 -1 -3
BITMAP
02A0
0000
1818
1824
0C60
0CC0
0980
0B00
0900
1800
A000
ENDCHAR
STARTCHAR uni04F0
ENCODING 1264
SWIDTH 571 0
DWIDTH 7 0
BBX 8 11 0 0
BITMAP
0220
0000
2406
180C
0C24
0970
0590
0780
0300
0900
F400
ENDCHAR
STARTCHAR uni04F1
ENCODING 1265
SWIDTH 461 0
DWIDTH 6 0
BBX 7 11 -1 -3
BITMAP
0220
0000
1818
1824
0C60
0CC0
0980
0B00
0900
1800
A000
ENDCHAR
STARTCHAR uni04F2
ENCODING 1266
SWIDTH 571 0
DWIDTH 7 0
BBX 8 12 0 0
BITMAP
0099
0264
0000
2406
180C
0C24
0970
0590
0780
0300
0900
F400
ENDCHAR
STARTCHAR uni04F3
ENCODING 1267
SWIDTH 461 0
DWIDTH 6 0
BBX 7 12 -1 -3
BITMAP
0098
0220
0000
1818
1824
0C60
0CC0
0980
0B00
0900
1800
A000
ENDCHAR
STARTCHAR uni04F4
ENCODING 1268
SWIDTH 639 0
DWIDTH 8 0
BBX 7 11 1 0
BITMAP
0560
0000
3018
3024
6024
6030
6060
2EA0
0090
0090
00C0
ENDCHAR
STARTCHAR uni04F5
ENCODING 1269
SWIDTH 555 0
DWIDTH 7 0
BBX 6 8 1 0
BITMAP
1540
0000
9090
C1C0
C680
6A80
0240
0300
ENDCHAR
STARTCHAR uni04F6
ENCODING 1270
SWIDTH 476 0
DWIDTH 6 0
BBX 7 11 0 -2
BITMAP
0BF4
0C00
1800
1800
2400
2400
3000
6000
7400
2400
3000
ENDCHAR
STARTCHAR uni04F7
ENCODING 1271
SWIDTH 382 0
DWIDTH 5 0
BBX 5 8 0 -2
BITMAP
1F80
2400
3000
3000
6000
B400
3000
6000
ENDCHAR
STARTCHAR uni04F8
ENCODING 1272
SWIDTH 786 0
DWIDTH 9 0
BBX 10 11 0 0
BITMAP
005500
000000
090090
0C0090
1C00C0
180180
2F9180
246240
303240
60A300
7E8600
ENDCHAR
STARTCHAR uni04F9
ENCODING 1273
SWIDTH 721 0
DWIDTH 9 0
BBX 9 8 0 0
BITMAP
015400
000000
180240
240300
3B8600
209500
70C900
2E4C00
ENDCHAR
STARTCHAR uni04FA
ENCODING 1274
SWIDTH 471 0
DWIDTH 6 0
BBX 7 11 0 -2
BITMAP
0BF4
0C00
1800
1800
7F40
2400
3000
6000
7400
2400
A000
ENDCHAR
STARTCHAR uni04FB
ENCODING 1275
SWIDTH 382 0
DWIDTH 5 0
BBX 5 8 0 -2
BITMAP
1F80
2400
2400
B900
6000
B400
2000
E000
ENDCHAR
STARTCHAR uni04FC
ENCODING 1276
SWIDTH 508 0
DWIDTH 6 0
BBX 8 11 -1 -2
BITMAP
0606
030C
0264
01E0
01C0
0390
0960
2830
602C
0008
0074
ENDCHAR
STARTCHAR uni04FD
ENCODING 1277
SWIDTH 469 0
DWIDTH 6 0
BBX 6 8 0 -2
BITMAP
24A0
1980
0A00
1E00
2300
91C0
0080
0380
ENDCHAR
STARTCHAR uni04FE
ENCODING 1278
SWIDTH 519 0
DWIDTH 6 0
BBX 8 9 -1 0
BITMAP
0606
020D
0224
01A0
0FF8
0290
0960
1830
6024
ENDCHAR
STARTCHAR uni04FF
ENCODING 1279
SWIDTH 478 0
DWIDTH 6 0
BBX 6 6 0 0
BITMAP
34A0
19C0
0F00
6F80
2200
9180
ENDCHAR
STARTCHAR uni0500
ENCODING 1280
SWIDTH 565 0
DWIDTH 7 0
BBX 7 9 0 0
BITMAP
0018
0018
0024
0030
1BF0
3460
6060
6090
2FC0
ENDCHAR
STARTCHAR uni0501
ENCODING 1281
SWIDTH 577 0
DWIDTH 7 0
BBX 7 9 0 0
BITMAP
000C
0008
0018
0AA4
2434
7030
6060
60E0
2A90
ENDCHAR
STARTCHAR uni0502
ENCODING 1282
SWIDTH 831 0
DWIDTH 10 0
BBX 10 9 0 0
BITMAP
001800
001800
002400
002400
0BF090
3460C0
6060C0
60A280
2E6E00
ENDCHAR
STARTCHAR uni0503
ENCODING 1283
SWIDTH 850 0
DWIDTH 10 0
BBX 10 9 0 0
BITMAP
000C00
000800
001800
0BA400
243000
703090
6060C0
60E180
2A2A40
ENDCHAR
STARTCHAR uni0504
ENCODING 1284
SWIDTH 837 0
DWIDTH 10 0
BBX 9 9 1 0
BITMAP
6B8000
10D000
009000
018000
7E0240
024340
028300
028600
00B800
ENDCHAR
STARTCHAR uni0505
ENCODING 1285
SWIDTH 743 0
DWIDTH 9 0
BBX 7 6 1 0
BITMAP
BD00
0600
0A0C
7818
0928
07A0
ENDCHAR
STARTCHAR uni0506
ENCODING 1286
SWIDTH 569 0
DWIDTH 7 0
BBX 6 11 1 -2
BITMAP
6B80
10D0
0090
0280
6E00
0240
0180
0240
02C0
00C0
0180
ENDCHAR
STARTCHAR uni0507
ENCODING 1287
SWIDTH 470 0
DWIDTH 6 0
BBX 4 8 1 -2
BITMAP
BD
06
0A
78
09
0A
06
06
ENDCHAR
STARTCHAR uni0508
ENCODING 1288
SWIDTH 895 0
DWIDTH 11 0
BBX 11 9 -1 0
BITMAP
00BF40
009240
00C300
018600
02460C
030918
060918
090924
7807E0
ENDCHAR
STARTCHAR uni0509
ENCODING 1289
SWIDTH 806 0
DWIDTH 10 0
BBX 10 6 -1 0
BITMAP
00BC00
025800
061860
092460
1C2490
741E80
ENDCHAR
STARTCHAR uni050A
ENCODING 1290
SWIDTH 953 0
DWIDTH 11 0
BBX 11 9 0 0
BITMAP
090300
0C0300
1C0600
180500
2FFD18
240C24
300C24
600C30
600BD0
ENDCHAR
STARTCHAR uni050B
ENCODING 1291
SWIDTH 867 0
DWIDTH 10 0
BBX 10 6 0 0
BITMAP
181800
241400
342460
3FF090
6030C0
902E40
ENDCHAR
STARTCHAR uni050C
ENCODING 1292
SWIDTH 695 0
DWIDTH 8 0
BBX 7 9 1 0
BITMAP
07F8
2804
6000
9000
C1FC
C018
C024
A070
2F80
ENDCHAR
STARTCHAR uni050D
ENCODING 1293
SWIDTH 588 0
DWIDTH 7 0
BBX 7 6 0 0
BITMAP
0AA4
2800
6000
61B4
6030
1A90
ENDCHAR
STARTCHAR uni050E
ENCODING 1294
SWIDTH 658 0
DWIDTH 8 0
BBX 6 9 1 0
BITMAP
BFF0
0900
0C00
0C00
1820
1830
2460
2490
1F80
ENDCHAR
STARTCHAR uni050F
ENCODING 1295
SWIDTH 586 0
DWIDTH 7 0
BBX 7 6 0 0
BITMAP
7FC0
0C00
0C24
1830
1860
0B80
ENDCHAR
STARTCHAR uni0510
ENCODING 1296
SWIDTH 539 0
DWIDTH 6 0
BBX 7 9 0 0
BITMAP
06A4
0D04
0C00
0900
0BD0
3400
7000
3000
1E90
ENDCHAR
STARTCHAR uni0511
ENCODING 1297
SWIDTH 444 0
DWIDTH 5 0
BBX 6 6 0 0
BITMAP
1AD0
2400
1E00
6000
9000
2A40
ENDCHAR
STARTCHAR uni0512
ENCODING 1298
SWIDTH 633 0
DWIDTH 8 0
BBX 9 11 -1 -2
BITMAP
00BF80
009240
00C240
018300
024300
030600
060900
090900
780E00
000600
001D00
ENDCHAR
STARTCHAR uni0513
ENCODING 1299
SWIDTH 526 0
DWIDTH 6 0
BBX 7 8 -1 -2
BITMAP
00BC
0258
0618
0924
1C30
7474
0014
00B0
ENDCHAR
STARTCHAR uni1E00
ENCODING 7680
SWIDTH 555 0
DWIDTH 7 0
BBX 7 12 -1 -3
BITMAP
0070
00A4
01A4
0224
0618
0FF8
1818
300C
600C
0000
0680
0680
ENDCHAR
STARTCHAR uni1E01
ENCODING 7681
SWIDTH 564 0
DWIDTH 7 0
BBX 7 9 0 -3
BITMAP
0B94
2834
3030
6060
60E0
2A90
0000
1A00
1A00
ENDCHAR
STARTCHAR uni1E3E
ENCODING 7742
SWIDTH 836 0
DWIDTH 10 0
BBX 10 12 0 0
BITMAP
000600
000800
000000
0A00B0
0F01E0
1A02A0
1A0690
264890
2158C0
31A180
61E180
60C240
ENDCHAR
STARTCHAR uni1E3F
ENCODING 7743
SWIDTH 872 0
DWIDTH 10 0
BBX 10 9 0 0
BITMAP
000600
001800
000000
1AE6D0
283860
343060
306090
609080
9090C0
ENDCHAR
STARTCHAR Wgrave
ENCODING 7808
SWIDTH 852 0
DWIDTH 10 0
BBX 10 12 1 0
BITMAP
00C000
006000
000000
906030
90B060
91B0D0
923180
963240
592300
682900
742C00
702800
ENDCHAR
STARTCHAR wgrave
ENCODING 7809
SWIDTH 716 0
DWIDTH 9 0
BBX 9 9 0 0
BITMAP
018000
009000
000000
60D180
619240
626600
656900
286800
343400
ENDCHAR
STARTCHAR Wacute
ENCODING 7810
SWIDTH 852 0
DWIDTH 10 0
BBX 10 12 1 0
BITMAP
000C00
002400
000000
906030
90B060
91B0D0
923180
963240
592300
682900
742C00
702800
ENDCHAR
STARTCHAR wacute
ENCODING 7811
SWIDTH 716 0
DWIDTH 9 0
BBX 9 9 0 0
BITMAP
001800
006000
000000
60D180
619240
626600
656900
286800
343400
ENDCHAR
STARTCHAR Wdieresis
ENCODING 7812
SWIDTH 852 0
DWIDTH 10 0
BBX 10 11 1 0
BITMAP
008800
000000
906030
90B060
91B0D0
923180
963240
592300
682900
742C00
702800
ENDCHAR
STARTCHAR wdieresis
ENCODING 7813
SWIDTH 716 0
DWIDTH 9 0
BBX 9 8 0 0
BITMAP
015400
000000
60D180
619240
626600
656900
286800
343400
ENDCHAR
STARTCHAR uni1EA0
ENCODING 7840
SWIDTH 555 0
DWIDTH 7 0
BBX 7 11 -1 -2
BITMAP
0070
00A4
01A4
0224
0618
0FF8
1818
300C
600C
0000
0200
ENDCHAR
STARTCHAR uni1EA1
ENCODING 7841
SWIDTH 564 0
DWIDTH 7 0
BBX 7 8 0 -2
BITMAP
0B94
2834
3030
6060
60E0
2A90
0000
0800
ENDCHAR
STARTCHAR uni1EA2
ENCODING 7842
SWIDTH 555 0
DWIDTH 7 0
BBX 7 13 -1 0
BITMAP
0028
0018
0020
0000
0070
00A4
01A4
0224
0618
0FF8
1818
300C
600C
ENDCHAR
STARTCHAR uni1EA3
ENCODING 7843
SWIDTH 564 0
DWIDTH 7 0
BBX 7 10 0 0
BITMAP
0090
0060
0180
0000
0B94
2834
3030
6060
60E0
2A90
ENDCHAR
STARTCHAR uni1EA4
ENCODING 7844
SWIDTH 555 0
DWIDTH 7 0
BBX 9 12 -1 0
BITMAP
000140
006800
000000
007000
00A400
01A400
022400
061800
0FF800
181800
300C00
600C00
ENDCHAR
STARTCHAR uni1EA5
ENCODING 7845
SWIDTH 564 0
DWIDTH 7 0
BBX 8 9 0 0
BITMAP
0009
0290
0000
0B94
2834
3030
6060
60E0
2A90
ENDCHAR
STARTCHAR uni1EA6
ENCODING 7846
SWIDTH 555 0
DWIDTH 7 0
BBX 7 12 -1 0
BITMAP
0200
0068
0000
0070
00A4
01A4
0224
0618
0FF8
1818
300C
600C
ENDCHAR
STARTCHAR uni1EA7
ENCODING 7847
SWIDTH 564 0
DWIDTH 7 0
BBX 7 9 0 0
BITMAP
0800
0290
0000
0B94
2834
3030
6060
60E0
2A90
ENDCHAR
STARTCHAR uni1EA8
ENCODING 7848
SWIDTH 555 0
DWIDTH 7 0
BBX 9 13 -1 0
BITMAP
000240
003A40
008800
000000
007000
00A400
01A400
022400
061800
0FF800
181800
300C00
600C00
ENDCHAR
STARTCHAR uni1EA9
ENCODING 7849
SWIDTH 564 0
DWIDTH 7 0
BBX 7 10 0 0
BITMAP
0008
01D8
0520
0000
0B94
2834
3030
6060
60E0
2A90
ENDCHAR
STARTCHAR uni1EAA
ENCODING 7850
SWIDTH 555 0
DWIDTH 7 0
BBX 8 13 -1 0
BITMAP
0066
00BD
0088
0000
0070
00A4
01A4
0224
0618
0FF8
1818
300C
600C
ENDCHAR
STARTCHAR uni1EAB
ENCODING 7851
SWIDTH 564 0
DWIDTH 7 0
BBX 7 10 0 0
BITMAP
0288
06F4
0520
0000
0B94
2834
3030
6060
60E0
2A90
ENDCHAR
STARTCHAR uni1EAC
ENCODING 7852
SWIDTH 555 0
DWIDTH 7 0
BBX 7 14 -1 -2
BITMAP
0038
0088
0000
0070
00A4
01A4
0224
0618
0FF8
1818
300C
600C
0000
0200
ENDCHAR
STARTCHAR uni1EAD
ENCODING 7853
SWIDTH 564 0
DWIDTH 7 0
BBX 7 11 0 -2
BITMAP
01C0
0660
0000
0B94
2834
3030
6060
60E0
2A90
0000
0800
ENDCHAR
STARTCHAR uni1EAE
ENCODING 7854
SWIDTH 555 0
DWIDTH 7 0
BBX 8 13 -1 0
BITMAP
0018
0085
0068
0000
0070
00A4
01A4
0224
0618
0FF8
1818
300C
600C
ENDCHAR
STARTCHAR uni1EAF
ENCODING 7855
SWIDTH 564 0
DWIDTH 7 0
BBX 7 10 0 0
BITMAP
0050
0520
0290
0000
0B94
2834
3030
6060
60E0
2A90
ENDCHAR
STARTCHAR uni1EB0
ENCODING 7856
SWIDTH 555 0
DWIDTH 7 0
BBX 8 13 -1 0
BITMAP
0020
0085
0068
0000
0070
00A4
01A4
0224
0618
0FF8
1818
300C
600C
ENDCHAR
STARTCHAR uni1EB1
ENCODING 7857
SWIDTH 564 0
DWIDTH 7 0
BBX 7 10 0 0
BITMAP
0140
0520
0290
0000
0B94
2834
3030
6060
60E0
2A90
ENDCHAR
STARTCHAR uni1EB2
ENCODING 7858
SWIDTH 555 0
DWIDTH 7 0
BBX 8 13 -1 0
BITMAP
0018
0099
0068
0000
0070
00A4
01A4
0224
0618
0FF8
1818
300C
600C
ENDCHAR
STARTCHAR uni1EB3
ENCODING 7859
SWIDTH 564 0
DWIDTH 7 0
BBX 7 10 0 0
BITMAP
0090
05B0
0290
0000
0B94
2834
3030
6060
60E0
2A90
ENDCHAR
STARTCHAR uni1EB4
ENCODING 7860
SWIDTH 555 0
DWIDTH 7 0
BBX 8 13 -1 0
BITMAP
00A9
0085
0068
0000
0070
00A4
01A4
0224
0618
0FF8
1818
300C
600C
ENDCHAR
STARTCHAR uni1EB5
ENCODING 7861
SWIDTH 564 0
DWIDTH 7 0
BBX 7 10 0 0
BITMAP
02A4
0520
0290
0000
0B94
2834
3030
6060
60E0
2A90
ENDCHAR
STARTCHAR uni1EB6
ENCODING 7862
SWIDTH 555 0
DWIDTH 7 0
BBX 8 14 -1 -2
BITMAP
0085
0078
0000
0070
00A4
01A4
0224
0618
0FF8
1818
300C
600C
0000
0200
ENDCHAR
STARTCHAR uni1EB7
ENCODING 7863
SWIDTH 564 0
DWIDTH 7 0
BBX 7 11 0 -2
BITMAP
0620
02D0
0000
0B94
2834
3030
6060
60E0
2A90
0000
0800
ENDCHAR
STARTCHAR uni1EB8
ENCODING 7864
SWIDTH 511 0
DWIDTH 6 0
BBX 7 11 0 -2
BITMAP
0BF4
0C00
1800
1800
2FD0
2400
3000
6000
7F80
0000
0800
ENDCHAR
STARTCHAR uni1EB9
ENCODING 7865
SWIDTH 493 0
DWIDTH 6 0
BBX 6 8 0 -2
BITMAP
0BD0
28A0
7190
7A40
6000
2E80
0000
1800
ENDCHAR
STARTCHAR uni1EBA
ENCODING 7866
SWIDTH 511 0
DWIDTH 6 0
BBX 7 13 0 0
BITMAP
00A0
0060
0080
0000
0BF4
0C00
1800
1800
2FD0
2400
3000
6000
7F80
ENDCHAR
STARTCHAR uni1EBB
ENCODING 7867
SWIDTH 493 0
DWIDTH 6 0
BBX 6 10 0 0
BITMAP
0190
0090
0240
0000
0BD0
28A0
7190
7A40
6000
2E80
ENDCHAR
STARTCHAR uni1EBC
ENCODING 7868
SWIDTH 511 0
DWIDTH 6 0
BBX 7 12 0 0
BITMAP
0288
0574
0000
0BF4
0C00
1800
1800
2FD0
2400
3000
6000
7F80
ENDCHAR
STARTCHAR uni1EBD
ENCODING 7869
SWIDTH 493 0
DWIDTH 6 0
BBX 6 9 0 0
BITMAP
0A20
0590
0000
0BD0
28A0
7190
7A40
6000
2E80
ENDCHAR
STARTCHAR uni1EBE
ENCODING 7870
SWIDTH 511 0
DWIDTH 6 0
BBX 8 12 0 0
BITMAP
0005
01A0
0000
0BF4
0C00
1800
1800
2FD0
2400
3000
6000
7F80
ENDCHAR
STARTCHAR uni1EBF
ENCODING 7871
SWIDTH 493 0
DWIDTH 6 0
BBX 7 9 0 0
BITMAP
0018
0690
0000
0BD0
28A0
7190
7A40
6000
2E80
ENDCHAR
STARTCHAR uni1EC0
ENCODING 7872
SWIDTH 511 0
DWIDTH 6 0
BBX 7 12 0 0
BITMAP
0800
01A0
0000
0BF4
0C00
1800
1800
2FD0
2400
3000
6000
7F80
ENDCHAR
STARTCHAR uni1EC1
ENCODING 7873
SWIDTH 493 0
DWIDTH 6 0
BBX 6 9 0 0
BITMAP
1400
0690
0000
0BD0
28A0
7190
7A40
6000
2E80
ENDCHAR
STARTCHAR uni1EC2
ENCODING 7874
SWIDTH 511 0
DWIDTH 6 0
BBX 8 13 0 0
BITMAP
0009
00E9
0220
0000
0BF4
0C00
1800
1800
2FD0
2400
3000
6000
7F80
ENDCHAR
STARTCHAR uni1EC3
ENCODING 7875
SWIDTH 493 0
DWIDTH 6 0
BBX 7 10 0 0
BITMAP
0018
02D4
0550
0000
0BD0
28A0
7190
7A40
6000
2E80
ENDCHAR
STARTCHAR uni1EC4
ENCODING 7876
SWIDTH 511 0
DWIDTH 6 0
BBX 7 13 0 0
BITMAP
0198
02F4
0220
0000
0BF4
0C00
1800
1800
2FD0
2400
3000
6000
7F80
ENDCHAR
STARTCHAR uni1EC5
ENCODING 7877
SWIDTH 493 0
DWIDTH 6 0
BBX 7 10 0 0
BITMAP
0694
06E0
0550
0000
0BD0
28A0
7190
7A40
6000
2E80
ENDCHAR
STARTCHAR uni1EC6
ENCODING 7878
SWIDTH 511 0
DWIDTH 6 0
BBX 7 14 0 -2
BITMAP
00E0
0220
0000
0BF4
0C00
1800
1800
2FD0
2400
3000
6000
7F80
0000
0800
ENDCHAR
STARTCHAR uni1EC7
ENCODING 7879
SWIDTH 493 0
DWIDTH 6 0
BBX 6 11 0 -2
BITMAP
02C0
0950
0000
0BD0
28A0
7190
7A40
6000
2E80
0000
1800
ENDCHAR
STARTCHAR uni1EC8
ENCODING 7880
SWIDTH 272 0
DWIDTH 3 0
BBX 5 13 0 0
BITMAP
0640
0240
0500
0000
0900
0C00
1800
1800
2400
2400
3000
6000
6000
ENDCHAR
STARTCHAR uni1EC9
ENCODING 7881
SWIDTH 253 0
DWIDTH 3 0
BBX 4 10 0 0
BITMAP
0A
06
08
00
18
24
30
30
60
90
ENDCHAR
STARTCHAR uni1ECA
ENCODING 7882
SWIDTH 272 0
DWIDTH 3 0
BBX 4 11 0 -2
BITMAP
09
0C
18
18
24
24
30
60
60
00
80
ENDCHAR
STARTCHAR uni1ECB
ENCODING 7883
SWIDTH 253 0
DWIDTH 3 0
BBX 3 10 0 -2
BITMAP
08
04
18
24
30
30
60
90
00
80
ENDCHAR
STARTCHAR uni1ECC
ENCODING 7884
SWIDTH 720 0
DWIDTH 9 0
BBX 8 11 1 -2
BITMAP
0BE0
2828
600C
9009
C00D
C00C
C028
A070
2F80
0000
0800
ENDCHAR
STARTCHAR uni1ECD
ENCODING 7885
SWIDTH 561 0
DWIDTH 7 0
BBX 6 8 0 -2
BITMAP
0B90
2430
6030
6030
60A0
2E80
0000
0800
ENDCHAR
STARTCHAR uni1ECE
ENCODING 7886
SWIDTH 720 0
DWIDTH 9 0
BBX 8 13 1 0
BITMAP
00A0
0060
0080
0000
0BE0
2828
600C
9009
C00D
C00C
C028
A070
2F80
ENDCHAR
STARTCHAR uni1ECF
ENCODING 7887
SWIDTH 561 0
DWIDTH 7 0
BBX 6 10 0 0
BITMAP
0190
0090
0140
0000
0B90
2430
6030
6030
60A0
2E80
ENDCHAR
STARTCHAR uni1ED0
ENCODING 7888
SWIDTH 720 0
DWIDTH 9 0
BBX 8 12 1 0
BITMAP
0009
01A0
0000
0BE0
2828
600C
9009
C00D
C00C
C028
A070
2F80
ENDCHAR
STARTCHAR uni1ED1
ENCODING 7889
SWIDTH 561 0
DWIDTH 7 0
BBX 7 9 0 0
BITMAP
0018
0690
0000
0B90
2430
6030
6030
60A0
2E80
ENDCHAR
STARTCHAR uni1ED2
ENCODING 7890
SWIDTH 720 0
DWIDTH 9 0
BBX 8 12 1 0
BITMAP
0800
01A0
0000
0BE0
2828
600C
9009
C00D
C00C
C028
A070
2F80
ENDCHAR
STARTCHAR uni1ED3
ENCODING 7891
SWIDTH 561 0
DWIDTH 7 0
BBX 6 9 0 0
BITMAP
1400
0690
0000
0B90
2430
6030
6030
60A0
2E80
ENDCHAR
STARTCHAR uni1ED4
ENCODING 7892
SWIDTH 720 0
DWIDTH 9 0
BBX 8 13 1 0
BITMAP
0009
01D8
0620
0000
0BE0
2828
600C
9009
C00D
C00C
C028
A070
2F80
ENDCHAR
STARTCHAR uni1ED5
ENCODING 7893
SWIDTH 561 0
DWIDTH 7 0
BBX 7 10 0 0
BITMAP
0018
02D4
0550
0000
0B90
2430
6030
6030
60A0
2E80
ENDCHAR
STARTCHAR uni1ED6
ENCODING 7894
SWIDTH 720 0
DWIDTH 9 0
BBX 8 13 1 0
BITMAP
0288
02F4
0620
0000
0BE0
2828
600C
9009
C00D
C00C
C028
A070
2F80
ENDCHAR
STARTCHAR uni1ED7
ENCODING 7895
SWIDTH 561 0
DWIDTH 7 0
BBX 7 10 0 0
BITMAP
0298
06E0
0550
0000
0B90
2430
6030
6030
60A0
2E80
ENDCHAR
STARTCHAR uni1ED8
ENCODING 7896
SWIDTH 720 0
DWIDTH 9 0
BBX 8 14 1 -2
BITMAP
01D0
0620
0000
0BE0
2828
600C
9009
C00D
C00C
C028
A070
2F80
0000
0800
ENDCHAR
STARTCHAR uni1ED9
ENCODING 7897
SWIDTH 561 0
DWIDTH 7 0
BBX 6 11 0 -2
BITMAP
01C0
0660
0000
0B90
2430
6030
6030
60A0
2E80
0000
0800
ENDCHAR
STARTCHAR uni1EDA
ENCODING 7898
SWIDTH 713 0
DWIDTH 9 0
BBX 9 12 1 0
BITMAP
006000
008000
000000
0BE180
282E00
600C00
900900
C00D00
C00C00
C02800
A07000
2F8000
ENDCHAR
STARTCHAR uni1EDB
ENCODING 7899
SWIDTH 561 0
DWIDTH 7 0
BBX 8 9 0 0
BITMAP
00A0
0180
0006
0B99
2430
6030
6030
60A0
2E80
ENDCHAR
STARTCHAR uni1EDC
ENCODING 7900
SWIDTH 713 0
DWIDTH 9 0
BBX 9 12 1 0
BITMAP
024000
008000
000000
0BE180
282E00
600C00
900900
C00D00
C00C00
C02800
A07000
2F8000
ENDCHAR
STARTCHAR uni1EDD
ENCODING 7901
SWIDTH 561 0
DWIDTH 7 0
BBX 8 9 0 0
BITMAP
0300
0140
0006
0B99
2430
6030
6030
60A0
2E80
ENDCHAR
STARTCHAR uni1EDE
ENCODING 7902
SWIDTH 713 0
DWIDTH 9 0
BBX 9 13 1 0
BITMAP
00A000
006000
008000
000000
0BE180
282E00
600C00
900900
C00D00
C00C00
C02800
A07000
2F8000
ENDCHAR
STARTCHAR uni1EDF
ENCODING 7903
SWIDTH 561 0
DWIDTH 7 0
BBX 8 10 0 0
BITMAP
0190
0090
0140
0006
0B99
2430
6030
6030
60A0
2E80
ENDCHAR
STARTCHAR uni1EE0
ENCODING 7904
SWIDTH 713 0
DWIDTH 9 0
BBX 9 12 1 0
BITMAP
034400
08A000
000000
0BE180
282E00
600C00
900900
C00D00
C00C00
C02800
A07000
2F8000
ENDCHAR
STARTCHAR uni1EE1
ENCODING 7905
SWIDTH 561 0
DWIDTH 7 0
BBX 8 9 0 0
BITMAP
0754
08A0
0006
0B99
2430
6030
6030
60A0
2E80
ENDCHAR
STARTCHAR uni1EE2
ENCODING 7906
SWIDTH 713 0
DWIDTH 9 0
BBX 9 11 1 -2
BITMAP
0BE180
282E00
600C00
900900
C00D00
C00C00
C02800
A07000
2F8000
000000
080000
ENDCHAR
STARTCHAR uni1EE3
ENCODING 7907
SWIDTH 561 0
DWIDTH 7 0
BBX 8 9 0 -2
BITMAP
0006
0B99
2430
6030
6030
60A0
2E80
0000
0800
ENDCHAR
STARTCHAR uni1EE4
ENCODING 7908
SWIDTH 675 0
DWIDTH 8 0
BBX 7 11 1 -2
BITMAP
300C
300C
6018
9018
9024
C030
C070
D090
6F40
0000
1800
ENDCHAR
STARTCHAR uni1EE5
ENCODING 7909
SWIDTH 577 0
DWIDTH 7 0
BBX 7 8 0 -2
BITMAP
1824
2424
3030
2060
60E0
2A90
0000
0900
ENDCHAR
STARTCHAR uni1EE6
ENCODING 7910
SWIDTH 675 0
DWIDTH 8 0
BBX 7 13 1 0
BITMAP
00A0
0060
0180
0000
300C
300C
6018
9018
9024
C030
C070
D090
6F40
ENDCHAR
STARTCHAR uni1EE7
ENCODING 7911
SWIDTH 577 0
DWIDTH 7 0
BBX 7 10 0 0
BITMAP
00A0
0060
0180
0000
1824
2424
3030
2060
60E0
2A90
ENDCHAR
STARTCHAR uni1EE8
ENCODING 7912
SWIDTH 722 0
DWIDTH 9 0
BBX 10 12 1 0
BITMAP
006000
008000
0000D0
300D80
300E00
601800
901800
902400
C03000
C07000
D09000
6F4000
ENDCHAR
STARTCHAR uni1EE9
ENCODING 7913
SWIDTH 617 0
DWIDTH 7 0
BBX 9 9 0 0
BITMAP
006000
008000
000180
182A00
242400
303000
606000
60E000
2A9000
ENDCHAR
STARTCHAR uni1EEA
ENCODING 7914
SWIDTH 722 0
DWIDTH 9 0
BBX 10 12 1 0
BITMAP
030000
014000
0000D0
300D80
300E00
601800
901800
902400
C03000
C07000
D09000
6F4000
ENDCHAR
STARTCHAR uni1EEB
ENCODING 7915
SWIDTH 617 0
DWIDTH 7 0
BBX 9 9 0 0
BITMAP
030000
014000
000180
182A00
242400
303000
606000
60E000
2A9000
ENDCHAR
STARTCHAR uni1EEC
ENCODING 7916
SWIDTH 722 0
DWIDTH 9 0
BBX 10 13 1 0
BITMAP
00A000
006000
008000
0000D0
300D80
300E00
601800
901800
902400
C03000
C07000
D09000
6F4000
ENDCHAR
STARTCHAR uni1EED
ENCODING 7917
SWIDTH 617 0
DWIDTH 7 0
BBX 9 10 0 0
BITMAP
00A000
006000
008000
000180
182A00
242400
303000
606000
60E000
2A9000
ENDCHAR
STARTCHAR uni1EEE
ENCODING 7918
SWIDTH 722 0
DWIDTH 9 0
BBX 10 12 1 0
BITMAP
075400
08A000
0000D0
300D80
300E00
601800
901800
902400
C03000
C07000
D09000
6F4000
ENDCHAR
STARTCHAR uni1EEF
ENCODING 7919
SWIDTH 617 0
DWIDTH 7 0
BBX 9 9 0 0
BITMAP
075400
08A000
000180
182A00
242400
303000
606000
60E000
2A9000
ENDCHAR
STARTCHAR uni1EF0
ENCODING 7920
SWIDTH 722 0
DWIDTH 9 0
BBX 10 12 1 -2
BITMAP
0000D0
300D80
300E00
601800
901800
902400
C03000
C07000
D09000
6F4000
000000
180000
ENDCHAR
STARTCHAR uni1EF1
ENCODING 7921
SWIDTH 617 0
DWIDTH 7 0
BBX 9 9 0 -2
BITMAP
000180
182A00
242400
303000
606000
60E000
2A9000
000000
090000
ENDCHAR
STARTCHAR Ygrave
ENCODING 7922
SWIDTH 502 0
DWIDTH 6 0
BBX 6 12 1 0
BITMAP
1C00
0900
0000
9060
90D0
6280
3600
2D00
2800
2400
3000
3000
ENDCHAR
STARTCHAR ygrave
ENCODING 7923
SWIDTH 461 0
DWIDTH 6 0
BBX 7 12 -1 -3
BITMAP
0240
0180
0000
1818
1824
0C60
0CC0
0980
0B00
0900
1800
A000
ENDCHAR
STARTCHAR uni1EF4
ENCODING 7924
SWIDTH 502 0
DWIDTH 6 0
BBX 6 11 1 -2
BITMAP
9060
90D0
6280
3600
2D00
2800
2400
3000
3000
0000
5000
ENDCHAR
STARTCHAR uni1EF5
ENCODING 7925
SWIDTH 461 0
DWIDTH 6 0
BBX 7 9 -1 -3
BITMAP
1818
1824
0C60
0CC0
0980
0B00
0900
1890
A000
ENDCHAR
STARTCHAR uni1EF6
ENCODING 7926
SWIDTH 502 0
DWIDTH 6 0
BBX 6 13 1 0
BITMAP
0640
0240
0500
0000
9060
90D0
6280
3600
2D00
2800
2400
3000
3000
ENDCHAR
STARTCHAR uni1EF7
ENCODING 7927
SWIDTH 461 0
DWIDTH 6 0
BBX 7 13 -1 -3
BITMAP
00A0
0060
0080
0000
1818
1824
0C60
0CC0
0980
0B00
0900
1800
A000
ENDCHAR
STARTCHAR uni1EF8
ENCODING 7928
SWIDTH 502 0
DWIDTH 6 0
BBX 6 12 1 0
BITMAP
1D50
2280
0000
9060
90D0
6280
3600
2D00
2800
2400
3000
3000
ENDCHAR
STARTCHAR uni1EF9
ENCODING 7929
SWIDTH 461 0
DWIDTH 6 0
BBX 7 12 -1 -3
BITMAP
0288
0860
0000
1818
1824
0C60
0CC0
0980
0B00
0900
1800
A000
ENDCHAR
STARTCHAR uni1F4D
ENCODING 8013
SWIDTH 778 0
DWIDTH 9 0
BBX 10 9 -1 0
BITMAP
592F80
94D090
024060
030030
060070
060060
0600D0
034280
01BE00
ENDCHAR
STARTCHAR uni2000
ENCODING 8192
SWIDTH 500 0
DWIDTH 6 0
BBX 1 1 0 0
BITMAP
00
ENDCHAR
STARTCHAR uni2001
ENCODING 8193
SWIDTH 1000 0
DWIDTH 12 0
BBX 1 1 0 0
BITMAP
00
ENDCHAR
STARTCHAR uni2002
ENCODING 8194
SWIDTH 500 0
DWIDTH 6 0
BBX 1 1 0 0
BITMAP
00
ENDCHAR
STARTCHAR uni2003
ENCODING 8195
SWIDTH 1000 0
DWIDTH 12 0
BBX 1 1 0 0
BITMAP
00
ENDCHAR
STARTCHAR uni2004
ENCODING 8196
SWIDTH 333 0
DWIDTH 4 0
BBX 1 1 0 0
BITMAP
00
ENDCHAR
STARTCHAR uni2005
ENCODING 8197
SWIDTH 250 0
DWIDTH 3 0
BBX 1 1 0 0
BITMAP
00
ENDCHAR
STARTCHAR uni2006
ENCODING 8198
SWIDTH 166 0
DWIDTH 2 0
BBX 1 1 0 0
BITMAP
00
ENDCHAR
STARTCHAR uni2007
ENCODING 8199
SWIDTH 559 0
DWIDTH 7 0
BBX 1 1 0 0
BITMAP
00
ENDCHAR
STARTCHAR uni2008
ENCODING 8200
SWIDTH 266 0
DWIDTH 3 0
BBX 1 1 0 0
BITMAP
00
ENDCHAR
STARTCHAR uni2009
ENCODING 8201
SWIDTH 200 0
DWIDTH 2 0
BBX 1 1 0 0
BITMAP
00
ENDCHAR
STARTCHAR uni200A
ENCODING 8202
SWIDTH 100 0
DWIDTH 1 0
BBX 1 1 0 0
BITMAP
00
ENDCHAR
STARTCHAR uni200B
ENCODING 8203
SWIDTH 0 0
DWIDTH 0 0
BBX 1 1 0 0
BITMAP
00
ENDCHAR
STARTCHAR endash
ENCODING 8211
SWIDTH 479 0
DWIDTH 6 0
BBX 6 1 0 3
BITMAP
BFD0
ENDCHAR
STARTCHAR emdash
ENCODING 8212
SWIDTH 959 0
DWIDTH 12 0
BBX 11 1 0 3
BITMAP
BFFFFC
ENDCHAR
STARTCHAR afii00208
ENCODING 8213
SWIDTH 959 0
DWIDTH 12 0
BBX 11 1 0 3
BITMAP
BFFFFC
ENDCHAR
STARTCHAR underscoredbl
ENCODING 8215
SWIDTH 394 0
DWIDTH 5 0
BBX 5 3 -1 -3
BITMAP
AA80
0000
AA80
ENDCHAR
STARTCHAR quoteleft
ENCODING 8216
SWIDTH 169 0
DWIDTH 2 0
BBX 2 3 1 6
BITMAP
20
90
C0
ENDCHAR
STARTCHAR quoteright
ENCODING 8217
SWIDTH 169 0
DWIDTH 2 0
BBX 2 3 1 6
BITMAP
70
90
80
ENDCHAR
STARTCHAR quotesinglbase
ENCODING 8218
SWIDTH 240 0
DWIDTH 3 0
BBX 3 3 -1 -2
BITMAP
28
30
50
ENDCHAR
STARTCHAR quotereversed
ENCODING 8219
SWIDTH 169 0
DWIDTH 2 0
BBX 2 3 1 6
BITMAP
90
50
50
ENDCHAR
STARTCHAR quotedblleft
ENCODING 8220
SWIDTH 351 0
DWIDTH 4 0
BBX 4 3 1 6
BITMAP
22
96
CD
ENDCHAR
STARTCHAR quotedblright
ENCODING 8221
SWIDTH 351 0
DWIDTH 4 0
BBX 4 3 1 6
BITMAP
73
96
88
ENDCHAR
STARTCHAR quotedblbase
ENCODING 8222
SWIDTH 418 0
DWIDTH 5 0
BBX 5 3 -1 -2
BITMAP
2980
3240
5600
ENDCHAR
STARTCHAR dagger
ENCODING 8224
SWIDTH 465 0
DWIDTH 6 0
BBX 5 9 1 0
BITMAP
0900
0800
AE80
0800
1400
2400
3000
3000
6000
ENDCHAR
STARTCHAR daggerdbl
ENCODING 8225
SWIDTH 476 0
DWIDTH 6 0
BBX 6 9 0 0
BITMAP
0280
0240
2BA0
0200
0600
0500
6E80
0800
1800
ENDCHAR
STARTCHAR bullet
ENCODING 8226
SWIDTH 377 0
DWIDTH 5 0
BBX 3 3 1 3
BITMAP
78
B8
B4
ENDCHAR
STARTCHAR ellipsis
ENCODING 8230
SWIDTH 763 0
DWIDTH 9 0
BBX 8 2 0 0
BITMAP
5145
928A
ENDCHAR
STARTCHAR perthousand
ENCODING 8240
SWIDTH 1117 0
DWIDTH 13 0
BBX 12 9 1 0
BITMAP
290900
961800
862000
C5AA29
8AA362
AA5292
089286
249589
606868
ENDCHAR
STARTCHAR minute
ENCODING 8242
SWIDTH 216 0
DWIDTH 3 0
BBX 2 3 1 6
BITMAP
60
50
80
ENDCHAR
STARTCHAR second
ENCODING 8243
SWIDTH 386 0
DWIDTH 5 0
BBX 4 3 1 6
BITMAP
66
55
88
ENDCHAR
STARTCHAR guilsinglleft
ENCODING 8249
SWIDTH 283 0
DWIDTH 3 0
BBX 3 5 0 1
BITMAP
08
24
60
20
14
ENDCHAR
STARTCHAR guilsinglright
ENCODING 8250
SWIDTH 283 0
DWIDTH 3 0
BBX 3 5 0 1
BITMAP
20
24
18
24
90
ENDCHAR
STARTCHAR exclamdbl
ENCODING 8252
SWIDTH 479 0
DWIDTH 6 0
BBX 7 9 0 0
BITMAP
1834
2430
2460
3090
2080
5080
0000
4140
C280
ENDCHAR
STARTCHAR fraction
ENCODING 8260
SWIDTH 130 0
DWIDTH 2 0
BBX 7 9 -3 0
BITMAP
0008
0024
0060
0080
0240
0600
0800
2000
9000
ENDCHAR
STARTCHAR zerosuperior
ENCODING 8304
SWIDTH 350 0
DWIDTH 4 0
BBX 4 5 1 4
BITMAP
69
85
85
88
A4
ENDCHAR
STARTCHAR foursuperior
ENCODING 8308
SWIDTH 350 0
DWIDTH 4 0
BBX 4 5 0 4
BITMAP
03
0A
26
6A
05
ENDCHAR
STARTCHAR fivesuperior
ENCODING 8309
SWIDTH 350 0
DWIDTH 4 0
BBX 4 5 1 4
BITMAP
39
50
68
08
A4
ENDCHAR
STARTCHAR sixsuperior
ENCODING 8310
SWIDTH 350 0
DWIDTH 4 0
BBX 4 5 1 4
BITMAP
29
90
E8
89
A8
ENDCHAR
STARTCHAR sevensuperior
ENCODING 8311
SWIDTH 350 0
DWIDTH 4 0
BBX 4 5 1 4
BITMAP
6A
08
14
20
90
ENDCHAR
STARTCHAR eightsuperior
ENCODING 8312
SWIDTH 350 0
DWIDTH 4 0
BBX 4 5 1 4
BITMAP
69
55
68
88
A8
ENDCHAR
STARTCHAR ninesuperior
ENCODING 8313
SWIDTH 350 0
DWIDTH 4 0
BBX 4 5 1 4
BITMAP
68
85
89
68
A4
ENDCHAR
STARTCHAR nsuperior
ENCODING 8319
SWIDTH 368 0
DWIDTH 4 0
BBX 4 4 1 5
BITMAP
69
52
85
89
ENDCHAR
STARTCHAR franc
ENCODING 8355
SWIDTH 550 0
DWIDTH 7 0
BBX 7 9 0 0
BITMAP
07F8
0900
0900
0C00
0FE0
1800
1400
7A00
3000
ENDCHAR
STARTCHAR afii08941
ENCODING 8356
SWIDTH 550 0
DWIDTH 7 0
BBX 7 9 0 0
BITMAP
02F8
0600
0900
2E80
1800
7E80
2400
2000
FFD0
ENDCHAR
STARTCHAR peseta
ENCODING 8359
SWIDTH 725 0
DWIDTH 9 0
BBX 9 9 0 0
BITMAP
0F8000
08A000
186000
246500
25EE40
3A4C00
300800
601800
901E00
ENDCHAR
STARTCHAR uni20AB
ENCODING 8363
SWIDTH 577 0
DWIDTH 7 0
BBX 8 11 0 -2
BITMAP
000C
01AE
0018
0AA4
2430
7030
6060
61E0
2A90
0000
AA80
ENDCHAR
STARTCHAR Euro
ENCODING 8364
SWIDTH 550 0
DWIDTH 7 0
BBX 7 9 0 0
BITMAP
01B8
0600
0C00
3E90
1400
7E40
2400
1800
0BD0
ENDCHAR
STARTCHAR afii61248
ENCODING 8453
SWIDTH 777 0
DWIDTH 9 0
BBX 8 9 1 0
BITMAP
2909
6014
5060
2880
0240
0668
0885
2489
50A8
ENDCHAR
STARTCHAR afii61289
ENCODING 8467
SWIDTH 500 0
DWIDTH 6 0
BBX 5 9 1 0
BITMAP
1900
3200
3200
3500
3400
7000
3000
2140
1A00
ENDCHAR
STARTCHAR afii61352
ENCODING 8470
SWIDTH 950 0
DWIDTH 11 0
BBX 11 9 0 0
BITMAP
0D0600
0E0500
1B0900
264CA4
218D88
309948
20E558
60B4A0
9072A0
ENDCHAR
STARTCHAR uni2120
ENCODING 8480
SWIDTH 762 0
DWIDTH 9 0
BBX 8 4 0 5
BITMAP
69C3
6196
096A
6966
ENDCHAR
STARTCHAR trademark
ENCODING 8482
SWIDTH 749 0
DWIDTH 9 0
BBX 9 4 0 5
BITMAP
69D240
08A240
08A940
089940
ENDCHAR
STARTCHAR Omega
ENCODING 8486
SWIDTH 732 0
DWIDTH 9 0
BBX 9 9 0 0
BITMAP
02F800
0D0700
280340
340240
300340
300700
240900
182400
FDBE00
ENDCHAR
STARTCHAR estimated
ENCODING 8494
SWIDTH 619 0
DWIDTH 7 0
BBX 7 6 0 0
BITMAP
0A90
3014
7018
7AA4
3014
0A90
ENDCHAR
STARTCHAR oneeighth
ENCODING 8539
SWIDTH 752 0
DWIDTH 9 0
BBX 9 9 0 0
BITMAP
1D0500
181800
082000
189000
158A40
021540
091A00
142200
602A00
ENDCHAR
STARTCHAR threeeighths
ENCODING 8540
SWIDTH 812 0
DWIDTH 10 0
BBX 10 9 0 0
BITMAP
1A0240
020600
190800
022400
695680
008990
020A40
091480
180A40
ENDCHAR
STARTCHAR fiveeighths
ENCODING 8541
SWIDTH 818 0
DWIDTH 10 0
BBX 10 9 0 0
BITMAP
1A0240
200600
290800
022400
695690
018990
020680
091880
180A40
ENDCHAR
STARTCHAR seveneighths
ENCODING 8542
SWIDTH 750 0
DWIDTH 9 0
BBX 9 9 0 0
BITMAP
1B4900
021800
092000
189000
219A40
021540
091A00
142200
602A00
ENDCHAR
STARTCHAR partialdiff
ENCODING 8706
SWIDTH 581 0
DWIDTH 7 0
BBX 7 9 0 0
BITMAP
0BD0
0030
0024
0AA4
2434
3030
6060
7090
2E40
ENDCHAR
STARTCHAR Delta
ENCODING 8710
SWIDTH 558 0
DWIDTH 7 0
BBX 7 9 -1 0
BITMAP
0070
00A4
01A4
0264
0614
0918
1818
2408
7FFC
ENDCHAR
STARTCHAR product
ENCODING 8719
SWIDTH 741 0
DWIDTH 9 0
BBX 7 12 1 -3
BITMAP
BFFC
900C
900C
900C
900C
900C
900C
900C
900C
900C
900C
900C
ENDCHAR
STARTCHAR summation
ENCODING 8721
SWIDTH 630 0
DWIDTH 8 0
BBX 7 12 1 -3
BITMAP
BFF8
7000
1800
0900
0340
01C0
0240
0600
0D00
2800
7000
BFFC
ENDCHAR
STARTCHAR minus
ENCODING 8722
SWIDTH 550 0
DWIDTH 7 0
BBX 6 1 0 4
BITMAP
6AA0
ENDCHAR
STARTCHAR radical
ENCODING 8730
SWIDTH 548 0
DWIDTH 7 0
BBX 8 10 0 0
BITMAP
0009
0008
0018
0024
0020
7460
0890
0980
0680
0340
ENDCHAR
STARTCHAR infinity
ENCODING 8734
SWIDTH 707 0
DWIDTH 8 0
BBX 7 4 1 2
BITMAP
68A4
8748
8708
68A4
ENDCHAR
STARTCHAR integral
ENCODING 8747
SWIDTH 383 0
DWIDTH 5 0
BBX 5 12 0 -3
BITMAP
0740
0C00
0C00
0C00
0C00
0C00
0C00
0C00
0C00
0C00
0800
B400
ENDCHAR
STARTCHAR approxequal
ENCODING 8776
SWIDTH 550 0
DWIDTH 7 0
BBX 7 4 0 2
BITMAP
2D04
41E0
2D04
41E0
ENDCHAR
STARTCHAR notequal
ENCODING 8800
SWIDTH 550 0
DWIDTH 7 0
BBX 6 7 0 1
BITMAP
0080
0080
6BE0
0200
6FA0
0C00
1400
ENDCHAR
STARTCHAR lessequal
ENCODING 8804
SWIDTH 550 0
DWIDTH 7 0
BBX 6 7 0 0
BITMAP
0020
0290
2900
2800
0690
0060
6AA0
ENDCHAR
STARTCHAR greaterequal
ENCODING 8805
SWIDTH 550 0
DWIDTH 7 0
BBX 6 7 0 0
BITMAP
6000
1A00
0190
00A0
1A40
6400
6AA0
ENDCHAR
STARTCHAR lozenge
ENCODING 9674
SWIDTH 583 0
DWIDTH 7 0
BBX 6 9 1 0
BITMAP
0900
1A00
3240
90C0
C090
90C0
3240
1A00
0900
ENDCHAR
STARTCHAR ff
ENCODING 64256
SWIDTH 630 0
DWIDTH 8 0
BBX 11 12 -2 -3
BITMAP
006878
0090C0
00C180
02EBE0
018240
024300
030300
030600
060900
090900
0C0C00
787400
ENDCHAR
STARTCHAR uniFB01
ENCODING 64257
SWIDTH 568 0
DWIDTH 7 0
BBX 9 12 -2 -3
BITMAP
006800
009080
00C000
02E240
018300
024300
030600
030900
060900
090000
0C0000
780000
ENDCHAR
STARTCHAR uniFB02
ENCODING 64258
SWIDTH 568 0
DWIDTH 7 0
BBX 9 12 -2 -3
BITMAP
0069C0
009180
00C140
02E240
018300
024300
030600
030900
060900
090000
0C0000
780000
ENDCHAR
STARTCHAR uniFB03
ENCODING 64259
SWIDTH 886 0
DWIDTH 11 0
BBX 13 12 -2 -3
BITMAP
00687800
0090C180
00C18000
02EBE240
01824300
02430600
03030500
03060900
06090C00
09090000
0C0C0000
78740000
ENDCHAR
STARTCHAR uniFB04
ENCODING 64260
SWIDTH 886 0
DWIDTH 11 0
BBX 13 12 -2 -3
BITMAP
00687980
0090C180
00C18240
02EBE300
01824300
02430600
03030900
03060900
06090C00
09090000
0C0C0000
78740000
ENDCHAR
STARTCHAR uniFEFF
ENCODING 65279
SWIDTH 0 0
DWIDTH 0 0
BBX 1 1 0 0
BITMAP
00
ENDCHAR
STARTCHAR uniFFFC
ENCODING 65532
SWIDTH 1000 0
DWIDTH 12 0
BBX 12 11 0 -2
BITMAP
A6599A
800002
800002
869A22
089620
889A22
469A61
400001
400001
800002
A6599A
ENDCHAR
STARTCHAR uniFFFD
ENCODING 65533
SWIDTH 1000 0
DWIDTH 12 0
BBX 12 11 0 -2
BITMAP
002400
00BD00
024240
0BB8D0
2FF4F4
7FD2FD
2FDBF4
0BFFD0
02CB40
00BD00
002400
ENDCHAR
STARTCHAR .notdef
ENCODING -1
SWIDTH 600 0
DWIDTH 7 0
BBX 5 9 1 0
BITMAP
AA80
8080
8080
8080
8080
8080
8080
8080
AA80
ENDCHAR
STARTCHAR null
ENCODING -1
SWIDTH 0 0
DWIDTH 0 0
BBX 1 1 0 0
BITMAP
00
ENDCHAR
STARTCHAR nonmarkingreturn
ENCODING -1
SWIDTH 509 0
DWIDTH 6 0
BBX 1 1 0 0
BITMAP
00
ENDCHAR
STARTCHAR I.alt
ENCODING -1
SWIDTH 317 0
DWIDTH 4 0
BBX 5 9 0 0
BITMAP
1E40
0900
0C00
0800
1800
2400
2400
3000
B400
ENDCHAR
STARTCHAR Igrave.alt
ENCODING -1
SWIDTH 317 0
DWIDTH 4 0
BBX 5 12 0 0
BITMAP
0C00
0600
0000
1E40
0900
0C00
0800
1800
2400
2400
3000
B400
ENDCHAR
STARTCHAR Iacute.alt
ENCODING -1
SWIDTH 317 0
DWIDTH 4 0
BBX 5 12 0 0
BITMAP
0180
0200
0000
1E40
0900
0C00
0800
1800
2400
2400
3000
B400
ENDCHAR
STARTCHAR Icircumflex.alt
ENCODING -1
SWIDTH 317 0
DWIDTH 4 0
BBX 5 12 0 0
BITMAP
0740
1980
0000
1E40
0900
0C00
0800
1800
2400
2400
3000
B400
ENDCHAR
STARTCHAR Idieresis.alt
ENCODING -1
SWIDTH 317 0
DWIDTH 4 0
BBX 5 11 0 0
BITMAP
1880
0000
1E40
0900
0C00
0800
1800
2400
2400
3000
B400
ENDCHAR
STARTCHAR Itilde.alt
ENCODING -1
SWIDTH 317 0
DWIDTH 4 0
BBX 6 12 0 0
BITMAP
1D50
2280
0000
1E40
0900
0C00
0800
1800
2400
2400
3000
B400
ENDCHAR
STARTCHAR Imacron.alt
ENCODING -1
SWIDTH 317 0
DWIDTH 4 0
BBX 5 11 0 0
BITMAP
1A80
0000
1E40
0900
0C00
0800
1800
2400
2400
3000
B400
ENDCHAR
STARTCHAR Ibreve.alt
ENCODING -1
SWIDTH 317 0
DWIDTH 4 0
BBX 5 12 0 0
BITMAP
1480
0B40
0000
1E40
0900
0C00
0800
1800
2400
2400
3000
B400
ENDCHAR
STARTCHAR Iogonek.alt
ENCODING -1
SWIDTH 317 0
DWIDTH 4 0
BBX 5 12 0 -3
BITMAP
1E40
0900
0C00
0800
1800
2400
2400
3000
B400
6000
8000
A000
ENDCHAR
STARTCHAR Idotaccent.alt
ENCODING -1
SWIDTH 317 0
DWIDTH 4 0
BBX 5 11 0 0
BITMAP
0600
0000
1E40
0900
0C00
0800
1800
2400
2400
3000
B400
ENDCHAR
STARTCHAR IJ.alt
ENCODING -1
SWIDTH 583 0
DWIDTH 7 0
BBX 7 11 0 -2
BITMAP
1E4C
0918
0C18
0824
1824
2430
2460
3060
B490
00C0
0F40
ENDCHAR
STARTCHAR Iotatonos.alt
ENCODING -1
SWIDTH 439 0
DWIDTH 5 0
BBX 6 9 0 0
BITMAP
02E0
2580
6140
0240
0300
0300
0600
0500
1E00
ENDCHAR
STARTCHAR Iota.alt
ENCODING -1
SWIDTH 317 0
DWIDTH 4 0
BBX 5 9 0 0
BITMAP
1E40
0900
0C00
0800
1800
2400
2400
3000
B400
ENDCHAR
STARTCHAR Iotadieresis.alt
ENCODING -1
SWIDTH 317 0
DWIDTH 4 0
BBX 5 11 0 0
BITMAP
1880
0000
1E40
0900
0C00
0800
1800
2400
2400
3000
B400
ENDCHAR
STARTCHAR afii10055.alt
ENCODING -1
SWIDTH 317 0
DWIDTH 4 0
BBX 5 9 0 0
BITMAP
1E40
0900
0C00
0800
1800
2400
2400
3000
B400
ENDCHAR
STARTCHAR afii10056.alt
ENCODING -1
SWIDTH 317 0
DWIDTH 4 0
BBX 5 11 0 0
BITMAP
1880
0000
1E40
0900
0C00
0800
1800
2400
2400
3000
B400
ENDCHAR
STARTCHAR cyrillicbreve
ENCODING -1
SWIDTH 562 0
DWIDTH 7 0
BBX 4 2 2 7
BITMAP
C2
69
ENDCHAR
STARTCHAR caroncommaaccent
ENCODING -1
SWIDTH 477 0
DWIDTH 6 0
BBX 2 2 3 7
BITMAP
60
80
ENDCHAR
STARTCHAR commaaccent
ENCODING -1
SWIDTH 477 0
DWIDTH 6 0
BBX 2 2 1 -3
BITMAP
60
80
ENDCHAR
STARTCHAR commaaccentrotate
ENCODING -1
SWIDTH 477 0
DWIDTH 6 0
BBX 2 2 3 7
BITMAP
60
80
ENDCHAR
STARTCHAR dasiaoxia
ENCODING -1
SWIDTH 418 0
DWIDTH 5 0
BBX 3 2 2 7
BITMAP
9C
A4
ENDCHAR
STARTCHAR uni04C0.alt
ENCODING -1
SWIDTH 317 0
DWIDTH 4 0
BBX 5 9 0 0
BITMAP
1E40
0900
0C00
0800
1800
2400
2400
3000
B400
ENDCHAR
STARTCHAR uni04CF.alt
ENCODING -1
SWIDTH 317 0
DWIDTH 4 0
BBX 5 9 0 0
BITMAP
1E40
0900
0C00
0800
1800
2400
2400
3000
B400
ENDCHAR
STARTCHAR uni1EC8.alt
ENCODING -1
SWIDTH 317 0
DWIDTH 4 0
BBX 5 13 0 0
BITMAP
0240
0180
0600
0000
1E40
0900
0C00
0800
1800
2400
2400
3000
B400
ENDCHAR
STARTCHAR uni1ECA.alt
ENCODING -1
SWIDTH 317 0
DWIDTH 4 0
BBX 5 11 0 -2
BITMAP
1E40
0900
0C00
0800
1800
2400
2400
3000
B400
0000
5000
ENDCHAR
STARTCHAR circumflexacutecomb
ENCODING -1
SWIDTH 0 0
DWIDTH 0 0
BBX 5 2 -4 7
BITMAP
0240
A400
ENDCHAR
STARTCHAR circumflexgravecomb
ENCODING -1
SWIDTH 0 0
DWIDTH 0 0
BBX 4 2 -5 7
BITMAP
80
29
ENDCHAR
STARTCHAR circumflexhookcomb
ENCODING -1
SWIDTH 0 0
DWIDTH 0 0
BBX 5 3 -5 7
BITMAP
0080
1D80
5200
ENDCHAR
STARTCHAR circumflextildecomb
ENCODING -1
SWIDTH 0 0
DWIDTH 0 0
BBX 5 3 -5 7
BITMAP
2880
6E00
5200
ENDCHAR
STARTCHAR breveacutecomb
ENCODING -1
SWIDTH 0 0
DWIDTH 0 0
BBX 4 3 -5 7
BITMAP
05
52
29
ENDCHAR
STARTCHAR brevegravecomb
ENCODING -1
SWIDTH 0 0
DWIDTH 0 0
BBX 4 3 -5 7
BITMAP
14
52
29
ENDCHAR
STARTCHAR brevehookcomb
ENCODING -1
SWIDTH 0 0
DWIDTH 0 0
BBX 4 3 -5 7
BITMAP
09
5A
29
ENDCHAR
STARTCHAR brevetildecomb
ENCODING -1
SWIDTH 0 0
DWIDTH 0 0
BBX 5 3 -5 7
BITMAP
2A40
5200
2900
ENDCHAR
STARTCHAR cyrillichookleft
ENCODING -1
SWIDTH 205 0
DWIDTH 2 0
BBX 2 3 -1 -3
BITMAP
20
20
A0
ENDCHAR
STARTCHAR one.pnum
ENCODING -1
SWIDTH 375 0
DWIDTH 5 0
BBX 4 9 1 0
BITMAP
1D
AC
58
18
24
24
30
60
60
ENDCHAR
STARTCHAR zero.os
ENCODING -1
SWIDTH 554 0
DWIDTH 7 0
BBX 6 6 0 0
BITMAP
0BD0
2430
6030
6030
6090
2E80
ENDCHAR
STARTCHAR one.os
ENCODING -1
SWIDTH 358 0
DWIDTH 4 0
BBX 4 6 0 0
BITMAP
0A
69
08
0C
18
14
ENDCHAR
STARTCHAR two.os
ENCODING -1
SWIDTH 483 0
DWIDTH 6 0
BBX 6 6 0 0
BITMAP
1B80
1090
0180
0600
6400
FF80
ENDCHAR
STARTCHAR three.os
ENCODING -1
SWIDTH 483 0
DWIDTH 6 0
BBX 6 8 -1 -2
BITMAP
0AE0
0430
0060
0B80
0090
00A0
40D0
BE40
ENDCHAR
STARTCHAR four.os
ENCODING -1
SWIDTH 540 0
DWIDTH 6 0
BBX 7 8 -1 -2
BITMAP
0028
00A4
0264
0930
2460
6AF8
0090
00C0
ENDCHAR
STARTCHAR five.os
ENCODING -1
SWIDTH 503 0
DWIDTH 6 0
BBX 6 8 0 -2
BITMAP
1FE0
2400
3000
7B40
00C0
00C0
0180
BE00
ENDCHAR
STARTCHAR six.os
ENCODING -1
SWIDTH 540 0
DWIDTH 6 0
BBX 7 9 0 0
BITMAP
02F4
0900
1800
3AD0
3460
6020
6060
3090
1E40
ENDCHAR
STARTCHAR seven.os
ENCODING -1
SWIDTH 474 0
DWIDTH 6 0
BBX 6 8 0 -2
BITMAP
BFE0
0080
0240
0600
0900
1800
3000
9000
ENDCHAR
STARTCHAR eight.os
ENCODING -1
SWIDTH 534 0
DWIDTH 6 0
BBX 7 9 0 0
BITMAP
07E0
1834
1820
0DA0
1B80
7490
9060
A090
2F80
ENDCHAR
STARTCHAR nine.os
ENCODING -1
SWIDTH 527 0
DWIDTH 6 0
BBX 6 8 0 -2
BITMAP
1B80
3060
6060
60A0
2A90
00C0
0240
BD00
ENDCHAR
STARTCHAR g.alt
ENCODING -1
SWIDTH 577 0
DWIDTH 7 0
BBX 7 9 0 -3
BITMAP
0B94
2834
3030
6060
61E0
2A90
00C0
0180
7E00
ENDCHAR
STARTCHAR gcircumflex.alt
ENCODING -1
SWIDTH 577 0
DWIDTH 7 0
BBX 7 12 0 -3
BITMAP
01D0
0620
0000
0B94
2834
3030
6060
61E0
2A90
00C0
0180
7E00
ENDCHAR
STARTCHAR gbreve.alt
ENCODING -1
SWIDTH 577 0
DWIDTH 7 0
BBX 7 12 0 -3
BITMAP
0220
02D0
0000
0B94
2834
3030
6060
61E0
2A90
00C0
0180
7E00
ENDCHAR
STARTCHAR gdot.alt
ENCODING -1
SWIDTH 577 0
DWIDTH 7 0
BBX 7 11 0 -3
BITMAP
0180
0000
0B94
2834
3030
6060
61E0
2A90
00C0
0180
7E00
ENDCHAR
STARTCHAR gcommaaccent.alt
ENCODING -1
SWIDTH 577 0
DWIDTH 7 0
BBX 7 12 0 -3
BITMAP
0050
0080
0000
0B94
2834
3030
6060
61E0
2A90
00C0
0180
7E00
ENDCHAR
ENDFONT
